G04 #@! TF.GenerationSoftware,KiCad,Pcbnew,5.1.7*
G04 #@! TF.CreationDate,2020-11-06T15:39:21+01:00*
G04 #@! TF.ProjectId,signal_generator,7369676e-616c-45f6-9765-6e657261746f,rev?*
G04 #@! TF.SameCoordinates,Original*
G04 #@! TF.FileFunction,Legend,Top*
G04 #@! TF.FilePolarity,Positive*
%FSLAX46Y46*%
G04 Gerber Fmt 4.6, Leading zero omitted, Abs format (unit mm)*
G04 Created by KiCad (PCBNEW 5.1.7) date 2020-11-06 15:39:21*
%MOMM*%
%LPD*%
G01*
G04 APERTURE LIST*
%ADD10C,0.125000*%
%ADD11C,0.150000*%
%ADD12C,0.120000*%
%ADD13C,0.127000*%
%ADD14C,0.152400*%
%ADD15C,0.203200*%
%ADD16C,0.101600*%
G04 APERTURE END LIST*
D10*
X248773190Y-92995333D02*
X249177952Y-92995333D01*
X249225571Y-92971523D01*
X249249380Y-92947714D01*
X249273190Y-92900095D01*
X249273190Y-92804857D01*
X249249380Y-92757238D01*
X249225571Y-92733428D01*
X249177952Y-92709619D01*
X248773190Y-92709619D01*
X248939857Y-92471523D02*
X249273190Y-92471523D01*
X248987476Y-92471523D02*
X248963666Y-92447714D01*
X248939857Y-92400095D01*
X248939857Y-92328666D01*
X248963666Y-92281047D01*
X249011285Y-92257238D01*
X249273190Y-92257238D01*
X249273190Y-92019142D02*
X248773190Y-92019142D01*
X248963666Y-92019142D02*
X248939857Y-91971523D01*
X248939857Y-91876285D01*
X248963666Y-91828666D01*
X248987476Y-91804857D01*
X249035095Y-91781047D01*
X249177952Y-91781047D01*
X249225571Y-91804857D01*
X249249380Y-91828666D01*
X249273190Y-91876285D01*
X249273190Y-91971523D01*
X249249380Y-92019142D01*
X248939857Y-91352476D02*
X249273190Y-91352476D01*
X248939857Y-91566761D02*
X249201761Y-91566761D01*
X249249380Y-91542952D01*
X249273190Y-91495333D01*
X249273190Y-91423904D01*
X249249380Y-91376285D01*
X249225571Y-91352476D01*
X248939857Y-91185809D02*
X248939857Y-90995333D01*
X249273190Y-91114380D02*
X248844619Y-91114380D01*
X248797000Y-91090571D01*
X248773190Y-91042952D01*
X248773190Y-90995333D01*
X248939857Y-90900095D02*
X248939857Y-90709619D01*
X249273190Y-90828666D02*
X248844619Y-90828666D01*
X248797000Y-90804857D01*
X248773190Y-90757238D01*
X248773190Y-90709619D01*
X249249380Y-90352476D02*
X249273190Y-90400095D01*
X249273190Y-90495333D01*
X249249380Y-90542952D01*
X249201761Y-90566761D01*
X249011285Y-90566761D01*
X248963666Y-90542952D01*
X248939857Y-90495333D01*
X248939857Y-90400095D01*
X248963666Y-90352476D01*
X249011285Y-90328666D01*
X249058904Y-90328666D01*
X249106523Y-90566761D01*
X249273190Y-90114380D02*
X248939857Y-90114380D01*
X249035095Y-90114380D02*
X248987476Y-90090571D01*
X248963666Y-90066761D01*
X248939857Y-90019142D01*
X248939857Y-89971523D01*
X249249380Y-89614380D02*
X249273190Y-89662000D01*
X249273190Y-89757238D01*
X249249380Y-89804857D01*
X249201761Y-89828666D01*
X249011285Y-89828666D01*
X248963666Y-89804857D01*
X248939857Y-89757238D01*
X248939857Y-89662000D01*
X248963666Y-89614380D01*
X249011285Y-89590571D01*
X249058904Y-89590571D01*
X249106523Y-89828666D01*
X249273190Y-89162000D02*
X248773190Y-89162000D01*
X249249380Y-89162000D02*
X249273190Y-89209619D01*
X249273190Y-89304857D01*
X249249380Y-89352476D01*
X249225571Y-89376285D01*
X249177952Y-89400095D01*
X249035095Y-89400095D01*
X248987476Y-89376285D01*
X248963666Y-89352476D01*
X248939857Y-89304857D01*
X248939857Y-89209619D01*
X248963666Y-89162000D01*
X248773190Y-88447714D02*
X248773190Y-88352476D01*
X248797000Y-88304857D01*
X248844619Y-88257238D01*
X248939857Y-88233428D01*
X249106523Y-88233428D01*
X249201761Y-88257238D01*
X249249380Y-88304857D01*
X249273190Y-88352476D01*
X249273190Y-88447714D01*
X249249380Y-88495333D01*
X249201761Y-88542952D01*
X249106523Y-88566761D01*
X248939857Y-88566761D01*
X248844619Y-88542952D01*
X248797000Y-88495333D01*
X248773190Y-88447714D01*
X248939857Y-87804857D02*
X249273190Y-87804857D01*
X248939857Y-88019142D02*
X249201761Y-88019142D01*
X249249380Y-87995333D01*
X249273190Y-87947714D01*
X249273190Y-87876285D01*
X249249380Y-87828666D01*
X249225571Y-87804857D01*
X248939857Y-87638190D02*
X248939857Y-87447714D01*
X248773190Y-87566761D02*
X249201761Y-87566761D01*
X249249380Y-87542952D01*
X249273190Y-87495333D01*
X249273190Y-87447714D01*
X248939857Y-87281047D02*
X249439857Y-87281047D01*
X248963666Y-87281047D02*
X248939857Y-87233428D01*
X248939857Y-87138190D01*
X248963666Y-87090571D01*
X248987476Y-87066761D01*
X249035095Y-87042952D01*
X249177952Y-87042952D01*
X249225571Y-87066761D01*
X249249380Y-87090571D01*
X249273190Y-87138190D01*
X249273190Y-87233428D01*
X249249380Y-87281047D01*
X248939857Y-86614380D02*
X249273190Y-86614380D01*
X248939857Y-86828666D02*
X249201761Y-86828666D01*
X249249380Y-86804857D01*
X249273190Y-86757238D01*
X249273190Y-86685809D01*
X249249380Y-86638190D01*
X249225571Y-86614380D01*
X248939857Y-86447714D02*
X248939857Y-86257238D01*
X248773190Y-86376285D02*
X249201761Y-86376285D01*
X249249380Y-86352476D01*
X249273190Y-86304857D01*
X249273190Y-86257238D01*
X259044285Y-92110380D02*
X259068095Y-92038952D01*
X259091904Y-92015142D01*
X259139523Y-91991333D01*
X259210952Y-91991333D01*
X259258571Y-92015142D01*
X259282380Y-92038952D01*
X259306190Y-92086571D01*
X259306190Y-92277047D01*
X258806190Y-92277047D01*
X258806190Y-92110380D01*
X258830000Y-92062761D01*
X258853809Y-92038952D01*
X258901428Y-92015142D01*
X258949047Y-92015142D01*
X258996666Y-92038952D01*
X259020476Y-92062761D01*
X259044285Y-92110380D01*
X259044285Y-92277047D01*
X258972857Y-91562761D02*
X259306190Y-91562761D01*
X258972857Y-91777047D02*
X259234761Y-91777047D01*
X259282380Y-91753238D01*
X259306190Y-91705619D01*
X259306190Y-91634190D01*
X259282380Y-91586571D01*
X259258571Y-91562761D01*
X258972857Y-91396095D02*
X258972857Y-91205619D01*
X259306190Y-91324666D02*
X258877619Y-91324666D01*
X258830000Y-91300857D01*
X258806190Y-91253238D01*
X258806190Y-91205619D01*
X258972857Y-91110380D02*
X258972857Y-90919904D01*
X259306190Y-91038952D02*
X258877619Y-91038952D01*
X258830000Y-91015142D01*
X258806190Y-90967523D01*
X258806190Y-90919904D01*
X259282380Y-90562761D02*
X259306190Y-90610380D01*
X259306190Y-90705619D01*
X259282380Y-90753238D01*
X259234761Y-90777047D01*
X259044285Y-90777047D01*
X258996666Y-90753238D01*
X258972857Y-90705619D01*
X258972857Y-90610380D01*
X258996666Y-90562761D01*
X259044285Y-90538952D01*
X259091904Y-90538952D01*
X259139523Y-90777047D01*
X259306190Y-90324666D02*
X258972857Y-90324666D01*
X259068095Y-90324666D02*
X259020476Y-90300857D01*
X258996666Y-90277047D01*
X258972857Y-90229428D01*
X258972857Y-90181809D01*
X259282380Y-89824666D02*
X259306190Y-89872285D01*
X259306190Y-89967523D01*
X259282380Y-90015142D01*
X259234761Y-90038952D01*
X259044285Y-90038952D01*
X258996666Y-90015142D01*
X258972857Y-89967523D01*
X258972857Y-89872285D01*
X258996666Y-89824666D01*
X259044285Y-89800857D01*
X259091904Y-89800857D01*
X259139523Y-90038952D01*
X259306190Y-89372285D02*
X258806190Y-89372285D01*
X259282380Y-89372285D02*
X259306190Y-89419904D01*
X259306190Y-89515142D01*
X259282380Y-89562761D01*
X259258571Y-89586571D01*
X259210952Y-89610380D01*
X259068095Y-89610380D01*
X259020476Y-89586571D01*
X258996666Y-89562761D01*
X258972857Y-89515142D01*
X258972857Y-89419904D01*
X258996666Y-89372285D01*
X258806190Y-88658000D02*
X258806190Y-88562761D01*
X258830000Y-88515142D01*
X258877619Y-88467523D01*
X258972857Y-88443714D01*
X259139523Y-88443714D01*
X259234761Y-88467523D01*
X259282380Y-88515142D01*
X259306190Y-88562761D01*
X259306190Y-88658000D01*
X259282380Y-88705619D01*
X259234761Y-88753238D01*
X259139523Y-88777047D01*
X258972857Y-88777047D01*
X258877619Y-88753238D01*
X258830000Y-88705619D01*
X258806190Y-88658000D01*
X258972857Y-88015142D02*
X259306190Y-88015142D01*
X258972857Y-88229428D02*
X259234761Y-88229428D01*
X259282380Y-88205619D01*
X259306190Y-88158000D01*
X259306190Y-88086571D01*
X259282380Y-88038952D01*
X259258571Y-88015142D01*
X258972857Y-87848476D02*
X258972857Y-87658000D01*
X258806190Y-87777047D02*
X259234761Y-87777047D01*
X259282380Y-87753238D01*
X259306190Y-87705619D01*
X259306190Y-87658000D01*
X258972857Y-87491333D02*
X259472857Y-87491333D01*
X258996666Y-87491333D02*
X258972857Y-87443714D01*
X258972857Y-87348476D01*
X258996666Y-87300857D01*
X259020476Y-87277047D01*
X259068095Y-87253238D01*
X259210952Y-87253238D01*
X259258571Y-87277047D01*
X259282380Y-87300857D01*
X259306190Y-87348476D01*
X259306190Y-87443714D01*
X259282380Y-87491333D01*
X258972857Y-86824666D02*
X259306190Y-86824666D01*
X258972857Y-87038952D02*
X259234761Y-87038952D01*
X259282380Y-87015142D01*
X259306190Y-86967523D01*
X259306190Y-86896095D01*
X259282380Y-86848476D01*
X259258571Y-86824666D01*
X258972857Y-86658000D02*
X258972857Y-86467523D01*
X258806190Y-86586571D02*
X259234761Y-86586571D01*
X259282380Y-86562761D01*
X259306190Y-86515142D01*
X259306190Y-86467523D01*
D11*
X199692000Y-61127142D02*
X199644380Y-61174761D01*
X199501523Y-61222380D01*
X199406285Y-61222380D01*
X199263428Y-61174761D01*
X199168190Y-61079523D01*
X199120571Y-60984285D01*
X199072952Y-60793809D01*
X199072952Y-60650952D01*
X199120571Y-60460476D01*
X199168190Y-60365238D01*
X199263428Y-60270000D01*
X199406285Y-60222380D01*
X199501523Y-60222380D01*
X199644380Y-60270000D01*
X199692000Y-60317619D01*
X200120571Y-61222380D02*
X200120571Y-60222380D01*
X200453904Y-60936666D01*
X200787238Y-60222380D01*
X200787238Y-61222380D01*
X201453904Y-60222380D02*
X201644380Y-60222380D01*
X201739619Y-60270000D01*
X201834857Y-60365238D01*
X201882476Y-60555714D01*
X201882476Y-60889047D01*
X201834857Y-61079523D01*
X201739619Y-61174761D01*
X201644380Y-61222380D01*
X201453904Y-61222380D01*
X201358666Y-61174761D01*
X201263428Y-61079523D01*
X201215809Y-60889047D01*
X201215809Y-60555714D01*
X201263428Y-60365238D01*
X201358666Y-60270000D01*
X201453904Y-60222380D01*
X202311047Y-61222380D02*
X202311047Y-60222380D01*
X202549142Y-60222380D01*
X202692000Y-60270000D01*
X202787238Y-60365238D01*
X202834857Y-60460476D01*
X202882476Y-60650952D01*
X202882476Y-60793809D01*
X202834857Y-60984285D01*
X202787238Y-61079523D01*
X202692000Y-61174761D01*
X202549142Y-61222380D01*
X202311047Y-61222380D01*
X204025333Y-61174761D02*
X204168190Y-61222380D01*
X204406285Y-61222380D01*
X204501523Y-61174761D01*
X204549142Y-61127142D01*
X204596761Y-61031904D01*
X204596761Y-60936666D01*
X204549142Y-60841428D01*
X204501523Y-60793809D01*
X204406285Y-60746190D01*
X204215809Y-60698571D01*
X204120571Y-60650952D01*
X204072952Y-60603333D01*
X204025333Y-60508095D01*
X204025333Y-60412857D01*
X204072952Y-60317619D01*
X204120571Y-60270000D01*
X204215809Y-60222380D01*
X204453904Y-60222380D01*
X204596761Y-60270000D01*
X204930095Y-60222380D02*
X205596761Y-60222380D01*
X205168190Y-61222380D01*
X192977714Y-61967619D02*
X193025333Y-61920000D01*
X193120571Y-61872380D01*
X193358666Y-61872380D01*
X193453904Y-61920000D01*
X193501523Y-61967619D01*
X193549142Y-62062857D01*
X193549142Y-62158095D01*
X193501523Y-62300952D01*
X192930095Y-62872380D01*
X193549142Y-62872380D01*
X194549142Y-62777142D02*
X194501523Y-62824761D01*
X194358666Y-62872380D01*
X194263428Y-62872380D01*
X194120571Y-62824761D01*
X194025333Y-62729523D01*
X193977714Y-62634285D01*
X193930095Y-62443809D01*
X193930095Y-62300952D01*
X193977714Y-62110476D01*
X194025333Y-62015238D01*
X194120571Y-61920000D01*
X194263428Y-61872380D01*
X194358666Y-61872380D01*
X194501523Y-61920000D01*
X194549142Y-61967619D01*
X194977714Y-62872380D02*
X194977714Y-61872380D01*
X194977714Y-62348571D02*
X195549142Y-62348571D01*
X195549142Y-62872380D02*
X195549142Y-61872380D01*
X196739619Y-62586666D02*
X197215809Y-62586666D01*
X196644380Y-62872380D02*
X196977714Y-61872380D01*
X197311047Y-62872380D01*
X197644380Y-62205714D02*
X197644380Y-62872380D01*
X197644380Y-62300952D02*
X197692000Y-62253333D01*
X197787238Y-62205714D01*
X197930095Y-62205714D01*
X198025333Y-62253333D01*
X198072952Y-62348571D01*
X198072952Y-62872380D01*
X198977714Y-62872380D02*
X198977714Y-62348571D01*
X198930095Y-62253333D01*
X198834857Y-62205714D01*
X198644380Y-62205714D01*
X198549142Y-62253333D01*
X198977714Y-62824761D02*
X198882476Y-62872380D01*
X198644380Y-62872380D01*
X198549142Y-62824761D01*
X198501523Y-62729523D01*
X198501523Y-62634285D01*
X198549142Y-62539047D01*
X198644380Y-62491428D01*
X198882476Y-62491428D01*
X198977714Y-62443809D01*
X199596761Y-62872380D02*
X199501523Y-62824761D01*
X199453904Y-62729523D01*
X199453904Y-61872380D01*
X200120571Y-62872380D02*
X200025333Y-62824761D01*
X199977714Y-62777142D01*
X199930095Y-62681904D01*
X199930095Y-62396190D01*
X199977714Y-62300952D01*
X200025333Y-62253333D01*
X200120571Y-62205714D01*
X200263428Y-62205714D01*
X200358666Y-62253333D01*
X200406285Y-62300952D01*
X200453904Y-62396190D01*
X200453904Y-62681904D01*
X200406285Y-62777142D01*
X200358666Y-62824761D01*
X200263428Y-62872380D01*
X200120571Y-62872380D01*
X201311047Y-62205714D02*
X201311047Y-63015238D01*
X201263428Y-63110476D01*
X201215809Y-63158095D01*
X201120571Y-63205714D01*
X200977714Y-63205714D01*
X200882476Y-63158095D01*
X201311047Y-62824761D02*
X201215809Y-62872380D01*
X201025333Y-62872380D01*
X200930095Y-62824761D01*
X200882476Y-62777142D01*
X200834857Y-62681904D01*
X200834857Y-62396190D01*
X200882476Y-62300952D01*
X200930095Y-62253333D01*
X201025333Y-62205714D01*
X201215809Y-62205714D01*
X201311047Y-62253333D01*
X202739619Y-61872380D02*
X202930095Y-61872380D01*
X203025333Y-61920000D01*
X203120571Y-62015238D01*
X203168190Y-62205714D01*
X203168190Y-62539047D01*
X203120571Y-62729523D01*
X203025333Y-62824761D01*
X202930095Y-62872380D01*
X202739619Y-62872380D01*
X202644380Y-62824761D01*
X202549142Y-62729523D01*
X202501523Y-62539047D01*
X202501523Y-62205714D01*
X202549142Y-62015238D01*
X202644380Y-61920000D01*
X202739619Y-61872380D01*
X204025333Y-62205714D02*
X204025333Y-62872380D01*
X203596761Y-62205714D02*
X203596761Y-62729523D01*
X203644380Y-62824761D01*
X203739619Y-62872380D01*
X203882476Y-62872380D01*
X203977714Y-62824761D01*
X204025333Y-62777142D01*
X204358666Y-62205714D02*
X204739619Y-62205714D01*
X204501523Y-61872380D02*
X204501523Y-62729523D01*
X204549142Y-62824761D01*
X204644380Y-62872380D01*
X204739619Y-62872380D01*
X205072952Y-62205714D02*
X205072952Y-63205714D01*
X205072952Y-62253333D02*
X205168190Y-62205714D01*
X205358666Y-62205714D01*
X205453904Y-62253333D01*
X205501523Y-62300952D01*
X205549142Y-62396190D01*
X205549142Y-62681904D01*
X205501523Y-62777142D01*
X205453904Y-62824761D01*
X205358666Y-62872380D01*
X205168190Y-62872380D01*
X205072952Y-62824761D01*
X206406285Y-62205714D02*
X206406285Y-62872380D01*
X205977714Y-62205714D02*
X205977714Y-62729523D01*
X206025333Y-62824761D01*
X206120571Y-62872380D01*
X206263428Y-62872380D01*
X206358666Y-62824761D01*
X206406285Y-62777142D01*
X206739619Y-62205714D02*
X207120571Y-62205714D01*
X206882476Y-61872380D02*
X206882476Y-62729523D01*
X206930095Y-62824761D01*
X207025333Y-62872380D01*
X207120571Y-62872380D01*
X208168190Y-62824761D02*
X208311047Y-62872380D01*
X208549142Y-62872380D01*
X208644380Y-62824761D01*
X208692000Y-62777142D01*
X208739619Y-62681904D01*
X208739619Y-62586666D01*
X208692000Y-62491428D01*
X208644380Y-62443809D01*
X208549142Y-62396190D01*
X208358666Y-62348571D01*
X208263428Y-62300952D01*
X208215809Y-62253333D01*
X208168190Y-62158095D01*
X208168190Y-62062857D01*
X208215809Y-61967619D01*
X208263428Y-61920000D01*
X208358666Y-61872380D01*
X208596761Y-61872380D01*
X208739619Y-61920000D01*
X209168190Y-62872380D02*
X209168190Y-61872380D01*
X209596761Y-62872380D02*
X209596761Y-62348571D01*
X209549142Y-62253333D01*
X209453904Y-62205714D01*
X209311047Y-62205714D01*
X209215809Y-62253333D01*
X209168190Y-62300952D01*
X210072952Y-62872380D02*
X210072952Y-62205714D01*
X210072952Y-61872380D02*
X210025333Y-61920000D01*
X210072952Y-61967619D01*
X210120571Y-61920000D01*
X210072952Y-61872380D01*
X210072952Y-61967619D01*
X210930095Y-62824761D02*
X210834857Y-62872380D01*
X210644380Y-62872380D01*
X210549142Y-62824761D01*
X210501523Y-62729523D01*
X210501523Y-62348571D01*
X210549142Y-62253333D01*
X210644380Y-62205714D01*
X210834857Y-62205714D01*
X210930095Y-62253333D01*
X210977714Y-62348571D01*
X210977714Y-62443809D01*
X210501523Y-62539047D01*
X211549142Y-62872380D02*
X211453904Y-62824761D01*
X211406285Y-62729523D01*
X211406285Y-61872380D01*
X212358666Y-62872380D02*
X212358666Y-61872380D01*
X212358666Y-62824761D02*
X212263428Y-62872380D01*
X212072952Y-62872380D01*
X211977714Y-62824761D01*
X211930095Y-62777142D01*
X211882476Y-62681904D01*
X211882476Y-62396190D01*
X211930095Y-62300952D01*
X211977714Y-62253333D01*
X212072952Y-62205714D01*
X212263428Y-62205714D01*
X212358666Y-62253333D01*
D12*
X252957776Y-95489500D02*
X253467224Y-95489500D01*
X252957776Y-96534500D02*
X253467224Y-96534500D01*
X253237276Y-107681500D02*
X253746724Y-107681500D01*
X253237276Y-108726500D02*
X253746724Y-108726500D01*
X243698500Y-105156724D02*
X243698500Y-104647276D01*
X244743500Y-105156724D02*
X244743500Y-104647276D01*
X244743500Y-98932276D02*
X244743500Y-99441724D01*
X243698500Y-98932276D02*
X243698500Y-99441724D01*
X253985500Y-99314724D02*
X253985500Y-98805276D01*
X255030500Y-99314724D02*
X255030500Y-98805276D01*
X255030500Y-104901276D02*
X255030500Y-105410724D01*
X253985500Y-104901276D02*
X253985500Y-105410724D01*
X240933500Y-104647276D02*
X240933500Y-105156724D01*
X239888500Y-104647276D02*
X239888500Y-105156724D01*
X242838500Y-104647276D02*
X242838500Y-105156724D01*
X241793500Y-104647276D02*
X241793500Y-105156724D01*
X239888500Y-99441724D02*
X239888500Y-98932276D01*
X240933500Y-99441724D02*
X240933500Y-98932276D01*
X241793500Y-99441724D02*
X241793500Y-98932276D01*
X242838500Y-99441724D02*
X242838500Y-98932276D01*
X232155276Y-105141500D02*
X232664724Y-105141500D01*
X232155276Y-106186500D02*
X232664724Y-106186500D01*
X232155276Y-97267500D02*
X232664724Y-97267500D01*
X232155276Y-98312500D02*
X232664724Y-98312500D01*
X232155276Y-103109500D02*
X232664724Y-103109500D01*
X232155276Y-104154500D02*
X232664724Y-104154500D01*
X232155276Y-99299500D02*
X232664724Y-99299500D01*
X232155276Y-100344500D02*
X232664724Y-100344500D01*
X235711276Y-100188500D02*
X236220724Y-100188500D01*
X235711276Y-101233500D02*
X236220724Y-101233500D01*
X235711276Y-102347500D02*
X236220724Y-102347500D01*
X235711276Y-103392500D02*
X236220724Y-103392500D01*
X236220724Y-99328500D02*
X235711276Y-99328500D01*
X236220724Y-98283500D02*
X235711276Y-98283500D01*
X236220724Y-105297500D02*
X235711276Y-105297500D01*
X236220724Y-104252500D02*
X235711276Y-104252500D01*
X234442724Y-113806500D02*
X233933276Y-113806500D01*
X234442724Y-112761500D02*
X233933276Y-112761500D01*
X243706767Y-102618000D02*
X243414233Y-102618000D01*
X243706767Y-101598000D02*
X243414233Y-101598000D01*
X217316267Y-103634000D02*
X217023733Y-103634000D01*
X217316267Y-102614000D02*
X217023733Y-102614000D01*
X217316267Y-100332000D02*
X217023733Y-100332000D01*
X217316267Y-99312000D02*
X217023733Y-99312000D01*
X255670267Y-102618000D02*
X255377733Y-102618000D01*
X255670267Y-101598000D02*
X255377733Y-101598000D01*
X229106000Y-95878767D02*
X229106000Y-95586233D01*
X230126000Y-95878767D02*
X230126000Y-95586233D01*
X241534733Y-106932000D02*
X241827267Y-106932000D01*
X241534733Y-107952000D02*
X241827267Y-107952000D01*
X241382233Y-96137000D02*
X241674767Y-96137000D01*
X241382233Y-97157000D02*
X241674767Y-97157000D01*
X232289233Y-101090000D02*
X232581767Y-101090000D01*
X232289233Y-102110000D02*
X232581767Y-102110000D01*
X235819733Y-96391000D02*
X236112267Y-96391000D01*
X235819733Y-97411000D02*
X236112267Y-97411000D01*
X235819733Y-106170000D02*
X236112267Y-106170000D01*
X235819733Y-107190000D02*
X236112267Y-107190000D01*
D13*
X225044000Y-127532000D02*
X228044000Y-127532000D01*
X225044000Y-130532000D02*
X225044000Y-127532000D01*
X228044000Y-130532000D02*
X225044000Y-130532000D01*
X228044000Y-127532000D02*
X228044000Y-130532000D01*
X228068000Y-124436000D02*
X225068000Y-124436000D01*
X228068000Y-121436000D02*
X228068000Y-124436000D01*
X225068000Y-121436000D02*
X228068000Y-121436000D01*
X225068000Y-124436000D02*
X225068000Y-121436000D01*
D12*
X249428000Y-106543000D02*
X251378000Y-106543000D01*
X249428000Y-106543000D02*
X247478000Y-106543000D01*
X249428000Y-97673000D02*
X251378000Y-97673000D01*
X249428000Y-97673000D02*
X245978000Y-97673000D01*
D14*
X250850000Y-126698000D02*
X250850000Y-128318000D01*
X248006000Y-128318000D02*
X248006000Y-126698000D01*
X248906000Y-126698000D02*
X249950000Y-126698000D01*
X249000000Y-128318000D02*
X248906000Y-128318000D01*
X249950000Y-128318000D02*
X249856000Y-128318000D01*
X248100000Y-128318000D02*
X248006000Y-128318000D01*
X250850000Y-128318000D02*
X250756000Y-128318000D01*
X250756000Y-126698000D02*
X250850000Y-126698000D01*
X248006000Y-126698000D02*
X248100000Y-126698000D01*
X242214000Y-126698000D02*
X242214000Y-128318000D01*
X239370000Y-128318000D02*
X239370000Y-126698000D01*
X240270000Y-126698000D02*
X241314000Y-126698000D01*
X240364000Y-128318000D02*
X240270000Y-128318000D01*
X241314000Y-128318000D02*
X241220000Y-128318000D01*
X239464000Y-128318000D02*
X239370000Y-128318000D01*
X242214000Y-128318000D02*
X242120000Y-128318000D01*
X242120000Y-126698000D02*
X242214000Y-126698000D01*
X239370000Y-126698000D02*
X239464000Y-126698000D01*
X233070000Y-125174000D02*
X233070000Y-126794000D01*
X230226000Y-126794000D02*
X230226000Y-125174000D01*
X231126000Y-125174000D02*
X232170000Y-125174000D01*
X231220000Y-126794000D02*
X231126000Y-126794000D01*
X232170000Y-126794000D02*
X232076000Y-126794000D01*
X230320000Y-126794000D02*
X230226000Y-126794000D01*
X233070000Y-126794000D02*
X232976000Y-126794000D01*
X232976000Y-125174000D02*
X233070000Y-125174000D01*
X230226000Y-125174000D02*
X230320000Y-125174000D01*
X223418000Y-126698000D02*
X223418000Y-128318000D01*
X220574000Y-128318000D02*
X220574000Y-126698000D01*
X221474000Y-126698000D02*
X222518000Y-126698000D01*
X221568000Y-128318000D02*
X221474000Y-128318000D01*
X222518000Y-128318000D02*
X222424000Y-128318000D01*
X220668000Y-128318000D02*
X220574000Y-128318000D01*
X223418000Y-128318000D02*
X223324000Y-128318000D01*
X223324000Y-126698000D02*
X223418000Y-126698000D01*
X220574000Y-126698000D02*
X220668000Y-126698000D01*
D12*
X242122000Y-118424000D02*
X242122000Y-115764000D01*
X231902000Y-118424000D02*
X242122000Y-118424000D01*
X231902000Y-115764000D02*
X242122000Y-115764000D01*
X231902000Y-118424000D02*
X231902000Y-115764000D01*
X230632000Y-118424000D02*
X229302000Y-118424000D01*
X229302000Y-118424000D02*
X229302000Y-117094000D01*
X218694000Y-133798000D02*
X218694000Y-136458000D01*
X218694000Y-133798000D02*
X216094000Y-133798000D01*
X216094000Y-133798000D02*
X216094000Y-136458000D01*
X218694000Y-136458000D02*
X216094000Y-136458000D01*
X221294000Y-136458000D02*
X219964000Y-136458000D01*
X221294000Y-135128000D02*
X221294000Y-136458000D01*
D15*
X247006000Y-128758000D02*
X246106000Y-129658000D01*
X243606000Y-129658000D02*
X242706000Y-128758000D01*
X243806000Y-129658000D02*
X243606000Y-129658000D01*
X246106000Y-129658000D02*
X245956000Y-129658000D01*
X247006000Y-125358000D02*
X247006000Y-128758000D01*
X245956000Y-125358000D02*
X247006000Y-125358000D01*
X242706000Y-125358000D02*
X243756000Y-125358000D01*
X242706000Y-128758000D02*
X242706000Y-125358000D01*
X245806000Y-129158000D02*
G75*
G03*
X245806000Y-125858000I-950000J1650000D01*
G01*
X243906000Y-129158000D02*
G75*
G02*
X243906000Y-125858000I950000J1650000D01*
G01*
X234578000Y-125750000D02*
X235478000Y-124850000D01*
X237978000Y-124850000D02*
X238878000Y-125750000D01*
X237778000Y-124850000D02*
X237978000Y-124850000D01*
X235478000Y-124850000D02*
X235628000Y-124850000D01*
X234578000Y-129150000D02*
X234578000Y-125750000D01*
X235628000Y-129150000D02*
X234578000Y-129150000D01*
X238878000Y-129150000D02*
X237828000Y-129150000D01*
X238878000Y-125750000D02*
X238878000Y-129150000D01*
X235778000Y-125350000D02*
G75*
G03*
X235778000Y-128650000I950000J-1650000D01*
G01*
X237678000Y-125350000D02*
G75*
G02*
X237678000Y-128650000I-950000J-1650000D01*
G01*
X218714000Y-125086000D02*
X217814000Y-124186000D01*
X217814000Y-121686000D02*
X218714000Y-120786000D01*
X217814000Y-121886000D02*
X217814000Y-121686000D01*
X217814000Y-124186000D02*
X217814000Y-124036000D01*
X222114000Y-125086000D02*
X218714000Y-125086000D01*
X222114000Y-124036000D02*
X222114000Y-125086000D01*
X222114000Y-120786000D02*
X222114000Y-121836000D01*
X218714000Y-120786000D02*
X222114000Y-120786000D01*
X218314000Y-123886000D02*
G75*
G03*
X221614000Y-123886000I1650000J950000D01*
G01*
X218314000Y-121986000D02*
G75*
G02*
X221614000Y-121986000I1650000J-950000D01*
G01*
X219574000Y-130282000D02*
X218674000Y-131182000D01*
X216174000Y-131182000D02*
X215274000Y-130282000D01*
X216374000Y-131182000D02*
X216174000Y-131182000D01*
X218674000Y-131182000D02*
X218524000Y-131182000D01*
X219574000Y-126882000D02*
X219574000Y-130282000D01*
X218524000Y-126882000D02*
X219574000Y-126882000D01*
X215274000Y-126882000D02*
X216324000Y-126882000D01*
X215274000Y-130282000D02*
X215274000Y-126882000D01*
X218374000Y-130682000D02*
G75*
G03*
X218374000Y-127382000I-950000J1650000D01*
G01*
X216474000Y-130682000D02*
G75*
G02*
X216474000Y-127382000I950000J1650000D01*
G01*
D12*
X192532000Y-59944000D02*
X192532000Y-133604000D01*
X212852000Y-56134000D02*
X192532000Y-56134000D01*
X212852000Y-72644000D02*
X212852000Y-59944000D01*
X212852000Y-133604000D02*
X212852000Y-72644000D01*
X192532000Y-134874000D02*
X212852000Y-134874000D01*
X193742000Y-73914000D02*
X193742000Y-94294000D01*
X193742000Y-72644000D02*
X193742000Y-71314000D01*
X196402000Y-73914000D02*
X196402000Y-94294000D01*
X193742000Y-73914000D02*
X196402000Y-73914000D01*
X193742000Y-71314000D02*
X195072000Y-71314000D01*
X193742000Y-94294000D02*
X196402000Y-94294000D01*
X208982000Y-73914000D02*
X208982000Y-94294000D01*
X208982000Y-72644000D02*
X208982000Y-71314000D01*
X211642000Y-73914000D02*
X211642000Y-94294000D01*
X208982000Y-73914000D02*
X211642000Y-73914000D01*
X208982000Y-71314000D02*
X210312000Y-71314000D01*
X208982000Y-94294000D02*
X211642000Y-94294000D01*
X193742000Y-112014000D02*
X193742000Y-132394000D01*
X193742000Y-110744000D02*
X193742000Y-109414000D01*
X196402000Y-112014000D02*
X196402000Y-132394000D01*
X193742000Y-112014000D02*
X196402000Y-112014000D01*
X193742000Y-109414000D02*
X195072000Y-109414000D01*
X193742000Y-132394000D02*
X196402000Y-132394000D01*
X208982000Y-112014000D02*
X208982000Y-132394000D01*
X208982000Y-110744000D02*
X208982000Y-109414000D01*
X211642000Y-112014000D02*
X211642000Y-132394000D01*
X208982000Y-112014000D02*
X211642000Y-112014000D01*
X208982000Y-109414000D02*
X210312000Y-109414000D01*
X208982000Y-132394000D02*
X211642000Y-132394000D01*
X212852000Y-133604000D02*
X212852000Y-134874000D01*
X192532000Y-134874000D02*
X192532000Y-133604000D01*
X212852000Y-56134000D02*
X212852000Y-59944000D01*
X192532000Y-56134000D02*
X192532000Y-59944000D01*
X241436000Y-60864000D02*
X241436000Y-61694000D01*
X241436000Y-63314000D02*
X241436000Y-63844000D01*
X241436000Y-66214000D02*
X241436000Y-67394000D01*
X241436000Y-57654000D02*
X236716000Y-57654000D01*
X232906000Y-67394000D02*
X229846000Y-67394000D01*
X241436000Y-67404000D02*
X236716000Y-67404000D01*
X232906000Y-57654000D02*
X229846000Y-57654000D01*
X241436000Y-57654000D02*
X241436000Y-59144000D01*
X229846000Y-57654000D02*
X229846000Y-67394000D01*
X256168000Y-60864000D02*
X256168000Y-61694000D01*
X256168000Y-63314000D02*
X256168000Y-63844000D01*
X256168000Y-66214000D02*
X256168000Y-67394000D01*
X256168000Y-57654000D02*
X251448000Y-57654000D01*
X247638000Y-67394000D02*
X244578000Y-67394000D01*
X256168000Y-67404000D02*
X251448000Y-67404000D01*
X247638000Y-57654000D02*
X244578000Y-57654000D01*
X256168000Y-57654000D02*
X256168000Y-59144000D01*
X244578000Y-57654000D02*
X244578000Y-67394000D01*
X241436000Y-75088000D02*
X241436000Y-75918000D01*
X241436000Y-77538000D02*
X241436000Y-78068000D01*
X241436000Y-80438000D02*
X241436000Y-81618000D01*
X241436000Y-71878000D02*
X236716000Y-71878000D01*
X232906000Y-81618000D02*
X229846000Y-81618000D01*
X241436000Y-81628000D02*
X236716000Y-81628000D01*
X232906000Y-71878000D02*
X229846000Y-71878000D01*
X241436000Y-71878000D02*
X241436000Y-73368000D01*
X229846000Y-71878000D02*
X229846000Y-81618000D01*
X256168000Y-75088000D02*
X256168000Y-75918000D01*
X256168000Y-77538000D02*
X256168000Y-78068000D01*
X256168000Y-80438000D02*
X256168000Y-81618000D01*
X256168000Y-71878000D02*
X251448000Y-71878000D01*
X247638000Y-81618000D02*
X244578000Y-81618000D01*
X256168000Y-81628000D02*
X251448000Y-81628000D01*
X247638000Y-71878000D02*
X244578000Y-71878000D01*
X256168000Y-71878000D02*
X256168000Y-73368000D01*
X244578000Y-71878000D02*
X244578000Y-81618000D01*
X257870000Y-92262000D02*
X256540000Y-92262000D01*
X257870000Y-90932000D02*
X257870000Y-92262000D01*
X257870000Y-89662000D02*
X255210000Y-89662000D01*
X255210000Y-89662000D02*
X255210000Y-87062000D01*
X257870000Y-89662000D02*
X257870000Y-87062000D01*
X257870000Y-87062000D02*
X255210000Y-87062000D01*
X227696000Y-97482000D02*
X227696000Y-96192000D01*
X228146000Y-97482000D02*
X227696000Y-97482000D01*
X228146000Y-97932000D02*
X228146000Y-97482000D01*
X228146000Y-104702000D02*
X227696000Y-104702000D01*
X228146000Y-104252000D02*
X228146000Y-104702000D01*
X220926000Y-97482000D02*
X221376000Y-97482000D01*
X220926000Y-97932000D02*
X220926000Y-97482000D01*
X220926000Y-104702000D02*
X221376000Y-104702000D01*
X220926000Y-104252000D02*
X220926000Y-104702000D01*
X250130000Y-92262000D02*
X252790000Y-92262000D01*
X250130000Y-89662000D02*
X250130000Y-92262000D01*
X252790000Y-89662000D02*
X252790000Y-92262000D01*
X250130000Y-89662000D02*
X252790000Y-89662000D01*
X250130000Y-88392000D02*
X250130000Y-87062000D01*
X250130000Y-87062000D02*
X251460000Y-87062000D01*
D11*
X252093452Y-95034380D02*
X251760119Y-94558190D01*
X251522023Y-95034380D02*
X251522023Y-94034380D01*
X251902976Y-94034380D01*
X251998214Y-94082000D01*
X252045833Y-94129619D01*
X252093452Y-94224857D01*
X252093452Y-94367714D01*
X252045833Y-94462952D01*
X251998214Y-94510571D01*
X251902976Y-94558190D01*
X251522023Y-94558190D01*
X253045833Y-95034380D02*
X252474404Y-95034380D01*
X252760119Y-95034380D02*
X252760119Y-94034380D01*
X252664880Y-94177238D01*
X252569642Y-94272476D01*
X252474404Y-94320095D01*
X253998214Y-95034380D02*
X253426785Y-95034380D01*
X253712500Y-95034380D02*
X253712500Y-94034380D01*
X253617261Y-94177238D01*
X253522023Y-94272476D01*
X253426785Y-94320095D01*
X254569642Y-94462952D02*
X254474404Y-94415333D01*
X254426785Y-94367714D01*
X254379166Y-94272476D01*
X254379166Y-94224857D01*
X254426785Y-94129619D01*
X254474404Y-94082000D01*
X254569642Y-94034380D01*
X254760119Y-94034380D01*
X254855357Y-94082000D01*
X254902976Y-94129619D01*
X254950595Y-94224857D01*
X254950595Y-94272476D01*
X254902976Y-94367714D01*
X254855357Y-94415333D01*
X254760119Y-94462952D01*
X254569642Y-94462952D01*
X254474404Y-94510571D01*
X254426785Y-94558190D01*
X254379166Y-94653428D01*
X254379166Y-94843904D01*
X254426785Y-94939142D01*
X254474404Y-94986761D01*
X254569642Y-95034380D01*
X254760119Y-95034380D01*
X254855357Y-94986761D01*
X254902976Y-94939142D01*
X254950595Y-94843904D01*
X254950595Y-94653428D01*
X254902976Y-94558190D01*
X254855357Y-94510571D01*
X254760119Y-94462952D01*
X252372952Y-107226380D02*
X252039619Y-106750190D01*
X251801523Y-107226380D02*
X251801523Y-106226380D01*
X252182476Y-106226380D01*
X252277714Y-106274000D01*
X252325333Y-106321619D01*
X252372952Y-106416857D01*
X252372952Y-106559714D01*
X252325333Y-106654952D01*
X252277714Y-106702571D01*
X252182476Y-106750190D01*
X251801523Y-106750190D01*
X253325333Y-107226380D02*
X252753904Y-107226380D01*
X253039619Y-107226380D02*
X253039619Y-106226380D01*
X252944380Y-106369238D01*
X252849142Y-106464476D01*
X252753904Y-106512095D01*
X254277714Y-107226380D02*
X253706285Y-107226380D01*
X253992000Y-107226380D02*
X253992000Y-106226380D01*
X253896761Y-106369238D01*
X253801523Y-106464476D01*
X253706285Y-106512095D01*
X254611047Y-106226380D02*
X255277714Y-106226380D01*
X254849142Y-107226380D01*
X243243380Y-106021047D02*
X242767190Y-106354380D01*
X243243380Y-106592476D02*
X242243380Y-106592476D01*
X242243380Y-106211523D01*
X242291000Y-106116285D01*
X242338619Y-106068666D01*
X242433857Y-106021047D01*
X242576714Y-106021047D01*
X242671952Y-106068666D01*
X242719571Y-106116285D01*
X242767190Y-106211523D01*
X242767190Y-106592476D01*
X243243380Y-105068666D02*
X243243380Y-105640095D01*
X243243380Y-105354380D02*
X242243380Y-105354380D01*
X242386238Y-105449619D01*
X242481476Y-105544857D01*
X242529095Y-105640095D01*
X243243380Y-104116285D02*
X243243380Y-104687714D01*
X243243380Y-104402000D02*
X242243380Y-104402000D01*
X242386238Y-104497238D01*
X242481476Y-104592476D01*
X242529095Y-104687714D01*
X242243380Y-103259142D02*
X242243380Y-103449619D01*
X242291000Y-103544857D01*
X242338619Y-103592476D01*
X242481476Y-103687714D01*
X242671952Y-103735333D01*
X243052904Y-103735333D01*
X243148142Y-103687714D01*
X243195761Y-103640095D01*
X243243380Y-103544857D01*
X243243380Y-103354380D01*
X243195761Y-103259142D01*
X243148142Y-103211523D01*
X243052904Y-103163904D01*
X242814809Y-103163904D01*
X242719571Y-103211523D01*
X242671952Y-103259142D01*
X242624333Y-103354380D01*
X242624333Y-103544857D01*
X242671952Y-103640095D01*
X242719571Y-103687714D01*
X242814809Y-103735333D01*
X246103380Y-100306047D02*
X245627190Y-100639380D01*
X246103380Y-100877476D02*
X245103380Y-100877476D01*
X245103380Y-100496523D01*
X245151000Y-100401285D01*
X245198619Y-100353666D01*
X245293857Y-100306047D01*
X245436714Y-100306047D01*
X245531952Y-100353666D01*
X245579571Y-100401285D01*
X245627190Y-100496523D01*
X245627190Y-100877476D01*
X246103380Y-99353666D02*
X246103380Y-99925095D01*
X246103380Y-99639380D02*
X245103380Y-99639380D01*
X245246238Y-99734619D01*
X245341476Y-99829857D01*
X245389095Y-99925095D01*
X246103380Y-98401285D02*
X246103380Y-98972714D01*
X246103380Y-98687000D02*
X245103380Y-98687000D01*
X245246238Y-98782238D01*
X245341476Y-98877476D01*
X245389095Y-98972714D01*
X245103380Y-97496523D02*
X245103380Y-97972714D01*
X245579571Y-98020333D01*
X245531952Y-97972714D01*
X245484333Y-97877476D01*
X245484333Y-97639380D01*
X245531952Y-97544142D01*
X245579571Y-97496523D01*
X245674809Y-97448904D01*
X245912904Y-97448904D01*
X246008142Y-97496523D01*
X246055761Y-97544142D01*
X246103380Y-97639380D01*
X246103380Y-97877476D01*
X246055761Y-97972714D01*
X246008142Y-98020333D01*
X253530380Y-100179047D02*
X253054190Y-100512380D01*
X253530380Y-100750476D02*
X252530380Y-100750476D01*
X252530380Y-100369523D01*
X252578000Y-100274285D01*
X252625619Y-100226666D01*
X252720857Y-100179047D01*
X252863714Y-100179047D01*
X252958952Y-100226666D01*
X253006571Y-100274285D01*
X253054190Y-100369523D01*
X253054190Y-100750476D01*
X253530380Y-99226666D02*
X253530380Y-99798095D01*
X253530380Y-99512380D02*
X252530380Y-99512380D01*
X252673238Y-99607619D01*
X252768476Y-99702857D01*
X252816095Y-99798095D01*
X253530380Y-98274285D02*
X253530380Y-98845714D01*
X253530380Y-98560000D02*
X252530380Y-98560000D01*
X252673238Y-98655238D01*
X252768476Y-98750476D01*
X252816095Y-98845714D01*
X252863714Y-97417142D02*
X253530380Y-97417142D01*
X252482761Y-97655238D02*
X253197047Y-97893333D01*
X253197047Y-97274285D01*
X256390380Y-106275047D02*
X255914190Y-106608380D01*
X256390380Y-106846476D02*
X255390380Y-106846476D01*
X255390380Y-106465523D01*
X255438000Y-106370285D01*
X255485619Y-106322666D01*
X255580857Y-106275047D01*
X255723714Y-106275047D01*
X255818952Y-106322666D01*
X255866571Y-106370285D01*
X255914190Y-106465523D01*
X255914190Y-106846476D01*
X256390380Y-105322666D02*
X256390380Y-105894095D01*
X256390380Y-105608380D02*
X255390380Y-105608380D01*
X255533238Y-105703619D01*
X255628476Y-105798857D01*
X255676095Y-105894095D01*
X256390380Y-104370285D02*
X256390380Y-104941714D01*
X256390380Y-104656000D02*
X255390380Y-104656000D01*
X255533238Y-104751238D01*
X255628476Y-104846476D01*
X255676095Y-104941714D01*
X255390380Y-104036952D02*
X255390380Y-103417904D01*
X255771333Y-103751238D01*
X255771333Y-103608380D01*
X255818952Y-103513142D01*
X255866571Y-103465523D01*
X255961809Y-103417904D01*
X256199904Y-103417904D01*
X256295142Y-103465523D01*
X256342761Y-103513142D01*
X256390380Y-103608380D01*
X256390380Y-103894095D01*
X256342761Y-103989333D01*
X256295142Y-104036952D01*
X242293380Y-106021047D02*
X241817190Y-106354380D01*
X242293380Y-106592476D02*
X241293380Y-106592476D01*
X241293380Y-106211523D01*
X241341000Y-106116285D01*
X241388619Y-106068666D01*
X241483857Y-106021047D01*
X241626714Y-106021047D01*
X241721952Y-106068666D01*
X241769571Y-106116285D01*
X241817190Y-106211523D01*
X241817190Y-106592476D01*
X242293380Y-105068666D02*
X242293380Y-105640095D01*
X242293380Y-105354380D02*
X241293380Y-105354380D01*
X241436238Y-105449619D01*
X241531476Y-105544857D01*
X241579095Y-105640095D01*
X242293380Y-104116285D02*
X242293380Y-104687714D01*
X242293380Y-104402000D02*
X241293380Y-104402000D01*
X241436238Y-104497238D01*
X241531476Y-104592476D01*
X241579095Y-104687714D01*
X241388619Y-103735333D02*
X241341000Y-103687714D01*
X241293380Y-103592476D01*
X241293380Y-103354380D01*
X241341000Y-103259142D01*
X241388619Y-103211523D01*
X241483857Y-103163904D01*
X241579095Y-103163904D01*
X241721952Y-103211523D01*
X242293380Y-103782952D01*
X242293380Y-103163904D01*
X244198380Y-106021047D02*
X243722190Y-106354380D01*
X244198380Y-106592476D02*
X243198380Y-106592476D01*
X243198380Y-106211523D01*
X243246000Y-106116285D01*
X243293619Y-106068666D01*
X243388857Y-106021047D01*
X243531714Y-106021047D01*
X243626952Y-106068666D01*
X243674571Y-106116285D01*
X243722190Y-106211523D01*
X243722190Y-106592476D01*
X244198380Y-105068666D02*
X244198380Y-105640095D01*
X244198380Y-105354380D02*
X243198380Y-105354380D01*
X243341238Y-105449619D01*
X243436476Y-105544857D01*
X243484095Y-105640095D01*
X244198380Y-104116285D02*
X244198380Y-104687714D01*
X244198380Y-104402000D02*
X243198380Y-104402000D01*
X243341238Y-104497238D01*
X243436476Y-104592476D01*
X243484095Y-104687714D01*
X244198380Y-103163904D02*
X244198380Y-103735333D01*
X244198380Y-103449619D02*
X243198380Y-103449619D01*
X243341238Y-103544857D01*
X243436476Y-103640095D01*
X243484095Y-103735333D01*
X239433380Y-100306047D02*
X238957190Y-100639380D01*
X239433380Y-100877476D02*
X238433380Y-100877476D01*
X238433380Y-100496523D01*
X238481000Y-100401285D01*
X238528619Y-100353666D01*
X238623857Y-100306047D01*
X238766714Y-100306047D01*
X238861952Y-100353666D01*
X238909571Y-100401285D01*
X238957190Y-100496523D01*
X238957190Y-100877476D01*
X239433380Y-99353666D02*
X239433380Y-99925095D01*
X239433380Y-99639380D02*
X238433380Y-99639380D01*
X238576238Y-99734619D01*
X238671476Y-99829857D01*
X238719095Y-99925095D01*
X239433380Y-98401285D02*
X239433380Y-98972714D01*
X239433380Y-98687000D02*
X238433380Y-98687000D01*
X238576238Y-98782238D01*
X238671476Y-98877476D01*
X238719095Y-98972714D01*
X238433380Y-97782238D02*
X238433380Y-97687000D01*
X238481000Y-97591761D01*
X238528619Y-97544142D01*
X238623857Y-97496523D01*
X238814333Y-97448904D01*
X239052428Y-97448904D01*
X239242904Y-97496523D01*
X239338142Y-97544142D01*
X239385761Y-97591761D01*
X239433380Y-97687000D01*
X239433380Y-97782238D01*
X239385761Y-97877476D01*
X239338142Y-97925095D01*
X239242904Y-97972714D01*
X239052428Y-98020333D01*
X238814333Y-98020333D01*
X238623857Y-97972714D01*
X238528619Y-97925095D01*
X238481000Y-97877476D01*
X238433380Y-97782238D01*
X241338380Y-100306047D02*
X240862190Y-100639380D01*
X241338380Y-100877476D02*
X240338380Y-100877476D01*
X240338380Y-100496523D01*
X240386000Y-100401285D01*
X240433619Y-100353666D01*
X240528857Y-100306047D01*
X240671714Y-100306047D01*
X240766952Y-100353666D01*
X240814571Y-100401285D01*
X240862190Y-100496523D01*
X240862190Y-100877476D01*
X241338380Y-99353666D02*
X241338380Y-99925095D01*
X241338380Y-99639380D02*
X240338380Y-99639380D01*
X240481238Y-99734619D01*
X240576476Y-99829857D01*
X240624095Y-99925095D01*
X240338380Y-98734619D02*
X240338380Y-98639380D01*
X240386000Y-98544142D01*
X240433619Y-98496523D01*
X240528857Y-98448904D01*
X240719333Y-98401285D01*
X240957428Y-98401285D01*
X241147904Y-98448904D01*
X241243142Y-98496523D01*
X241290761Y-98544142D01*
X241338380Y-98639380D01*
X241338380Y-98734619D01*
X241290761Y-98829857D01*
X241243142Y-98877476D01*
X241147904Y-98925095D01*
X240957428Y-98972714D01*
X240719333Y-98972714D01*
X240528857Y-98925095D01*
X240433619Y-98877476D01*
X240386000Y-98829857D01*
X240338380Y-98734619D01*
X241338380Y-97925095D02*
X241338380Y-97734619D01*
X241290761Y-97639380D01*
X241243142Y-97591761D01*
X241100285Y-97496523D01*
X240909809Y-97448904D01*
X240528857Y-97448904D01*
X240433619Y-97496523D01*
X240386000Y-97544142D01*
X240338380Y-97639380D01*
X240338380Y-97829857D01*
X240386000Y-97925095D01*
X240433619Y-97972714D01*
X240528857Y-98020333D01*
X240766952Y-98020333D01*
X240862190Y-97972714D01*
X240909809Y-97925095D01*
X240957428Y-97829857D01*
X240957428Y-97639380D01*
X240909809Y-97544142D01*
X240862190Y-97496523D01*
X240766952Y-97448904D01*
X231290952Y-104686380D02*
X230957619Y-104210190D01*
X230719523Y-104686380D02*
X230719523Y-103686380D01*
X231100476Y-103686380D01*
X231195714Y-103734000D01*
X231243333Y-103781619D01*
X231290952Y-103876857D01*
X231290952Y-104019714D01*
X231243333Y-104114952D01*
X231195714Y-104162571D01*
X231100476Y-104210190D01*
X230719523Y-104210190D01*
X232243333Y-104686380D02*
X231671904Y-104686380D01*
X231957619Y-104686380D02*
X231957619Y-103686380D01*
X231862380Y-103829238D01*
X231767142Y-103924476D01*
X231671904Y-103972095D01*
X232862380Y-103686380D02*
X232957619Y-103686380D01*
X233052857Y-103734000D01*
X233100476Y-103781619D01*
X233148095Y-103876857D01*
X233195714Y-104067333D01*
X233195714Y-104305428D01*
X233148095Y-104495904D01*
X233100476Y-104591142D01*
X233052857Y-104638761D01*
X232957619Y-104686380D01*
X232862380Y-104686380D01*
X232767142Y-104638761D01*
X232719523Y-104591142D01*
X232671904Y-104495904D01*
X232624285Y-104305428D01*
X232624285Y-104067333D01*
X232671904Y-103876857D01*
X232719523Y-103781619D01*
X232767142Y-103734000D01*
X232862380Y-103686380D01*
X233767142Y-104114952D02*
X233671904Y-104067333D01*
X233624285Y-104019714D01*
X233576666Y-103924476D01*
X233576666Y-103876857D01*
X233624285Y-103781619D01*
X233671904Y-103734000D01*
X233767142Y-103686380D01*
X233957619Y-103686380D01*
X234052857Y-103734000D01*
X234100476Y-103781619D01*
X234148095Y-103876857D01*
X234148095Y-103924476D01*
X234100476Y-104019714D01*
X234052857Y-104067333D01*
X233957619Y-104114952D01*
X233767142Y-104114952D01*
X233671904Y-104162571D01*
X233624285Y-104210190D01*
X233576666Y-104305428D01*
X233576666Y-104495904D01*
X233624285Y-104591142D01*
X233671904Y-104638761D01*
X233767142Y-104686380D01*
X233957619Y-104686380D01*
X234052857Y-104638761D01*
X234100476Y-104591142D01*
X234148095Y-104495904D01*
X234148095Y-104305428D01*
X234100476Y-104210190D01*
X234052857Y-104162571D01*
X233957619Y-104114952D01*
X231290952Y-96812380D02*
X230957619Y-96336190D01*
X230719523Y-96812380D02*
X230719523Y-95812380D01*
X231100476Y-95812380D01*
X231195714Y-95860000D01*
X231243333Y-95907619D01*
X231290952Y-96002857D01*
X231290952Y-96145714D01*
X231243333Y-96240952D01*
X231195714Y-96288571D01*
X231100476Y-96336190D01*
X230719523Y-96336190D01*
X232243333Y-96812380D02*
X231671904Y-96812380D01*
X231957619Y-96812380D02*
X231957619Y-95812380D01*
X231862380Y-95955238D01*
X231767142Y-96050476D01*
X231671904Y-96098095D01*
X232862380Y-95812380D02*
X232957619Y-95812380D01*
X233052857Y-95860000D01*
X233100476Y-95907619D01*
X233148095Y-96002857D01*
X233195714Y-96193333D01*
X233195714Y-96431428D01*
X233148095Y-96621904D01*
X233100476Y-96717142D01*
X233052857Y-96764761D01*
X232957619Y-96812380D01*
X232862380Y-96812380D01*
X232767142Y-96764761D01*
X232719523Y-96717142D01*
X232671904Y-96621904D01*
X232624285Y-96431428D01*
X232624285Y-96193333D01*
X232671904Y-96002857D01*
X232719523Y-95907619D01*
X232767142Y-95860000D01*
X232862380Y-95812380D01*
X233529047Y-95812380D02*
X234195714Y-95812380D01*
X233767142Y-96812380D01*
X231290952Y-102654380D02*
X230957619Y-102178190D01*
X230719523Y-102654380D02*
X230719523Y-101654380D01*
X231100476Y-101654380D01*
X231195714Y-101702000D01*
X231243333Y-101749619D01*
X231290952Y-101844857D01*
X231290952Y-101987714D01*
X231243333Y-102082952D01*
X231195714Y-102130571D01*
X231100476Y-102178190D01*
X230719523Y-102178190D01*
X232243333Y-102654380D02*
X231671904Y-102654380D01*
X231957619Y-102654380D02*
X231957619Y-101654380D01*
X231862380Y-101797238D01*
X231767142Y-101892476D01*
X231671904Y-101940095D01*
X232862380Y-101654380D02*
X232957619Y-101654380D01*
X233052857Y-101702000D01*
X233100476Y-101749619D01*
X233148095Y-101844857D01*
X233195714Y-102035333D01*
X233195714Y-102273428D01*
X233148095Y-102463904D01*
X233100476Y-102559142D01*
X233052857Y-102606761D01*
X232957619Y-102654380D01*
X232862380Y-102654380D01*
X232767142Y-102606761D01*
X232719523Y-102559142D01*
X232671904Y-102463904D01*
X232624285Y-102273428D01*
X232624285Y-102035333D01*
X232671904Y-101844857D01*
X232719523Y-101749619D01*
X232767142Y-101702000D01*
X232862380Y-101654380D01*
X234052857Y-101654380D02*
X233862380Y-101654380D01*
X233767142Y-101702000D01*
X233719523Y-101749619D01*
X233624285Y-101892476D01*
X233576666Y-102082952D01*
X233576666Y-102463904D01*
X233624285Y-102559142D01*
X233671904Y-102606761D01*
X233767142Y-102654380D01*
X233957619Y-102654380D01*
X234052857Y-102606761D01*
X234100476Y-102559142D01*
X234148095Y-102463904D01*
X234148095Y-102225809D01*
X234100476Y-102130571D01*
X234052857Y-102082952D01*
X233957619Y-102035333D01*
X233767142Y-102035333D01*
X233671904Y-102082952D01*
X233624285Y-102130571D01*
X233576666Y-102225809D01*
X231290952Y-98844380D02*
X230957619Y-98368190D01*
X230719523Y-98844380D02*
X230719523Y-97844380D01*
X231100476Y-97844380D01*
X231195714Y-97892000D01*
X231243333Y-97939619D01*
X231290952Y-98034857D01*
X231290952Y-98177714D01*
X231243333Y-98272952D01*
X231195714Y-98320571D01*
X231100476Y-98368190D01*
X230719523Y-98368190D01*
X232243333Y-98844380D02*
X231671904Y-98844380D01*
X231957619Y-98844380D02*
X231957619Y-97844380D01*
X231862380Y-97987238D01*
X231767142Y-98082476D01*
X231671904Y-98130095D01*
X232862380Y-97844380D02*
X232957619Y-97844380D01*
X233052857Y-97892000D01*
X233100476Y-97939619D01*
X233148095Y-98034857D01*
X233195714Y-98225333D01*
X233195714Y-98463428D01*
X233148095Y-98653904D01*
X233100476Y-98749142D01*
X233052857Y-98796761D01*
X232957619Y-98844380D01*
X232862380Y-98844380D01*
X232767142Y-98796761D01*
X232719523Y-98749142D01*
X232671904Y-98653904D01*
X232624285Y-98463428D01*
X232624285Y-98225333D01*
X232671904Y-98034857D01*
X232719523Y-97939619D01*
X232767142Y-97892000D01*
X232862380Y-97844380D01*
X234100476Y-97844380D02*
X233624285Y-97844380D01*
X233576666Y-98320571D01*
X233624285Y-98272952D01*
X233719523Y-98225333D01*
X233957619Y-98225333D01*
X234052857Y-98272952D01*
X234100476Y-98320571D01*
X234148095Y-98415809D01*
X234148095Y-98653904D01*
X234100476Y-98749142D01*
X234052857Y-98796761D01*
X233957619Y-98844380D01*
X233719523Y-98844380D01*
X233624285Y-98796761D01*
X233576666Y-98749142D01*
X234846952Y-99733380D02*
X234513619Y-99257190D01*
X234275523Y-99733380D02*
X234275523Y-98733380D01*
X234656476Y-98733380D01*
X234751714Y-98781000D01*
X234799333Y-98828619D01*
X234846952Y-98923857D01*
X234846952Y-99066714D01*
X234799333Y-99161952D01*
X234751714Y-99209571D01*
X234656476Y-99257190D01*
X234275523Y-99257190D01*
X235799333Y-99733380D02*
X235227904Y-99733380D01*
X235513619Y-99733380D02*
X235513619Y-98733380D01*
X235418380Y-98876238D01*
X235323142Y-98971476D01*
X235227904Y-99019095D01*
X236418380Y-98733380D02*
X236513619Y-98733380D01*
X236608857Y-98781000D01*
X236656476Y-98828619D01*
X236704095Y-98923857D01*
X236751714Y-99114333D01*
X236751714Y-99352428D01*
X236704095Y-99542904D01*
X236656476Y-99638142D01*
X236608857Y-99685761D01*
X236513619Y-99733380D01*
X236418380Y-99733380D01*
X236323142Y-99685761D01*
X236275523Y-99638142D01*
X236227904Y-99542904D01*
X236180285Y-99352428D01*
X236180285Y-99114333D01*
X236227904Y-98923857D01*
X236275523Y-98828619D01*
X236323142Y-98781000D01*
X236418380Y-98733380D01*
X237608857Y-99066714D02*
X237608857Y-99733380D01*
X237370761Y-98685761D02*
X237132666Y-99400047D01*
X237751714Y-99400047D01*
X234846952Y-101892380D02*
X234513619Y-101416190D01*
X234275523Y-101892380D02*
X234275523Y-100892380D01*
X234656476Y-100892380D01*
X234751714Y-100940000D01*
X234799333Y-100987619D01*
X234846952Y-101082857D01*
X234846952Y-101225714D01*
X234799333Y-101320952D01*
X234751714Y-101368571D01*
X234656476Y-101416190D01*
X234275523Y-101416190D01*
X235799333Y-101892380D02*
X235227904Y-101892380D01*
X235513619Y-101892380D02*
X235513619Y-100892380D01*
X235418380Y-101035238D01*
X235323142Y-101130476D01*
X235227904Y-101178095D01*
X236418380Y-100892380D02*
X236513619Y-100892380D01*
X236608857Y-100940000D01*
X236656476Y-100987619D01*
X236704095Y-101082857D01*
X236751714Y-101273333D01*
X236751714Y-101511428D01*
X236704095Y-101701904D01*
X236656476Y-101797142D01*
X236608857Y-101844761D01*
X236513619Y-101892380D01*
X236418380Y-101892380D01*
X236323142Y-101844761D01*
X236275523Y-101797142D01*
X236227904Y-101701904D01*
X236180285Y-101511428D01*
X236180285Y-101273333D01*
X236227904Y-101082857D01*
X236275523Y-100987619D01*
X236323142Y-100940000D01*
X236418380Y-100892380D01*
X237085047Y-100892380D02*
X237704095Y-100892380D01*
X237370761Y-101273333D01*
X237513619Y-101273333D01*
X237608857Y-101320952D01*
X237656476Y-101368571D01*
X237704095Y-101463809D01*
X237704095Y-101701904D01*
X237656476Y-101797142D01*
X237608857Y-101844761D01*
X237513619Y-101892380D01*
X237227904Y-101892380D01*
X237132666Y-101844761D01*
X237085047Y-101797142D01*
X234846952Y-100688380D02*
X234513619Y-100212190D01*
X234275523Y-100688380D02*
X234275523Y-99688380D01*
X234656476Y-99688380D01*
X234751714Y-99736000D01*
X234799333Y-99783619D01*
X234846952Y-99878857D01*
X234846952Y-100021714D01*
X234799333Y-100116952D01*
X234751714Y-100164571D01*
X234656476Y-100212190D01*
X234275523Y-100212190D01*
X235799333Y-100688380D02*
X235227904Y-100688380D01*
X235513619Y-100688380D02*
X235513619Y-99688380D01*
X235418380Y-99831238D01*
X235323142Y-99926476D01*
X235227904Y-99974095D01*
X236418380Y-99688380D02*
X236513619Y-99688380D01*
X236608857Y-99736000D01*
X236656476Y-99783619D01*
X236704095Y-99878857D01*
X236751714Y-100069333D01*
X236751714Y-100307428D01*
X236704095Y-100497904D01*
X236656476Y-100593142D01*
X236608857Y-100640761D01*
X236513619Y-100688380D01*
X236418380Y-100688380D01*
X236323142Y-100640761D01*
X236275523Y-100593142D01*
X236227904Y-100497904D01*
X236180285Y-100307428D01*
X236180285Y-100069333D01*
X236227904Y-99878857D01*
X236275523Y-99783619D01*
X236323142Y-99736000D01*
X236418380Y-99688380D01*
X237132666Y-99783619D02*
X237180285Y-99736000D01*
X237275523Y-99688380D01*
X237513619Y-99688380D01*
X237608857Y-99736000D01*
X237656476Y-99783619D01*
X237704095Y-99878857D01*
X237704095Y-99974095D01*
X237656476Y-100116952D01*
X237085047Y-100688380D01*
X237704095Y-100688380D01*
X234846952Y-106657380D02*
X234513619Y-106181190D01*
X234275523Y-106657380D02*
X234275523Y-105657380D01*
X234656476Y-105657380D01*
X234751714Y-105705000D01*
X234799333Y-105752619D01*
X234846952Y-105847857D01*
X234846952Y-105990714D01*
X234799333Y-106085952D01*
X234751714Y-106133571D01*
X234656476Y-106181190D01*
X234275523Y-106181190D01*
X235799333Y-106657380D02*
X235227904Y-106657380D01*
X235513619Y-106657380D02*
X235513619Y-105657380D01*
X235418380Y-105800238D01*
X235323142Y-105895476D01*
X235227904Y-105943095D01*
X236418380Y-105657380D02*
X236513619Y-105657380D01*
X236608857Y-105705000D01*
X236656476Y-105752619D01*
X236704095Y-105847857D01*
X236751714Y-106038333D01*
X236751714Y-106276428D01*
X236704095Y-106466904D01*
X236656476Y-106562142D01*
X236608857Y-106609761D01*
X236513619Y-106657380D01*
X236418380Y-106657380D01*
X236323142Y-106609761D01*
X236275523Y-106562142D01*
X236227904Y-106466904D01*
X236180285Y-106276428D01*
X236180285Y-106038333D01*
X236227904Y-105847857D01*
X236275523Y-105752619D01*
X236323142Y-105705000D01*
X236418380Y-105657380D01*
X237704095Y-106657380D02*
X237132666Y-106657380D01*
X237418380Y-106657380D02*
X237418380Y-105657380D01*
X237323142Y-105800238D01*
X237227904Y-105895476D01*
X237132666Y-105943095D01*
X233068952Y-115166380D02*
X232592761Y-115166380D01*
X232592761Y-114166380D01*
X233354666Y-114261619D02*
X233402285Y-114214000D01*
X233497523Y-114166380D01*
X233735619Y-114166380D01*
X233830857Y-114214000D01*
X233878476Y-114261619D01*
X233926095Y-114356857D01*
X233926095Y-114452095D01*
X233878476Y-114594952D01*
X233307047Y-115166380D01*
X233926095Y-115166380D01*
X234545142Y-114166380D02*
X234640380Y-114166380D01*
X234735619Y-114214000D01*
X234783238Y-114261619D01*
X234830857Y-114356857D01*
X234878476Y-114547333D01*
X234878476Y-114785428D01*
X234830857Y-114975904D01*
X234783238Y-115071142D01*
X234735619Y-115118761D01*
X234640380Y-115166380D01*
X234545142Y-115166380D01*
X234449904Y-115118761D01*
X234402285Y-115071142D01*
X234354666Y-114975904D01*
X234307047Y-114785428D01*
X234307047Y-114547333D01*
X234354666Y-114356857D01*
X234402285Y-114261619D01*
X234449904Y-114214000D01*
X234545142Y-114166380D01*
X235211809Y-114166380D02*
X235830857Y-114166380D01*
X235497523Y-114547333D01*
X235640380Y-114547333D01*
X235735619Y-114594952D01*
X235783238Y-114642571D01*
X235830857Y-114737809D01*
X235830857Y-114975904D01*
X235783238Y-115071142D01*
X235735619Y-115118761D01*
X235640380Y-115166380D01*
X235354666Y-115166380D01*
X235259428Y-115118761D01*
X235211809Y-115071142D01*
X242441452Y-103895142D02*
X242393833Y-103942761D01*
X242250976Y-103990380D01*
X242155738Y-103990380D01*
X242012880Y-103942761D01*
X241917642Y-103847523D01*
X241870023Y-103752285D01*
X241822404Y-103561809D01*
X241822404Y-103418952D01*
X241870023Y-103228476D01*
X241917642Y-103133238D01*
X242012880Y-103038000D01*
X242155738Y-102990380D01*
X242250976Y-102990380D01*
X242393833Y-103038000D01*
X242441452Y-103085619D01*
X242822404Y-103085619D02*
X242870023Y-103038000D01*
X242965261Y-102990380D01*
X243203357Y-102990380D01*
X243298595Y-103038000D01*
X243346214Y-103085619D01*
X243393833Y-103180857D01*
X243393833Y-103276095D01*
X243346214Y-103418952D01*
X242774785Y-103990380D01*
X243393833Y-103990380D01*
X244012880Y-102990380D02*
X244108119Y-102990380D01*
X244203357Y-103038000D01*
X244250976Y-103085619D01*
X244298595Y-103180857D01*
X244346214Y-103371333D01*
X244346214Y-103609428D01*
X244298595Y-103799904D01*
X244250976Y-103895142D01*
X244203357Y-103942761D01*
X244108119Y-103990380D01*
X244012880Y-103990380D01*
X243917642Y-103942761D01*
X243870023Y-103895142D01*
X243822404Y-103799904D01*
X243774785Y-103609428D01*
X243774785Y-103371333D01*
X243822404Y-103180857D01*
X243870023Y-103085619D01*
X243917642Y-103038000D01*
X244012880Y-102990380D01*
X244917642Y-103418952D02*
X244822404Y-103371333D01*
X244774785Y-103323714D01*
X244727166Y-103228476D01*
X244727166Y-103180857D01*
X244774785Y-103085619D01*
X244822404Y-103038000D01*
X244917642Y-102990380D01*
X245108119Y-102990380D01*
X245203357Y-103038000D01*
X245250976Y-103085619D01*
X245298595Y-103180857D01*
X245298595Y-103228476D01*
X245250976Y-103323714D01*
X245203357Y-103371333D01*
X245108119Y-103418952D01*
X244917642Y-103418952D01*
X244822404Y-103466571D01*
X244774785Y-103514190D01*
X244727166Y-103609428D01*
X244727166Y-103799904D01*
X244774785Y-103895142D01*
X244822404Y-103942761D01*
X244917642Y-103990380D01*
X245108119Y-103990380D01*
X245203357Y-103942761D01*
X245250976Y-103895142D01*
X245298595Y-103799904D01*
X245298595Y-103609428D01*
X245250976Y-103514190D01*
X245203357Y-103466571D01*
X245108119Y-103418952D01*
X216050952Y-104911142D02*
X216003333Y-104958761D01*
X215860476Y-105006380D01*
X215765238Y-105006380D01*
X215622380Y-104958761D01*
X215527142Y-104863523D01*
X215479523Y-104768285D01*
X215431904Y-104577809D01*
X215431904Y-104434952D01*
X215479523Y-104244476D01*
X215527142Y-104149238D01*
X215622380Y-104054000D01*
X215765238Y-104006380D01*
X215860476Y-104006380D01*
X216003333Y-104054000D01*
X216050952Y-104101619D01*
X216431904Y-104101619D02*
X216479523Y-104054000D01*
X216574761Y-104006380D01*
X216812857Y-104006380D01*
X216908095Y-104054000D01*
X216955714Y-104101619D01*
X217003333Y-104196857D01*
X217003333Y-104292095D01*
X216955714Y-104434952D01*
X216384285Y-105006380D01*
X217003333Y-105006380D01*
X217622380Y-104006380D02*
X217717619Y-104006380D01*
X217812857Y-104054000D01*
X217860476Y-104101619D01*
X217908095Y-104196857D01*
X217955714Y-104387333D01*
X217955714Y-104625428D01*
X217908095Y-104815904D01*
X217860476Y-104911142D01*
X217812857Y-104958761D01*
X217717619Y-105006380D01*
X217622380Y-105006380D01*
X217527142Y-104958761D01*
X217479523Y-104911142D01*
X217431904Y-104815904D01*
X217384285Y-104625428D01*
X217384285Y-104387333D01*
X217431904Y-104196857D01*
X217479523Y-104101619D01*
X217527142Y-104054000D01*
X217622380Y-104006380D01*
X218289047Y-104006380D02*
X218955714Y-104006380D01*
X218527142Y-105006380D01*
X216050952Y-101609142D02*
X216003333Y-101656761D01*
X215860476Y-101704380D01*
X215765238Y-101704380D01*
X215622380Y-101656761D01*
X215527142Y-101561523D01*
X215479523Y-101466285D01*
X215431904Y-101275809D01*
X215431904Y-101132952D01*
X215479523Y-100942476D01*
X215527142Y-100847238D01*
X215622380Y-100752000D01*
X215765238Y-100704380D01*
X215860476Y-100704380D01*
X216003333Y-100752000D01*
X216050952Y-100799619D01*
X216431904Y-100799619D02*
X216479523Y-100752000D01*
X216574761Y-100704380D01*
X216812857Y-100704380D01*
X216908095Y-100752000D01*
X216955714Y-100799619D01*
X217003333Y-100894857D01*
X217003333Y-100990095D01*
X216955714Y-101132952D01*
X216384285Y-101704380D01*
X217003333Y-101704380D01*
X217622380Y-100704380D02*
X217717619Y-100704380D01*
X217812857Y-100752000D01*
X217860476Y-100799619D01*
X217908095Y-100894857D01*
X217955714Y-101085333D01*
X217955714Y-101323428D01*
X217908095Y-101513904D01*
X217860476Y-101609142D01*
X217812857Y-101656761D01*
X217717619Y-101704380D01*
X217622380Y-101704380D01*
X217527142Y-101656761D01*
X217479523Y-101609142D01*
X217431904Y-101513904D01*
X217384285Y-101323428D01*
X217384285Y-101085333D01*
X217431904Y-100894857D01*
X217479523Y-100799619D01*
X217527142Y-100752000D01*
X217622380Y-100704380D01*
X218860476Y-100704380D02*
X218384285Y-100704380D01*
X218336666Y-101180571D01*
X218384285Y-101132952D01*
X218479523Y-101085333D01*
X218717619Y-101085333D01*
X218812857Y-101132952D01*
X218860476Y-101180571D01*
X218908095Y-101275809D01*
X218908095Y-101513904D01*
X218860476Y-101609142D01*
X218812857Y-101656761D01*
X218717619Y-101704380D01*
X218479523Y-101704380D01*
X218384285Y-101656761D01*
X218336666Y-101609142D01*
X254404952Y-103895142D02*
X254357333Y-103942761D01*
X254214476Y-103990380D01*
X254119238Y-103990380D01*
X253976380Y-103942761D01*
X253881142Y-103847523D01*
X253833523Y-103752285D01*
X253785904Y-103561809D01*
X253785904Y-103418952D01*
X253833523Y-103228476D01*
X253881142Y-103133238D01*
X253976380Y-103038000D01*
X254119238Y-102990380D01*
X254214476Y-102990380D01*
X254357333Y-103038000D01*
X254404952Y-103085619D01*
X254785904Y-103085619D02*
X254833523Y-103038000D01*
X254928761Y-102990380D01*
X255166857Y-102990380D01*
X255262095Y-103038000D01*
X255309714Y-103085619D01*
X255357333Y-103180857D01*
X255357333Y-103276095D01*
X255309714Y-103418952D01*
X254738285Y-103990380D01*
X255357333Y-103990380D01*
X255976380Y-102990380D02*
X256071619Y-102990380D01*
X256166857Y-103038000D01*
X256214476Y-103085619D01*
X256262095Y-103180857D01*
X256309714Y-103371333D01*
X256309714Y-103609428D01*
X256262095Y-103799904D01*
X256214476Y-103895142D01*
X256166857Y-103942761D01*
X256071619Y-103990380D01*
X255976380Y-103990380D01*
X255881142Y-103942761D01*
X255833523Y-103895142D01*
X255785904Y-103799904D01*
X255738285Y-103609428D01*
X255738285Y-103371333D01*
X255785904Y-103180857D01*
X255833523Y-103085619D01*
X255881142Y-103038000D01*
X255976380Y-102990380D01*
X257166857Y-103323714D02*
X257166857Y-103990380D01*
X256928761Y-102942761D02*
X256690666Y-103657047D01*
X257309714Y-103657047D01*
X228543142Y-96851547D02*
X228590761Y-96899166D01*
X228638380Y-97042023D01*
X228638380Y-97137261D01*
X228590761Y-97280119D01*
X228495523Y-97375357D01*
X228400285Y-97422976D01*
X228209809Y-97470595D01*
X228066952Y-97470595D01*
X227876476Y-97422976D01*
X227781238Y-97375357D01*
X227686000Y-97280119D01*
X227638380Y-97137261D01*
X227638380Y-97042023D01*
X227686000Y-96899166D01*
X227733619Y-96851547D01*
X227733619Y-96470595D02*
X227686000Y-96422976D01*
X227638380Y-96327738D01*
X227638380Y-96089642D01*
X227686000Y-95994404D01*
X227733619Y-95946785D01*
X227828857Y-95899166D01*
X227924095Y-95899166D01*
X228066952Y-95946785D01*
X228638380Y-96518214D01*
X228638380Y-95899166D01*
X227638380Y-95280119D02*
X227638380Y-95184880D01*
X227686000Y-95089642D01*
X227733619Y-95042023D01*
X227828857Y-94994404D01*
X228019333Y-94946785D01*
X228257428Y-94946785D01*
X228447904Y-94994404D01*
X228543142Y-95042023D01*
X228590761Y-95089642D01*
X228638380Y-95184880D01*
X228638380Y-95280119D01*
X228590761Y-95375357D01*
X228543142Y-95422976D01*
X228447904Y-95470595D01*
X228257428Y-95518214D01*
X228019333Y-95518214D01*
X227828857Y-95470595D01*
X227733619Y-95422976D01*
X227686000Y-95375357D01*
X227638380Y-95280119D01*
X227638380Y-94613452D02*
X227638380Y-93994404D01*
X228019333Y-94327738D01*
X228019333Y-94184880D01*
X228066952Y-94089642D01*
X228114571Y-94042023D01*
X228209809Y-93994404D01*
X228447904Y-93994404D01*
X228543142Y-94042023D01*
X228590761Y-94089642D01*
X228638380Y-94184880D01*
X228638380Y-94470595D01*
X228590761Y-94565833D01*
X228543142Y-94613452D01*
X240561952Y-106369142D02*
X240514333Y-106416761D01*
X240371476Y-106464380D01*
X240276238Y-106464380D01*
X240133380Y-106416761D01*
X240038142Y-106321523D01*
X239990523Y-106226285D01*
X239942904Y-106035809D01*
X239942904Y-105892952D01*
X239990523Y-105702476D01*
X240038142Y-105607238D01*
X240133380Y-105512000D01*
X240276238Y-105464380D01*
X240371476Y-105464380D01*
X240514333Y-105512000D01*
X240561952Y-105559619D01*
X241514333Y-106464380D02*
X240942904Y-106464380D01*
X241228619Y-106464380D02*
X241228619Y-105464380D01*
X241133380Y-105607238D01*
X241038142Y-105702476D01*
X240942904Y-105750095D01*
X242133380Y-105464380D02*
X242228619Y-105464380D01*
X242323857Y-105512000D01*
X242371476Y-105559619D01*
X242419095Y-105654857D01*
X242466714Y-105845333D01*
X242466714Y-106083428D01*
X242419095Y-106273904D01*
X242371476Y-106369142D01*
X242323857Y-106416761D01*
X242228619Y-106464380D01*
X242133380Y-106464380D01*
X242038142Y-106416761D01*
X241990523Y-106369142D01*
X241942904Y-106273904D01*
X241895285Y-106083428D01*
X241895285Y-105845333D01*
X241942904Y-105654857D01*
X241990523Y-105559619D01*
X242038142Y-105512000D01*
X242133380Y-105464380D01*
X243371476Y-105464380D02*
X242895285Y-105464380D01*
X242847666Y-105940571D01*
X242895285Y-105892952D01*
X242990523Y-105845333D01*
X243228619Y-105845333D01*
X243323857Y-105892952D01*
X243371476Y-105940571D01*
X243419095Y-106035809D01*
X243419095Y-106273904D01*
X243371476Y-106369142D01*
X243323857Y-106416761D01*
X243228619Y-106464380D01*
X242990523Y-106464380D01*
X242895285Y-106416761D01*
X242847666Y-106369142D01*
X240409452Y-95574142D02*
X240361833Y-95621761D01*
X240218976Y-95669380D01*
X240123738Y-95669380D01*
X239980880Y-95621761D01*
X239885642Y-95526523D01*
X239838023Y-95431285D01*
X239790404Y-95240809D01*
X239790404Y-95097952D01*
X239838023Y-94907476D01*
X239885642Y-94812238D01*
X239980880Y-94717000D01*
X240123738Y-94669380D01*
X240218976Y-94669380D01*
X240361833Y-94717000D01*
X240409452Y-94764619D01*
X241361833Y-95669380D02*
X240790404Y-95669380D01*
X241076119Y-95669380D02*
X241076119Y-94669380D01*
X240980880Y-94812238D01*
X240885642Y-94907476D01*
X240790404Y-94955095D01*
X241980880Y-94669380D02*
X242076119Y-94669380D01*
X242171357Y-94717000D01*
X242218976Y-94764619D01*
X242266595Y-94859857D01*
X242314214Y-95050333D01*
X242314214Y-95288428D01*
X242266595Y-95478904D01*
X242218976Y-95574142D01*
X242171357Y-95621761D01*
X242076119Y-95669380D01*
X241980880Y-95669380D01*
X241885642Y-95621761D01*
X241838023Y-95574142D01*
X241790404Y-95478904D01*
X241742785Y-95288428D01*
X241742785Y-95050333D01*
X241790404Y-94859857D01*
X241838023Y-94764619D01*
X241885642Y-94717000D01*
X241980880Y-94669380D01*
X243171357Y-95002714D02*
X243171357Y-95669380D01*
X242933261Y-94621761D02*
X242695166Y-95336047D01*
X243314214Y-95336047D01*
X231316452Y-100527142D02*
X231268833Y-100574761D01*
X231125976Y-100622380D01*
X231030738Y-100622380D01*
X230887880Y-100574761D01*
X230792642Y-100479523D01*
X230745023Y-100384285D01*
X230697404Y-100193809D01*
X230697404Y-100050952D01*
X230745023Y-99860476D01*
X230792642Y-99765238D01*
X230887880Y-99670000D01*
X231030738Y-99622380D01*
X231125976Y-99622380D01*
X231268833Y-99670000D01*
X231316452Y-99717619D01*
X232268833Y-100622380D02*
X231697404Y-100622380D01*
X231983119Y-100622380D02*
X231983119Y-99622380D01*
X231887880Y-99765238D01*
X231792642Y-99860476D01*
X231697404Y-99908095D01*
X232887880Y-99622380D02*
X232983119Y-99622380D01*
X233078357Y-99670000D01*
X233125976Y-99717619D01*
X233173595Y-99812857D01*
X233221214Y-100003333D01*
X233221214Y-100241428D01*
X233173595Y-100431904D01*
X233125976Y-100527142D01*
X233078357Y-100574761D01*
X232983119Y-100622380D01*
X232887880Y-100622380D01*
X232792642Y-100574761D01*
X232745023Y-100527142D01*
X232697404Y-100431904D01*
X232649785Y-100241428D01*
X232649785Y-100003333D01*
X232697404Y-99812857D01*
X232745023Y-99717619D01*
X232792642Y-99670000D01*
X232887880Y-99622380D01*
X233554547Y-99622380D02*
X234173595Y-99622380D01*
X233840261Y-100003333D01*
X233983119Y-100003333D01*
X234078357Y-100050952D01*
X234125976Y-100098571D01*
X234173595Y-100193809D01*
X234173595Y-100431904D01*
X234125976Y-100527142D01*
X234078357Y-100574761D01*
X233983119Y-100622380D01*
X233697404Y-100622380D01*
X233602166Y-100574761D01*
X233554547Y-100527142D01*
X234846952Y-95828142D02*
X234799333Y-95875761D01*
X234656476Y-95923380D01*
X234561238Y-95923380D01*
X234418380Y-95875761D01*
X234323142Y-95780523D01*
X234275523Y-95685285D01*
X234227904Y-95494809D01*
X234227904Y-95351952D01*
X234275523Y-95161476D01*
X234323142Y-95066238D01*
X234418380Y-94971000D01*
X234561238Y-94923380D01*
X234656476Y-94923380D01*
X234799333Y-94971000D01*
X234846952Y-95018619D01*
X235799333Y-95923380D02*
X235227904Y-95923380D01*
X235513619Y-95923380D02*
X235513619Y-94923380D01*
X235418380Y-95066238D01*
X235323142Y-95161476D01*
X235227904Y-95209095D01*
X236418380Y-94923380D02*
X236513619Y-94923380D01*
X236608857Y-94971000D01*
X236656476Y-95018619D01*
X236704095Y-95113857D01*
X236751714Y-95304333D01*
X236751714Y-95542428D01*
X236704095Y-95732904D01*
X236656476Y-95828142D01*
X236608857Y-95875761D01*
X236513619Y-95923380D01*
X236418380Y-95923380D01*
X236323142Y-95875761D01*
X236275523Y-95828142D01*
X236227904Y-95732904D01*
X236180285Y-95542428D01*
X236180285Y-95304333D01*
X236227904Y-95113857D01*
X236275523Y-95018619D01*
X236323142Y-94971000D01*
X236418380Y-94923380D01*
X237132666Y-95018619D02*
X237180285Y-94971000D01*
X237275523Y-94923380D01*
X237513619Y-94923380D01*
X237608857Y-94971000D01*
X237656476Y-95018619D01*
X237704095Y-95113857D01*
X237704095Y-95209095D01*
X237656476Y-95351952D01*
X237085047Y-95923380D01*
X237704095Y-95923380D01*
X234846952Y-105607142D02*
X234799333Y-105654761D01*
X234656476Y-105702380D01*
X234561238Y-105702380D01*
X234418380Y-105654761D01*
X234323142Y-105559523D01*
X234275523Y-105464285D01*
X234227904Y-105273809D01*
X234227904Y-105130952D01*
X234275523Y-104940476D01*
X234323142Y-104845238D01*
X234418380Y-104750000D01*
X234561238Y-104702380D01*
X234656476Y-104702380D01*
X234799333Y-104750000D01*
X234846952Y-104797619D01*
X235799333Y-105702380D02*
X235227904Y-105702380D01*
X235513619Y-105702380D02*
X235513619Y-104702380D01*
X235418380Y-104845238D01*
X235323142Y-104940476D01*
X235227904Y-104988095D01*
X236418380Y-104702380D02*
X236513619Y-104702380D01*
X236608857Y-104750000D01*
X236656476Y-104797619D01*
X236704095Y-104892857D01*
X236751714Y-105083333D01*
X236751714Y-105321428D01*
X236704095Y-105511904D01*
X236656476Y-105607142D01*
X236608857Y-105654761D01*
X236513619Y-105702380D01*
X236418380Y-105702380D01*
X236323142Y-105654761D01*
X236275523Y-105607142D01*
X236227904Y-105511904D01*
X236180285Y-105321428D01*
X236180285Y-105083333D01*
X236227904Y-104892857D01*
X236275523Y-104797619D01*
X236323142Y-104750000D01*
X236418380Y-104702380D01*
X237704095Y-105702380D02*
X237132666Y-105702380D01*
X237418380Y-105702380D02*
X237418380Y-104702380D01*
X237323142Y-104845238D01*
X237227904Y-104940476D01*
X237132666Y-104988095D01*
D16*
X230257047Y-126707174D02*
X230257047Y-127281698D01*
X229050547Y-127281698D01*
X229165452Y-126362460D02*
X229108000Y-126305007D01*
X229050547Y-126190102D01*
X229050547Y-125902840D01*
X229108000Y-125787936D01*
X229165452Y-125730483D01*
X229280357Y-125673031D01*
X229395261Y-125673031D01*
X229567619Y-125730483D01*
X230257047Y-126419912D01*
X230257047Y-125673031D01*
X229050547Y-124926150D02*
X229050547Y-124811245D01*
X229108000Y-124696340D01*
X229165452Y-124638888D01*
X229280357Y-124581436D01*
X229510166Y-124523983D01*
X229797428Y-124523983D01*
X230027238Y-124581436D01*
X230142142Y-124638888D01*
X230199595Y-124696340D01*
X230257047Y-124811245D01*
X230257047Y-124926150D01*
X230199595Y-125041055D01*
X230142142Y-125098507D01*
X230027238Y-125155960D01*
X229797428Y-125213412D01*
X229510166Y-125213412D01*
X229280357Y-125155960D01*
X229165452Y-125098507D01*
X229108000Y-125041055D01*
X229050547Y-124926150D01*
X229165452Y-124064364D02*
X229108000Y-124006912D01*
X229050547Y-123892007D01*
X229050547Y-123604745D01*
X229108000Y-123489840D01*
X229165452Y-123432388D01*
X229280357Y-123374936D01*
X229395261Y-123374936D01*
X229567619Y-123432388D01*
X230257047Y-124121817D01*
X230257047Y-123374936D01*
X223955912Y-120021047D02*
X223381388Y-120021047D01*
X223381388Y-118814547D01*
X224300626Y-118929452D02*
X224358079Y-118872000D01*
X224472983Y-118814547D01*
X224760245Y-118814547D01*
X224875150Y-118872000D01*
X224932602Y-118929452D01*
X224990055Y-119044357D01*
X224990055Y-119159261D01*
X224932602Y-119331619D01*
X224243174Y-120021047D01*
X224990055Y-120021047D01*
X225736936Y-118814547D02*
X225851840Y-118814547D01*
X225966745Y-118872000D01*
X226024198Y-118929452D01*
X226081650Y-119044357D01*
X226139102Y-119274166D01*
X226139102Y-119561428D01*
X226081650Y-119791238D01*
X226024198Y-119906142D01*
X225966745Y-119963595D01*
X225851840Y-120021047D01*
X225736936Y-120021047D01*
X225622031Y-119963595D01*
X225564579Y-119906142D01*
X225507126Y-119791238D01*
X225449674Y-119561428D01*
X225449674Y-119274166D01*
X225507126Y-119044357D01*
X225564579Y-118929452D01*
X225622031Y-118872000D01*
X225736936Y-118814547D01*
X227288150Y-120021047D02*
X226598721Y-120021047D01*
X226943436Y-120021047D02*
X226943436Y-118814547D01*
X226828531Y-118986904D01*
X226713626Y-119101809D01*
X226598721Y-119159261D01*
D11*
X246189714Y-95972380D02*
X246189714Y-96781904D01*
X246237333Y-96877142D01*
X246284952Y-96924761D01*
X246380190Y-96972380D01*
X246570666Y-96972380D01*
X246665904Y-96924761D01*
X246713523Y-96877142D01*
X246761142Y-96781904D01*
X246761142Y-95972380D01*
X247761142Y-96972380D02*
X247189714Y-96972380D01*
X247475428Y-96972380D02*
X247475428Y-95972380D01*
X247380190Y-96115238D01*
X247284952Y-96210476D01*
X247189714Y-96258095D01*
X248380190Y-95972380D02*
X248475428Y-95972380D01*
X248570666Y-96020000D01*
X248618285Y-96067619D01*
X248665904Y-96162857D01*
X248713523Y-96353333D01*
X248713523Y-96591428D01*
X248665904Y-96781904D01*
X248618285Y-96877142D01*
X248570666Y-96924761D01*
X248475428Y-96972380D01*
X248380190Y-96972380D01*
X248284952Y-96924761D01*
X248237333Y-96877142D01*
X248189714Y-96781904D01*
X248142095Y-96591428D01*
X248142095Y-96353333D01*
X248189714Y-96162857D01*
X248237333Y-96067619D01*
X248284952Y-96020000D01*
X248380190Y-95972380D01*
X249046857Y-95972380D02*
X249665904Y-95972380D01*
X249332571Y-96353333D01*
X249475428Y-96353333D01*
X249570666Y-96400952D01*
X249618285Y-96448571D01*
X249665904Y-96543809D01*
X249665904Y-96781904D01*
X249618285Y-96877142D01*
X249570666Y-96924761D01*
X249475428Y-96972380D01*
X249189714Y-96972380D01*
X249094476Y-96924761D01*
X249046857Y-96877142D01*
D16*
X251813301Y-126498047D02*
X251813301Y-127474738D01*
X251870754Y-127589642D01*
X251928206Y-127647095D01*
X252043111Y-127704547D01*
X252272920Y-127704547D01*
X252387825Y-127647095D01*
X252445278Y-127589642D01*
X252502730Y-127474738D01*
X252502730Y-126498047D01*
X253019801Y-126612952D02*
X253077254Y-126555500D01*
X253192159Y-126498047D01*
X253479420Y-126498047D01*
X253594325Y-126555500D01*
X253651778Y-126612952D01*
X253709230Y-126727857D01*
X253709230Y-126842761D01*
X253651778Y-127015119D01*
X252962349Y-127704547D01*
X253709230Y-127704547D01*
X254456111Y-126498047D02*
X254571016Y-126498047D01*
X254685920Y-126555500D01*
X254743373Y-126612952D01*
X254800825Y-126727857D01*
X254858278Y-126957666D01*
X254858278Y-127244928D01*
X254800825Y-127474738D01*
X254743373Y-127589642D01*
X254685920Y-127647095D01*
X254571016Y-127704547D01*
X254456111Y-127704547D01*
X254341206Y-127647095D01*
X254283754Y-127589642D01*
X254226301Y-127474738D01*
X254168849Y-127244928D01*
X254168849Y-126957666D01*
X254226301Y-126727857D01*
X254283754Y-126612952D01*
X254341206Y-126555500D01*
X254456111Y-126498047D01*
X255892420Y-126900214D02*
X255892420Y-127704547D01*
X255605159Y-126440595D02*
X255317897Y-127302380D01*
X256064778Y-127302380D01*
X239367301Y-131070047D02*
X239367301Y-132046738D01*
X239424754Y-132161642D01*
X239482206Y-132219095D01*
X239597111Y-132276547D01*
X239826920Y-132276547D01*
X239941825Y-132219095D01*
X239999278Y-132161642D01*
X240056730Y-132046738D01*
X240056730Y-131070047D01*
X240573801Y-131184952D02*
X240631254Y-131127500D01*
X240746159Y-131070047D01*
X241033420Y-131070047D01*
X241148325Y-131127500D01*
X241205778Y-131184952D01*
X241263230Y-131299857D01*
X241263230Y-131414761D01*
X241205778Y-131587119D01*
X240516349Y-132276547D01*
X241263230Y-132276547D01*
X242010111Y-131070047D02*
X242125016Y-131070047D01*
X242239920Y-131127500D01*
X242297373Y-131184952D01*
X242354825Y-131299857D01*
X242412278Y-131529666D01*
X242412278Y-131816928D01*
X242354825Y-132046738D01*
X242297373Y-132161642D01*
X242239920Y-132219095D01*
X242125016Y-132276547D01*
X242010111Y-132276547D01*
X241895206Y-132219095D01*
X241837754Y-132161642D01*
X241780301Y-132046738D01*
X241722849Y-131816928D01*
X241722849Y-131529666D01*
X241780301Y-131299857D01*
X241837754Y-131184952D01*
X241895206Y-131127500D01*
X242010111Y-131070047D01*
X242814444Y-131070047D02*
X243561325Y-131070047D01*
X243159159Y-131529666D01*
X243331516Y-131529666D01*
X243446420Y-131587119D01*
X243503873Y-131644571D01*
X243561325Y-131759476D01*
X243561325Y-132046738D01*
X243503873Y-132161642D01*
X243446420Y-132219095D01*
X243331516Y-132276547D01*
X242986801Y-132276547D01*
X242871897Y-132219095D01*
X242814444Y-132161642D01*
X229969301Y-122180047D02*
X229969301Y-123156738D01*
X230026754Y-123271642D01*
X230084206Y-123329095D01*
X230199111Y-123386547D01*
X230428920Y-123386547D01*
X230543825Y-123329095D01*
X230601278Y-123271642D01*
X230658730Y-123156738D01*
X230658730Y-122180047D01*
X231175801Y-122294952D02*
X231233254Y-122237500D01*
X231348159Y-122180047D01*
X231635420Y-122180047D01*
X231750325Y-122237500D01*
X231807778Y-122294952D01*
X231865230Y-122409857D01*
X231865230Y-122524761D01*
X231807778Y-122697119D01*
X231118349Y-123386547D01*
X231865230Y-123386547D01*
X232612111Y-122180047D02*
X232727016Y-122180047D01*
X232841920Y-122237500D01*
X232899373Y-122294952D01*
X232956825Y-122409857D01*
X233014278Y-122639666D01*
X233014278Y-122926928D01*
X232956825Y-123156738D01*
X232899373Y-123271642D01*
X232841920Y-123329095D01*
X232727016Y-123386547D01*
X232612111Y-123386547D01*
X232497206Y-123329095D01*
X232439754Y-123271642D01*
X232382301Y-123156738D01*
X232324849Y-122926928D01*
X232324849Y-122639666D01*
X232382301Y-122409857D01*
X232439754Y-122294952D01*
X232497206Y-122237500D01*
X232612111Y-122180047D01*
X233473897Y-122294952D02*
X233531349Y-122237500D01*
X233646254Y-122180047D01*
X233933516Y-122180047D01*
X234048420Y-122237500D01*
X234105873Y-122294952D01*
X234163325Y-122409857D01*
X234163325Y-122524761D01*
X234105873Y-122697119D01*
X233416444Y-123386547D01*
X234163325Y-123386547D01*
X220063301Y-130562047D02*
X220063301Y-131538738D01*
X220120754Y-131653642D01*
X220178206Y-131711095D01*
X220293111Y-131768547D01*
X220522920Y-131768547D01*
X220637825Y-131711095D01*
X220695278Y-131653642D01*
X220752730Y-131538738D01*
X220752730Y-130562047D01*
X221269801Y-130676952D02*
X221327254Y-130619500D01*
X221442159Y-130562047D01*
X221729420Y-130562047D01*
X221844325Y-130619500D01*
X221901778Y-130676952D01*
X221959230Y-130791857D01*
X221959230Y-130906761D01*
X221901778Y-131079119D01*
X221212349Y-131768547D01*
X221959230Y-131768547D01*
X222706111Y-130562047D02*
X222821016Y-130562047D01*
X222935920Y-130619500D01*
X222993373Y-130676952D01*
X223050825Y-130791857D01*
X223108278Y-131021666D01*
X223108278Y-131308928D01*
X223050825Y-131538738D01*
X222993373Y-131653642D01*
X222935920Y-131711095D01*
X222821016Y-131768547D01*
X222706111Y-131768547D01*
X222591206Y-131711095D01*
X222533754Y-131653642D01*
X222476301Y-131538738D01*
X222418849Y-131308928D01*
X222418849Y-131021666D01*
X222476301Y-130791857D01*
X222533754Y-130676952D01*
X222591206Y-130619500D01*
X222706111Y-130562047D01*
X224257325Y-131768547D02*
X223567897Y-131768547D01*
X223912611Y-131768547D02*
X223912611Y-130562047D01*
X223797706Y-130734404D01*
X223682801Y-130849309D01*
X223567897Y-130906761D01*
X252670007Y-121354547D02*
X252267840Y-120780023D01*
X251980579Y-121354547D02*
X251980579Y-120148047D01*
X252440198Y-120148047D01*
X252555102Y-120205500D01*
X252612555Y-120262952D01*
X252670007Y-120377857D01*
X252670007Y-120550214D01*
X252612555Y-120665119D01*
X252555102Y-120722571D01*
X252440198Y-120780023D01*
X251980579Y-120780023D01*
X253129626Y-120262952D02*
X253187079Y-120205500D01*
X253301983Y-120148047D01*
X253589245Y-120148047D01*
X253704150Y-120205500D01*
X253761602Y-120262952D01*
X253819055Y-120377857D01*
X253819055Y-120492761D01*
X253761602Y-120665119D01*
X253072174Y-121354547D01*
X253819055Y-121354547D01*
X254565936Y-120148047D02*
X254680840Y-120148047D01*
X254795745Y-120205500D01*
X254853198Y-120262952D01*
X254910650Y-120377857D01*
X254968102Y-120607666D01*
X254968102Y-120894928D01*
X254910650Y-121124738D01*
X254853198Y-121239642D01*
X254795745Y-121297095D01*
X254680840Y-121354547D01*
X254565936Y-121354547D01*
X254451031Y-121297095D01*
X254393579Y-121239642D01*
X254336126Y-121124738D01*
X254278674Y-120894928D01*
X254278674Y-120607666D01*
X254336126Y-120377857D01*
X254393579Y-120262952D01*
X254451031Y-120205500D01*
X254565936Y-120148047D01*
X256002245Y-120148047D02*
X255772436Y-120148047D01*
X255657531Y-120205500D01*
X255600079Y-120262952D01*
X255485174Y-120435309D01*
X255427721Y-120665119D01*
X255427721Y-121124738D01*
X255485174Y-121239642D01*
X255542626Y-121297095D01*
X255657531Y-121354547D01*
X255887340Y-121354547D01*
X256002245Y-121297095D01*
X256059698Y-121239642D01*
X256117150Y-121124738D01*
X256117150Y-120837476D01*
X256059698Y-120722571D01*
X256002245Y-120665119D01*
X255887340Y-120607666D01*
X255657531Y-120607666D01*
X255542626Y-120665119D01*
X255485174Y-120722571D01*
X255427721Y-120837476D01*
X252883730Y-123640547D02*
X252481563Y-123066023D01*
X252194301Y-123640547D02*
X252194301Y-122434047D01*
X252653920Y-122434047D01*
X252768825Y-122491500D01*
X252826278Y-122548952D01*
X252883730Y-122663857D01*
X252883730Y-122836214D01*
X252826278Y-122951119D01*
X252768825Y-123008571D01*
X252653920Y-123066023D01*
X252194301Y-123066023D01*
X253343349Y-122548952D02*
X253400801Y-122491500D01*
X253515706Y-122434047D01*
X253802968Y-122434047D01*
X253917873Y-122491500D01*
X253975325Y-122548952D01*
X254032778Y-122663857D01*
X254032778Y-122778761D01*
X253975325Y-122951119D01*
X253285897Y-123640547D01*
X254032778Y-123640547D01*
X254779659Y-122434047D02*
X254894563Y-122434047D01*
X255009468Y-122491500D01*
X255066920Y-122548952D01*
X255124373Y-122663857D01*
X255181825Y-122893666D01*
X255181825Y-123180928D01*
X255124373Y-123410738D01*
X255066920Y-123525642D01*
X255009468Y-123583095D01*
X254894563Y-123640547D01*
X254779659Y-123640547D01*
X254664754Y-123583095D01*
X254607301Y-123525642D01*
X254549849Y-123410738D01*
X254492397Y-123180928D01*
X254492397Y-122893666D01*
X254549849Y-122663857D01*
X254607301Y-122548952D01*
X254664754Y-122491500D01*
X254779659Y-122434047D01*
X256273420Y-122434047D02*
X255698897Y-122434047D01*
X255641444Y-123008571D01*
X255698897Y-122951119D01*
X255813801Y-122893666D01*
X256101063Y-122893666D01*
X256215968Y-122951119D01*
X256273420Y-123008571D01*
X256330873Y-123123476D01*
X256330873Y-123410738D01*
X256273420Y-123525642D01*
X256215968Y-123583095D01*
X256101063Y-123640547D01*
X255813801Y-123640547D01*
X255698897Y-123583095D01*
X255641444Y-123525642D01*
X238321547Y-122868992D02*
X237747023Y-123271159D01*
X238321547Y-123558420D02*
X237115047Y-123558420D01*
X237115047Y-123098801D01*
X237172500Y-122983897D01*
X237229952Y-122926444D01*
X237344857Y-122868992D01*
X237517214Y-122868992D01*
X237632119Y-122926444D01*
X237689571Y-122983897D01*
X237747023Y-123098801D01*
X237747023Y-123558420D01*
X237229952Y-122409373D02*
X237172500Y-122351920D01*
X237115047Y-122237016D01*
X237115047Y-121949754D01*
X237172500Y-121834849D01*
X237229952Y-121777397D01*
X237344857Y-121719944D01*
X237459761Y-121719944D01*
X237632119Y-121777397D01*
X238321547Y-122466825D01*
X238321547Y-121719944D01*
X237115047Y-120973063D02*
X237115047Y-120858159D01*
X237172500Y-120743254D01*
X237229952Y-120685801D01*
X237344857Y-120628349D01*
X237574666Y-120570897D01*
X237861928Y-120570897D01*
X238091738Y-120628349D01*
X238206642Y-120685801D01*
X238264095Y-120743254D01*
X238321547Y-120858159D01*
X238321547Y-120973063D01*
X238264095Y-121087968D01*
X238206642Y-121145420D01*
X238091738Y-121202873D01*
X237861928Y-121260325D01*
X237574666Y-121260325D01*
X237344857Y-121202873D01*
X237229952Y-121145420D01*
X237172500Y-121087968D01*
X237115047Y-120973063D01*
X237517214Y-119536754D02*
X238321547Y-119536754D01*
X237057595Y-119824016D02*
X237919380Y-120111278D01*
X237919380Y-119364397D01*
X244417547Y-122782269D02*
X243843023Y-123184436D01*
X244417547Y-123471698D02*
X243211047Y-123471698D01*
X243211047Y-123012079D01*
X243268500Y-122897174D01*
X243325952Y-122839721D01*
X243440857Y-122782269D01*
X243613214Y-122782269D01*
X243728119Y-122839721D01*
X243785571Y-122897174D01*
X243843023Y-123012079D01*
X243843023Y-123471698D01*
X243325952Y-122322650D02*
X243268500Y-122265198D01*
X243211047Y-122150293D01*
X243211047Y-121863031D01*
X243268500Y-121748126D01*
X243325952Y-121690674D01*
X243440857Y-121633221D01*
X243555761Y-121633221D01*
X243728119Y-121690674D01*
X244417547Y-122380102D01*
X244417547Y-121633221D01*
X243211047Y-120886340D02*
X243211047Y-120771436D01*
X243268500Y-120656531D01*
X243325952Y-120599079D01*
X243440857Y-120541626D01*
X243670666Y-120484174D01*
X243957928Y-120484174D01*
X244187738Y-120541626D01*
X244302642Y-120599079D01*
X244360095Y-120656531D01*
X244417547Y-120771436D01*
X244417547Y-120886340D01*
X244360095Y-121001245D01*
X244302642Y-121058698D01*
X244187738Y-121116150D01*
X243957928Y-121173602D01*
X243670666Y-121173602D01*
X243440857Y-121116150D01*
X243325952Y-121058698D01*
X243268500Y-121001245D01*
X243211047Y-120886340D01*
X243211047Y-120082007D02*
X243211047Y-119335126D01*
X243670666Y-119737293D01*
X243670666Y-119564936D01*
X243728119Y-119450031D01*
X243785571Y-119392579D01*
X243900476Y-119335126D01*
X244187738Y-119335126D01*
X244302642Y-119392579D01*
X244360095Y-119450031D01*
X244417547Y-119564936D01*
X244417547Y-119909650D01*
X244360095Y-120024555D01*
X244302642Y-120082007D01*
X234509007Y-135578547D02*
X234106840Y-135004023D01*
X233819579Y-135578547D02*
X233819579Y-134372047D01*
X234279198Y-134372047D01*
X234394102Y-134429500D01*
X234451555Y-134486952D01*
X234509007Y-134601857D01*
X234509007Y-134774214D01*
X234451555Y-134889119D01*
X234394102Y-134946571D01*
X234279198Y-135004023D01*
X233819579Y-135004023D01*
X234968626Y-134486952D02*
X235026079Y-134429500D01*
X235140983Y-134372047D01*
X235428245Y-134372047D01*
X235543150Y-134429500D01*
X235600602Y-134486952D01*
X235658055Y-134601857D01*
X235658055Y-134716761D01*
X235600602Y-134889119D01*
X234911174Y-135578547D01*
X235658055Y-135578547D01*
X236404936Y-134372047D02*
X236519840Y-134372047D01*
X236634745Y-134429500D01*
X236692198Y-134486952D01*
X236749650Y-134601857D01*
X236807102Y-134831666D01*
X236807102Y-135118928D01*
X236749650Y-135348738D01*
X236692198Y-135463642D01*
X236634745Y-135521095D01*
X236519840Y-135578547D01*
X236404936Y-135578547D01*
X236290031Y-135521095D01*
X236232579Y-135463642D01*
X236175126Y-135348738D01*
X236117674Y-135118928D01*
X236117674Y-134831666D01*
X236175126Y-134601857D01*
X236232579Y-134486952D01*
X236290031Y-134429500D01*
X236404936Y-134372047D01*
X237266721Y-134486952D02*
X237324174Y-134429500D01*
X237439079Y-134372047D01*
X237726340Y-134372047D01*
X237841245Y-134429500D01*
X237898698Y-134486952D01*
X237956150Y-134601857D01*
X237956150Y-134716761D01*
X237898698Y-134889119D01*
X237209269Y-135578547D01*
X237956150Y-135578547D01*
X235146547Y-130021269D02*
X234572023Y-130423436D01*
X235146547Y-130710698D02*
X233940047Y-130710698D01*
X233940047Y-130251079D01*
X233997500Y-130136174D01*
X234054952Y-130078721D01*
X234169857Y-130021269D01*
X234342214Y-130021269D01*
X234457119Y-130078721D01*
X234514571Y-130136174D01*
X234572023Y-130251079D01*
X234572023Y-130710698D01*
X234054952Y-129561650D02*
X233997500Y-129504198D01*
X233940047Y-129389293D01*
X233940047Y-129102031D01*
X233997500Y-128987126D01*
X234054952Y-128929674D01*
X234169857Y-128872221D01*
X234284761Y-128872221D01*
X234457119Y-128929674D01*
X235146547Y-129619102D01*
X235146547Y-128872221D01*
X233940047Y-128125340D02*
X233940047Y-128010436D01*
X233997500Y-127895531D01*
X234054952Y-127838079D01*
X234169857Y-127780626D01*
X234399666Y-127723174D01*
X234686928Y-127723174D01*
X234916738Y-127780626D01*
X235031642Y-127838079D01*
X235089095Y-127895531D01*
X235146547Y-128010436D01*
X235146547Y-128125340D01*
X235089095Y-128240245D01*
X235031642Y-128297698D01*
X234916738Y-128355150D01*
X234686928Y-128412602D01*
X234399666Y-128412602D01*
X234169857Y-128355150D01*
X234054952Y-128297698D01*
X233997500Y-128240245D01*
X233940047Y-128125340D01*
X235146547Y-126574126D02*
X235146547Y-127263555D01*
X235146547Y-126918840D02*
X233940047Y-126918840D01*
X234112404Y-127033745D01*
X234227309Y-127148650D01*
X234284761Y-127263555D01*
D11*
X227754380Y-118379714D02*
X228468666Y-118379714D01*
X228611523Y-118427333D01*
X228706761Y-118522571D01*
X228754380Y-118665428D01*
X228754380Y-118760666D01*
X227849619Y-117951142D02*
X227802000Y-117903523D01*
X227754380Y-117808285D01*
X227754380Y-117570190D01*
X227802000Y-117474952D01*
X227849619Y-117427333D01*
X227944857Y-117379714D01*
X228040095Y-117379714D01*
X228182952Y-117427333D01*
X228754380Y-117998761D01*
X228754380Y-117379714D01*
X227754380Y-116760666D02*
X227754380Y-116665428D01*
X227802000Y-116570190D01*
X227849619Y-116522571D01*
X227944857Y-116474952D01*
X228135333Y-116427333D01*
X228373428Y-116427333D01*
X228563904Y-116474952D01*
X228659142Y-116522571D01*
X228706761Y-116570190D01*
X228754380Y-116665428D01*
X228754380Y-116760666D01*
X228706761Y-116855904D01*
X228659142Y-116903523D01*
X228563904Y-116951142D01*
X228373428Y-116998761D01*
X228135333Y-116998761D01*
X227944857Y-116951142D01*
X227849619Y-116903523D01*
X227802000Y-116855904D01*
X227754380Y-116760666D01*
X227849619Y-116046380D02*
X227802000Y-115998761D01*
X227754380Y-115903523D01*
X227754380Y-115665428D01*
X227802000Y-115570190D01*
X227849619Y-115522571D01*
X227944857Y-115474952D01*
X228040095Y-115474952D01*
X228182952Y-115522571D01*
X228754380Y-116094000D01*
X228754380Y-115474952D01*
X222186380Y-136413714D02*
X222900666Y-136413714D01*
X223043523Y-136461333D01*
X223138761Y-136556571D01*
X223186380Y-136699428D01*
X223186380Y-136794666D01*
X222281619Y-135985142D02*
X222234000Y-135937523D01*
X222186380Y-135842285D01*
X222186380Y-135604190D01*
X222234000Y-135508952D01*
X222281619Y-135461333D01*
X222376857Y-135413714D01*
X222472095Y-135413714D01*
X222614952Y-135461333D01*
X223186380Y-136032761D01*
X223186380Y-135413714D01*
X222186380Y-134794666D02*
X222186380Y-134699428D01*
X222234000Y-134604190D01*
X222281619Y-134556571D01*
X222376857Y-134508952D01*
X222567333Y-134461333D01*
X222805428Y-134461333D01*
X222995904Y-134508952D01*
X223091142Y-134556571D01*
X223138761Y-134604190D01*
X223186380Y-134699428D01*
X223186380Y-134794666D01*
X223138761Y-134889904D01*
X223091142Y-134937523D01*
X222995904Y-134985142D01*
X222805428Y-135032761D01*
X222567333Y-135032761D01*
X222376857Y-134985142D01*
X222281619Y-134937523D01*
X222234000Y-134889904D01*
X222186380Y-134794666D01*
X223186380Y-133508952D02*
X223186380Y-134080380D01*
X223186380Y-133794666D02*
X222186380Y-133794666D01*
X222329238Y-133889904D01*
X222424476Y-133985142D01*
X222472095Y-134080380D01*
D16*
X224889301Y-137293047D02*
X224889301Y-136086547D01*
X225176563Y-136086547D01*
X225348920Y-136144000D01*
X225463825Y-136258904D01*
X225521278Y-136373809D01*
X225578730Y-136603619D01*
X225578730Y-136775976D01*
X225521278Y-137005785D01*
X225463825Y-137120690D01*
X225348920Y-137235595D01*
X225176563Y-137293047D01*
X224889301Y-137293047D01*
X226038349Y-136201452D02*
X226095801Y-136144000D01*
X226210706Y-136086547D01*
X226497968Y-136086547D01*
X226612873Y-136144000D01*
X226670325Y-136201452D01*
X226727778Y-136316357D01*
X226727778Y-136431261D01*
X226670325Y-136603619D01*
X225980897Y-137293047D01*
X226727778Y-137293047D01*
X227474659Y-136086547D02*
X227589563Y-136086547D01*
X227704468Y-136144000D01*
X227761920Y-136201452D01*
X227819373Y-136316357D01*
X227876825Y-136546166D01*
X227876825Y-136833428D01*
X227819373Y-137063238D01*
X227761920Y-137178142D01*
X227704468Y-137235595D01*
X227589563Y-137293047D01*
X227474659Y-137293047D01*
X227359754Y-137235595D01*
X227302301Y-137178142D01*
X227244849Y-137063238D01*
X227187397Y-136833428D01*
X227187397Y-136546166D01*
X227244849Y-136316357D01*
X227302301Y-136201452D01*
X227359754Y-136144000D01*
X227474659Y-136086547D01*
X229025873Y-137293047D02*
X228336444Y-137293047D01*
X228681159Y-137293047D02*
X228681159Y-136086547D01*
X228566254Y-136258904D01*
X228451349Y-136373809D01*
X228336444Y-136431261D01*
X246779142Y-123290269D02*
X246836595Y-123347721D01*
X246894047Y-123520079D01*
X246894047Y-123634983D01*
X246836595Y-123807340D01*
X246721690Y-123922245D01*
X246606785Y-123979698D01*
X246376976Y-124037150D01*
X246204619Y-124037150D01*
X245974809Y-123979698D01*
X245859904Y-123922245D01*
X245745000Y-123807340D01*
X245687547Y-123634983D01*
X245687547Y-123520079D01*
X245745000Y-123347721D01*
X245802452Y-123290269D01*
X245802452Y-122830650D02*
X245745000Y-122773198D01*
X245687547Y-122658293D01*
X245687547Y-122371031D01*
X245745000Y-122256126D01*
X245802452Y-122198674D01*
X245917357Y-122141221D01*
X246032261Y-122141221D01*
X246204619Y-122198674D01*
X246894047Y-122888102D01*
X246894047Y-122141221D01*
X246894047Y-120992174D02*
X246894047Y-121681602D01*
X246894047Y-121336888D02*
X245687547Y-121336888D01*
X245859904Y-121451793D01*
X245974809Y-121566698D01*
X246032261Y-121681602D01*
X245687547Y-120590007D02*
X245687547Y-119843126D01*
X246147166Y-120245293D01*
X246147166Y-120072936D01*
X246204619Y-119958031D01*
X246262071Y-119900579D01*
X246376976Y-119843126D01*
X246664238Y-119843126D01*
X246779142Y-119900579D01*
X246836595Y-119958031D01*
X246894047Y-120072936D01*
X246894047Y-120417650D01*
X246836595Y-120532555D01*
X246779142Y-120590007D01*
X236365142Y-122868992D02*
X236422595Y-122926444D01*
X236480047Y-123098801D01*
X236480047Y-123213706D01*
X236422595Y-123386063D01*
X236307690Y-123500968D01*
X236192785Y-123558420D01*
X235962976Y-123615873D01*
X235790619Y-123615873D01*
X235560809Y-123558420D01*
X235445904Y-123500968D01*
X235331000Y-123386063D01*
X235273547Y-123213706D01*
X235273547Y-123098801D01*
X235331000Y-122926444D01*
X235388452Y-122868992D01*
X235388452Y-122409373D02*
X235331000Y-122351920D01*
X235273547Y-122237016D01*
X235273547Y-121949754D01*
X235331000Y-121834849D01*
X235388452Y-121777397D01*
X235503357Y-121719944D01*
X235618261Y-121719944D01*
X235790619Y-121777397D01*
X236480047Y-122466825D01*
X236480047Y-121719944D01*
X236480047Y-120570897D02*
X236480047Y-121260325D01*
X236480047Y-120915611D02*
X235273547Y-120915611D01*
X235445904Y-121030516D01*
X235560809Y-121145420D01*
X235618261Y-121260325D01*
X235388452Y-120111278D02*
X235331000Y-120053825D01*
X235273547Y-119938920D01*
X235273547Y-119651659D01*
X235331000Y-119536754D01*
X235388452Y-119479301D01*
X235503357Y-119421849D01*
X235618261Y-119421849D01*
X235790619Y-119479301D01*
X236480047Y-120168730D01*
X236480047Y-119421849D01*
X221895730Y-133177642D02*
X221838278Y-133235095D01*
X221665920Y-133292547D01*
X221551016Y-133292547D01*
X221378659Y-133235095D01*
X221263754Y-133120190D01*
X221206301Y-133005285D01*
X221148849Y-132775476D01*
X221148849Y-132603119D01*
X221206301Y-132373309D01*
X221263754Y-132258404D01*
X221378659Y-132143500D01*
X221551016Y-132086047D01*
X221665920Y-132086047D01*
X221838278Y-132143500D01*
X221895730Y-132200952D01*
X222355349Y-132200952D02*
X222412801Y-132143500D01*
X222527706Y-132086047D01*
X222814968Y-132086047D01*
X222929873Y-132143500D01*
X222987325Y-132200952D01*
X223044778Y-132315857D01*
X223044778Y-132430761D01*
X222987325Y-132603119D01*
X222297897Y-133292547D01*
X223044778Y-133292547D01*
X224193825Y-133292547D02*
X223504397Y-133292547D01*
X223849111Y-133292547D02*
X223849111Y-132086047D01*
X223734206Y-132258404D01*
X223619301Y-132373309D01*
X223504397Y-132430761D01*
X225342873Y-133292547D02*
X224653444Y-133292547D01*
X224998159Y-133292547D02*
X224998159Y-132086047D01*
X224883254Y-132258404D01*
X224768349Y-132373309D01*
X224653444Y-132430761D01*
X234849730Y-133177642D02*
X234792278Y-133235095D01*
X234619920Y-133292547D01*
X234505016Y-133292547D01*
X234332659Y-133235095D01*
X234217754Y-133120190D01*
X234160301Y-133005285D01*
X234102849Y-132775476D01*
X234102849Y-132603119D01*
X234160301Y-132373309D01*
X234217754Y-132258404D01*
X234332659Y-132143500D01*
X234505016Y-132086047D01*
X234619920Y-132086047D01*
X234792278Y-132143500D01*
X234849730Y-132200952D01*
X235309349Y-132200952D02*
X235366801Y-132143500D01*
X235481706Y-132086047D01*
X235768968Y-132086047D01*
X235883873Y-132143500D01*
X235941325Y-132200952D01*
X235998778Y-132315857D01*
X235998778Y-132430761D01*
X235941325Y-132603119D01*
X235251897Y-133292547D01*
X235998778Y-133292547D01*
X237147825Y-133292547D02*
X236458397Y-133292547D01*
X236803111Y-133292547D02*
X236803111Y-132086047D01*
X236688206Y-132258404D01*
X236573301Y-132373309D01*
X236458397Y-132430761D01*
X237894706Y-132086047D02*
X238009611Y-132086047D01*
X238124516Y-132143500D01*
X238181968Y-132200952D01*
X238239420Y-132315857D01*
X238296873Y-132545666D01*
X238296873Y-132832928D01*
X238239420Y-133062738D01*
X238181968Y-133177642D01*
X238124516Y-133235095D01*
X238009611Y-133292547D01*
X237894706Y-133292547D01*
X237779801Y-133235095D01*
X237722349Y-133177642D01*
X237664897Y-133062738D01*
X237607444Y-132832928D01*
X237607444Y-132545666D01*
X237664897Y-132315857D01*
X237722349Y-132200952D01*
X237779801Y-132143500D01*
X237894706Y-132086047D01*
X224054730Y-121239642D02*
X223997278Y-121297095D01*
X223824920Y-121354547D01*
X223710016Y-121354547D01*
X223537659Y-121297095D01*
X223422754Y-121182190D01*
X223365301Y-121067285D01*
X223307849Y-120837476D01*
X223307849Y-120665119D01*
X223365301Y-120435309D01*
X223422754Y-120320404D01*
X223537659Y-120205500D01*
X223710016Y-120148047D01*
X223824920Y-120148047D01*
X223997278Y-120205500D01*
X224054730Y-120262952D01*
X224514349Y-120262952D02*
X224571801Y-120205500D01*
X224686706Y-120148047D01*
X224973968Y-120148047D01*
X225088873Y-120205500D01*
X225146325Y-120262952D01*
X225203778Y-120377857D01*
X225203778Y-120492761D01*
X225146325Y-120665119D01*
X224456897Y-121354547D01*
X225203778Y-121354547D01*
X225950659Y-120148047D02*
X226065563Y-120148047D01*
X226180468Y-120205500D01*
X226237920Y-120262952D01*
X226295373Y-120377857D01*
X226352825Y-120607666D01*
X226352825Y-120894928D01*
X226295373Y-121124738D01*
X226237920Y-121239642D01*
X226180468Y-121297095D01*
X226065563Y-121354547D01*
X225950659Y-121354547D01*
X225835754Y-121297095D01*
X225778301Y-121239642D01*
X225720849Y-121124738D01*
X225663397Y-120894928D01*
X225663397Y-120607666D01*
X225720849Y-120377857D01*
X225778301Y-120262952D01*
X225835754Y-120205500D01*
X225950659Y-120148047D01*
X226927349Y-121354547D02*
X227157159Y-121354547D01*
X227272063Y-121297095D01*
X227329516Y-121239642D01*
X227444420Y-121067285D01*
X227501873Y-120837476D01*
X227501873Y-120377857D01*
X227444420Y-120262952D01*
X227386968Y-120205500D01*
X227272063Y-120148047D01*
X227042254Y-120148047D01*
X226927349Y-120205500D01*
X226869897Y-120262952D01*
X226812444Y-120377857D01*
X226812444Y-120665119D01*
X226869897Y-120780023D01*
X226927349Y-120837476D01*
X227042254Y-120894928D01*
X227272063Y-120894928D01*
X227386968Y-120837476D01*
X227444420Y-120780023D01*
X227501873Y-120665119D01*
X216434730Y-120414142D02*
X216377278Y-120471595D01*
X216204920Y-120529047D01*
X216090016Y-120529047D01*
X215917659Y-120471595D01*
X215802754Y-120356690D01*
X215745301Y-120241785D01*
X215687849Y-120011976D01*
X215687849Y-119839619D01*
X215745301Y-119609809D01*
X215802754Y-119494904D01*
X215917659Y-119380000D01*
X216090016Y-119322547D01*
X216204920Y-119322547D01*
X216377278Y-119380000D01*
X216434730Y-119437452D01*
X216894349Y-119437452D02*
X216951801Y-119380000D01*
X217066706Y-119322547D01*
X217353968Y-119322547D01*
X217468873Y-119380000D01*
X217526325Y-119437452D01*
X217583778Y-119552357D01*
X217583778Y-119667261D01*
X217526325Y-119839619D01*
X216836897Y-120529047D01*
X217583778Y-120529047D01*
X218330659Y-119322547D02*
X218445563Y-119322547D01*
X218560468Y-119380000D01*
X218617920Y-119437452D01*
X218675373Y-119552357D01*
X218732825Y-119782166D01*
X218732825Y-120069428D01*
X218675373Y-120299238D01*
X218617920Y-120414142D01*
X218560468Y-120471595D01*
X218445563Y-120529047D01*
X218330659Y-120529047D01*
X218215754Y-120471595D01*
X218158301Y-120414142D01*
X218100849Y-120299238D01*
X218043397Y-120069428D01*
X218043397Y-119782166D01*
X218100849Y-119552357D01*
X218158301Y-119437452D01*
X218215754Y-119380000D01*
X218330659Y-119322547D01*
X219766968Y-119322547D02*
X219537159Y-119322547D01*
X219422254Y-119380000D01*
X219364801Y-119437452D01*
X219249897Y-119609809D01*
X219192444Y-119839619D01*
X219192444Y-120299238D01*
X219249897Y-120414142D01*
X219307349Y-120471595D01*
X219422254Y-120529047D01*
X219652063Y-120529047D01*
X219766968Y-120471595D01*
X219824420Y-120414142D01*
X219881873Y-120299238D01*
X219881873Y-120011976D01*
X219824420Y-119897071D01*
X219766968Y-119839619D01*
X219652063Y-119782166D01*
X219422254Y-119782166D01*
X219307349Y-119839619D01*
X219249897Y-119897071D01*
X219192444Y-120011976D01*
X231420730Y-119461642D02*
X231363278Y-119519095D01*
X231190920Y-119576547D01*
X231076016Y-119576547D01*
X230903659Y-119519095D01*
X230788754Y-119404190D01*
X230731301Y-119289285D01*
X230673849Y-119059476D01*
X230673849Y-118887119D01*
X230731301Y-118657309D01*
X230788754Y-118542404D01*
X230903659Y-118427500D01*
X231076016Y-118370047D01*
X231190920Y-118370047D01*
X231363278Y-118427500D01*
X231420730Y-118484952D01*
X231880349Y-118484952D02*
X231937801Y-118427500D01*
X232052706Y-118370047D01*
X232339968Y-118370047D01*
X232454873Y-118427500D01*
X232512325Y-118484952D01*
X232569778Y-118599857D01*
X232569778Y-118714761D01*
X232512325Y-118887119D01*
X231822897Y-119576547D01*
X232569778Y-119576547D01*
X233316659Y-118370047D02*
X233431563Y-118370047D01*
X233546468Y-118427500D01*
X233603920Y-118484952D01*
X233661373Y-118599857D01*
X233718825Y-118829666D01*
X233718825Y-119116928D01*
X233661373Y-119346738D01*
X233603920Y-119461642D01*
X233546468Y-119519095D01*
X233431563Y-119576547D01*
X233316659Y-119576547D01*
X233201754Y-119519095D01*
X233144301Y-119461642D01*
X233086849Y-119346738D01*
X233029397Y-119116928D01*
X233029397Y-118829666D01*
X233086849Y-118599857D01*
X233144301Y-118484952D01*
X233201754Y-118427500D01*
X233316659Y-118370047D01*
X234178444Y-118484952D02*
X234235897Y-118427500D01*
X234350801Y-118370047D01*
X234638063Y-118370047D01*
X234752968Y-118427500D01*
X234810420Y-118484952D01*
X234867873Y-118599857D01*
X234867873Y-118714761D01*
X234810420Y-118887119D01*
X234120992Y-119576547D01*
X234867873Y-119576547D01*
X215918142Y-124941269D02*
X215975595Y-124998721D01*
X216033047Y-125171079D01*
X216033047Y-125285983D01*
X215975595Y-125458340D01*
X215860690Y-125573245D01*
X215745785Y-125630698D01*
X215515976Y-125688150D01*
X215343619Y-125688150D01*
X215113809Y-125630698D01*
X214998904Y-125573245D01*
X214884000Y-125458340D01*
X214826547Y-125285983D01*
X214826547Y-125171079D01*
X214884000Y-124998721D01*
X214941452Y-124941269D01*
X214941452Y-124481650D02*
X214884000Y-124424198D01*
X214826547Y-124309293D01*
X214826547Y-124022031D01*
X214884000Y-123907126D01*
X214941452Y-123849674D01*
X215056357Y-123792221D01*
X215171261Y-123792221D01*
X215343619Y-123849674D01*
X216033047Y-124539102D01*
X216033047Y-123792221D01*
X214826547Y-123045340D02*
X214826547Y-122930436D01*
X214884000Y-122815531D01*
X214941452Y-122758079D01*
X215056357Y-122700626D01*
X215286166Y-122643174D01*
X215573428Y-122643174D01*
X215803238Y-122700626D01*
X215918142Y-122758079D01*
X215975595Y-122815531D01*
X216033047Y-122930436D01*
X216033047Y-123045340D01*
X215975595Y-123160245D01*
X215918142Y-123217698D01*
X215803238Y-123275150D01*
X215573428Y-123332602D01*
X215286166Y-123332602D01*
X215056357Y-123275150D01*
X214941452Y-123217698D01*
X214884000Y-123160245D01*
X214826547Y-123045340D01*
X216033047Y-121494126D02*
X216033047Y-122183555D01*
X216033047Y-121838840D02*
X214826547Y-121838840D01*
X214998904Y-121953745D01*
X215113809Y-122068650D01*
X215171261Y-122183555D01*
D11*
X192087714Y-51776380D02*
X192087714Y-52585904D01*
X192135333Y-52681142D01*
X192182952Y-52728761D01*
X192278190Y-52776380D01*
X192468666Y-52776380D01*
X192563904Y-52728761D01*
X192611523Y-52681142D01*
X192659142Y-52585904D01*
X192659142Y-51776380D01*
X193659142Y-52776380D02*
X193087714Y-52776380D01*
X193373428Y-52776380D02*
X193373428Y-51776380D01*
X193278190Y-51919238D01*
X193182952Y-52014476D01*
X193087714Y-52062095D01*
X194278190Y-51776380D02*
X194373428Y-51776380D01*
X194468666Y-51824000D01*
X194516285Y-51871619D01*
X194563904Y-51966857D01*
X194611523Y-52157333D01*
X194611523Y-52395428D01*
X194563904Y-52585904D01*
X194516285Y-52681142D01*
X194468666Y-52728761D01*
X194373428Y-52776380D01*
X194278190Y-52776380D01*
X194182952Y-52728761D01*
X194135333Y-52681142D01*
X194087714Y-52585904D01*
X194040095Y-52395428D01*
X194040095Y-52157333D01*
X194087714Y-51966857D01*
X194135333Y-51871619D01*
X194182952Y-51824000D01*
X194278190Y-51776380D01*
X195563904Y-52776380D02*
X194992476Y-52776380D01*
X195278190Y-52776380D02*
X195278190Y-51776380D01*
X195182952Y-51919238D01*
X195087714Y-52014476D01*
X194992476Y-52062095D01*
X233656380Y-62936380D02*
X233323047Y-62460190D01*
X233084952Y-62936380D02*
X233084952Y-61936380D01*
X233465904Y-61936380D01*
X233561142Y-61984000D01*
X233608761Y-62031619D01*
X233656380Y-62126857D01*
X233656380Y-62269714D01*
X233608761Y-62364952D01*
X233561142Y-62412571D01*
X233465904Y-62460190D01*
X233084952Y-62460190D01*
X233942095Y-61936380D02*
X234275428Y-62936380D01*
X234608761Y-61936380D01*
X235465904Y-62936380D02*
X234894476Y-62936380D01*
X235180190Y-62936380D02*
X235180190Y-61936380D01*
X235084952Y-62079238D01*
X234989714Y-62174476D01*
X234894476Y-62222095D01*
X236084952Y-61936380D02*
X236180190Y-61936380D01*
X236275428Y-61984000D01*
X236323047Y-62031619D01*
X236370666Y-62126857D01*
X236418285Y-62317333D01*
X236418285Y-62555428D01*
X236370666Y-62745904D01*
X236323047Y-62841142D01*
X236275428Y-62888761D01*
X236180190Y-62936380D01*
X236084952Y-62936380D01*
X235989714Y-62888761D01*
X235942095Y-62841142D01*
X235894476Y-62745904D01*
X235846857Y-62555428D01*
X235846857Y-62317333D01*
X235894476Y-62126857D01*
X235942095Y-62031619D01*
X235989714Y-61984000D01*
X236084952Y-61936380D01*
X237275428Y-62269714D02*
X237275428Y-62936380D01*
X237037333Y-61888761D02*
X236799238Y-62603047D01*
X237418285Y-62603047D01*
X248896380Y-61920380D02*
X248563047Y-61444190D01*
X248324952Y-61920380D02*
X248324952Y-60920380D01*
X248705904Y-60920380D01*
X248801142Y-60968000D01*
X248848761Y-61015619D01*
X248896380Y-61110857D01*
X248896380Y-61253714D01*
X248848761Y-61348952D01*
X248801142Y-61396571D01*
X248705904Y-61444190D01*
X248324952Y-61444190D01*
X249182095Y-60920380D02*
X249515428Y-61920380D01*
X249848761Y-60920380D01*
X250705904Y-61920380D02*
X250134476Y-61920380D01*
X250420190Y-61920380D02*
X250420190Y-60920380D01*
X250324952Y-61063238D01*
X250229714Y-61158476D01*
X250134476Y-61206095D01*
X251324952Y-60920380D02*
X251420190Y-60920380D01*
X251515428Y-60968000D01*
X251563047Y-61015619D01*
X251610666Y-61110857D01*
X251658285Y-61301333D01*
X251658285Y-61539428D01*
X251610666Y-61729904D01*
X251563047Y-61825142D01*
X251515428Y-61872761D01*
X251420190Y-61920380D01*
X251324952Y-61920380D01*
X251229714Y-61872761D01*
X251182095Y-61825142D01*
X251134476Y-61729904D01*
X251086857Y-61539428D01*
X251086857Y-61301333D01*
X251134476Y-61110857D01*
X251182095Y-61015619D01*
X251229714Y-60968000D01*
X251324952Y-60920380D01*
X251991619Y-60920380D02*
X252610666Y-60920380D01*
X252277333Y-61301333D01*
X252420190Y-61301333D01*
X252515428Y-61348952D01*
X252563047Y-61396571D01*
X252610666Y-61491809D01*
X252610666Y-61729904D01*
X252563047Y-61825142D01*
X252515428Y-61872761D01*
X252420190Y-61920380D01*
X252134476Y-61920380D01*
X252039238Y-61872761D01*
X251991619Y-61825142D01*
X234164380Y-76144380D02*
X233831047Y-75668190D01*
X233592952Y-76144380D02*
X233592952Y-75144380D01*
X233973904Y-75144380D01*
X234069142Y-75192000D01*
X234116761Y-75239619D01*
X234164380Y-75334857D01*
X234164380Y-75477714D01*
X234116761Y-75572952D01*
X234069142Y-75620571D01*
X233973904Y-75668190D01*
X233592952Y-75668190D01*
X234450095Y-75144380D02*
X234783428Y-76144380D01*
X235116761Y-75144380D01*
X235973904Y-76144380D02*
X235402476Y-76144380D01*
X235688190Y-76144380D02*
X235688190Y-75144380D01*
X235592952Y-75287238D01*
X235497714Y-75382476D01*
X235402476Y-75430095D01*
X236592952Y-75144380D02*
X236688190Y-75144380D01*
X236783428Y-75192000D01*
X236831047Y-75239619D01*
X236878666Y-75334857D01*
X236926285Y-75525333D01*
X236926285Y-75763428D01*
X236878666Y-75953904D01*
X236831047Y-76049142D01*
X236783428Y-76096761D01*
X236688190Y-76144380D01*
X236592952Y-76144380D01*
X236497714Y-76096761D01*
X236450095Y-76049142D01*
X236402476Y-75953904D01*
X236354857Y-75763428D01*
X236354857Y-75525333D01*
X236402476Y-75334857D01*
X236450095Y-75239619D01*
X236497714Y-75192000D01*
X236592952Y-75144380D01*
X237307238Y-75239619D02*
X237354857Y-75192000D01*
X237450095Y-75144380D01*
X237688190Y-75144380D01*
X237783428Y-75192000D01*
X237831047Y-75239619D01*
X237878666Y-75334857D01*
X237878666Y-75430095D01*
X237831047Y-75572952D01*
X237259619Y-76144380D01*
X237878666Y-76144380D01*
X248896380Y-77160380D02*
X248563047Y-76684190D01*
X248324952Y-77160380D02*
X248324952Y-76160380D01*
X248705904Y-76160380D01*
X248801142Y-76208000D01*
X248848761Y-76255619D01*
X248896380Y-76350857D01*
X248896380Y-76493714D01*
X248848761Y-76588952D01*
X248801142Y-76636571D01*
X248705904Y-76684190D01*
X248324952Y-76684190D01*
X249182095Y-76160380D02*
X249515428Y-77160380D01*
X249848761Y-76160380D01*
X250705904Y-77160380D02*
X250134476Y-77160380D01*
X250420190Y-77160380D02*
X250420190Y-76160380D01*
X250324952Y-76303238D01*
X250229714Y-76398476D01*
X250134476Y-76446095D01*
X251324952Y-76160380D02*
X251420190Y-76160380D01*
X251515428Y-76208000D01*
X251563047Y-76255619D01*
X251610666Y-76350857D01*
X251658285Y-76541333D01*
X251658285Y-76779428D01*
X251610666Y-76969904D01*
X251563047Y-77065142D01*
X251515428Y-77112761D01*
X251420190Y-77160380D01*
X251324952Y-77160380D01*
X251229714Y-77112761D01*
X251182095Y-77065142D01*
X251134476Y-76969904D01*
X251086857Y-76779428D01*
X251086857Y-76541333D01*
X251134476Y-76350857D01*
X251182095Y-76255619D01*
X251229714Y-76208000D01*
X251324952Y-76160380D01*
X252610666Y-77160380D02*
X252039238Y-77160380D01*
X252324952Y-77160380D02*
X252324952Y-76160380D01*
X252229714Y-76303238D01*
X252134476Y-76398476D01*
X252039238Y-76446095D01*
X255254285Y-85304380D02*
X255254285Y-86018666D01*
X255206666Y-86161523D01*
X255111428Y-86256761D01*
X254968571Y-86304380D01*
X254873333Y-86304380D01*
X256254285Y-86304380D02*
X255682857Y-86304380D01*
X255968571Y-86304380D02*
X255968571Y-85304380D01*
X255873333Y-85447238D01*
X255778095Y-85542476D01*
X255682857Y-85590095D01*
X256873333Y-85304380D02*
X256968571Y-85304380D01*
X257063809Y-85352000D01*
X257111428Y-85399619D01*
X257159047Y-85494857D01*
X257206666Y-85685333D01*
X257206666Y-85923428D01*
X257159047Y-86113904D01*
X257111428Y-86209142D01*
X257063809Y-86256761D01*
X256968571Y-86304380D01*
X256873333Y-86304380D01*
X256778095Y-86256761D01*
X256730476Y-86209142D01*
X256682857Y-86113904D01*
X256635238Y-85923428D01*
X256635238Y-85685333D01*
X256682857Y-85494857D01*
X256730476Y-85399619D01*
X256778095Y-85352000D01*
X256873333Y-85304380D01*
X258159047Y-86304380D02*
X257587619Y-86304380D01*
X257873333Y-86304380D02*
X257873333Y-85304380D01*
X257778095Y-85447238D01*
X257682857Y-85542476D01*
X257587619Y-85590095D01*
X229838380Y-102806285D02*
X230647904Y-102806285D01*
X230743142Y-102758666D01*
X230790761Y-102711047D01*
X230838380Y-102615809D01*
X230838380Y-102425333D01*
X230790761Y-102330095D01*
X230743142Y-102282476D01*
X230647904Y-102234857D01*
X229838380Y-102234857D01*
X230838380Y-101234857D02*
X230838380Y-101806285D01*
X230838380Y-101520571D02*
X229838380Y-101520571D01*
X229981238Y-101615809D01*
X230076476Y-101711047D01*
X230124095Y-101806285D01*
X229838380Y-100615809D02*
X229838380Y-100520571D01*
X229886000Y-100425333D01*
X229933619Y-100377714D01*
X230028857Y-100330095D01*
X230219333Y-100282476D01*
X230457428Y-100282476D01*
X230647904Y-100330095D01*
X230743142Y-100377714D01*
X230790761Y-100425333D01*
X230838380Y-100520571D01*
X230838380Y-100615809D01*
X230790761Y-100711047D01*
X230743142Y-100758666D01*
X230647904Y-100806285D01*
X230457428Y-100853904D01*
X230219333Y-100853904D01*
X230028857Y-100806285D01*
X229933619Y-100758666D01*
X229886000Y-100711047D01*
X229838380Y-100615809D01*
X229933619Y-99901523D02*
X229886000Y-99853904D01*
X229838380Y-99758666D01*
X229838380Y-99520571D01*
X229886000Y-99425333D01*
X229933619Y-99377714D01*
X230028857Y-99330095D01*
X230124095Y-99330095D01*
X230266952Y-99377714D01*
X230838380Y-99949142D01*
X230838380Y-99330095D01*
X250174285Y-85304380D02*
X250174285Y-86018666D01*
X250126666Y-86161523D01*
X250031428Y-86256761D01*
X249888571Y-86304380D01*
X249793333Y-86304380D01*
X251174285Y-86304380D02*
X250602857Y-86304380D01*
X250888571Y-86304380D02*
X250888571Y-85304380D01*
X250793333Y-85447238D01*
X250698095Y-85542476D01*
X250602857Y-85590095D01*
X251793333Y-85304380D02*
X251888571Y-85304380D01*
X251983809Y-85352000D01*
X252031428Y-85399619D01*
X252079047Y-85494857D01*
X252126666Y-85685333D01*
X252126666Y-85923428D01*
X252079047Y-86113904D01*
X252031428Y-86209142D01*
X251983809Y-86256761D01*
X251888571Y-86304380D01*
X251793333Y-86304380D01*
X251698095Y-86256761D01*
X251650476Y-86209142D01*
X251602857Y-86113904D01*
X251555238Y-85923428D01*
X251555238Y-85685333D01*
X251602857Y-85494857D01*
X251650476Y-85399619D01*
X251698095Y-85352000D01*
X251793333Y-85304380D01*
X252507619Y-85399619D02*
X252555238Y-85352000D01*
X252650476Y-85304380D01*
X252888571Y-85304380D01*
X252983809Y-85352000D01*
X253031428Y-85399619D01*
X253079047Y-85494857D01*
X253079047Y-85590095D01*
X253031428Y-85732952D01*
X252460000Y-86304380D01*
X253079047Y-86304380D01*
M02*
