M48
; DRILL file {KiCad 5.1.7} date Fri Nov  6 17:09:04 2020
; FORMAT={-:-/ absolute / inch / decimal}
; #@! TF.CreationDate,2020-11-06T17:09:04+01:00
; #@! TF.GenerationSoftware,Kicad,Pcbnew,5.1.7
; #@! TF.FileFunction,Plated,1,2,PTH
FMAT,2
INCH
T1C0.0157
T2C0.0394
T3C0.0709
%
G90
G05
T1
X7.8Y-3.76
X7.8Y-3.86
X7.8Y-3.96
X7.8Y-4.04
X7.8Y-4.14
X7.8Y-4.24
X7.82Y-4.92
X7.82Y-5.02
X7.82Y-5.12
X7.9Y-3.76
X7.9Y-3.86
X7.9Y-3.96
X7.9Y-4.04
X7.9Y-4.14
X7.9Y-4.24
X7.92Y-4.92
X7.92Y-5.02
X7.92Y-5.12
X8.0Y-3.76
X8.0Y-3.86
X8.0Y-3.96
X8.0Y-4.04
X8.0Y-4.14
X8.0Y-4.24
X8.02Y-4.92
X8.02Y-5.02
X8.02Y-5.12
X8.1Y-3.76
X8.1Y-3.86
X8.1Y-3.96
X8.1Y-4.04
X8.1Y-4.14
X8.1Y-4.24
X8.12Y-4.92
X8.12Y-5.02
X8.12Y-5.12
X8.47Y-3.93
X8.47Y-4.04
X8.47Y-4.25
X8.7Y-5.14
X8.76Y-3.99
X8.92Y-3.92
X8.98Y-4.74
X9.02Y-3.18
X9.0594Y-4.1404
X9.34Y-4.48
X9.4Y-3.82
X9.4Y-3.92
X9.4Y-4.0
X9.4Y-4.1
X9.4Y-4.18
X9.42Y-3.38
X9.42Y-3.48
X9.42Y-3.58
X9.42Y-3.68
X9.44Y-4.48
X9.44Y-5.14
X9.52Y-3.38
X9.52Y-3.48
X9.52Y-3.58
X9.52Y-3.68
X9.54Y-4.48
X9.62Y-3.48
X9.62Y-3.58
X9.62Y-3.68
X9.72Y-3.48
X9.72Y-3.58
X9.72Y-3.68
X9.72Y-4.24
X9.79Y-4.02
X9.8Y-4.42
X9.8Y-4.52
X9.8Y-4.62
X9.85Y-4.02
X9.9Y-4.42
X9.9Y-4.52
X9.9Y-4.62
X10.0Y-4.06
X10.0Y-4.42
X10.0Y-4.52
X10.0Y-4.62
X10.0085Y-3.48
X10.0725Y-3.6975
X10.0775Y-3.765
X10.0775Y-3.8425
X10.0875Y-3.92
X10.1Y-4.42
X10.1Y-4.52
X10.1Y-4.62
T2
X10.12Y-2.9231
X10.12Y-3.0216
X10.12Y-3.12
X8.56Y-5.32
X8.66Y-5.32
X9.54Y-2.3631
X9.54Y-2.4616
X9.54Y-2.56
X10.12Y-2.3631
X10.12Y-2.4616
X10.12Y-2.56
X9.9Y-3.48
X9.9Y-3.58
X9.08Y-4.61
X9.18Y-4.61
X9.28Y-4.61
X9.38Y-4.61
X9.48Y-4.61
X7.68Y-2.86
X7.68Y-2.96
X7.68Y-3.06
X7.68Y-3.16
X7.68Y-3.26
X7.68Y-3.36
X7.68Y-3.46
X7.68Y-3.56
X7.68Y-3.66
X7.68Y-4.36
X7.68Y-4.46
X7.68Y-4.56
X7.68Y-4.66
X7.68Y-4.76
X7.68Y-4.86
X7.68Y-4.96
X7.68Y-5.06
X7.68Y-5.16
X8.28Y-2.86
X8.28Y-2.96
X8.28Y-3.06
X8.28Y-3.16
X8.28Y-3.26
X8.28Y-3.36
X8.28Y-3.46
X8.28Y-3.56
X8.28Y-3.66
X8.28Y-4.36
X8.28Y-4.46
X8.28Y-4.56
X8.28Y-4.66
X8.28Y-4.76
X8.28Y-4.86
X8.28Y-4.96
X8.28Y-5.06
X8.28Y-5.16
X10.1Y-3.48
X10.1Y-3.58
X9.54Y-2.9231
X9.54Y-3.0216
X9.54Y-3.12
T3
X9.2447Y-2.8326
X9.2447Y-3.2106
X9.8247Y-2.8326
X9.8247Y-3.2106
X9.2447Y-2.2726
X9.2447Y-2.6506
X9.8247Y-2.2726
X9.8247Y-2.6506
T0
M30
