G04 #@! TF.GenerationSoftware,KiCad,Pcbnew,5.1.7*
G04 #@! TF.CreationDate,2020-11-09T12:46:37+01:00*
G04 #@! TF.ProjectId,signal_generator,7369676e-616c-45f6-9765-6e657261746f,rev?*
G04 #@! TF.SameCoordinates,Original*
G04 #@! TF.FileFunction,Soldermask,Bot*
G04 #@! TF.FilePolarity,Negative*
%FSLAX46Y46*%
G04 Gerber Fmt 4.6, Leading zero omitted, Abs format (unit mm)*
G04 Created by KiCad (PCBNEW 5.1.7) date 2020-11-09 12:46:37*
%MOMM*%
%LPD*%
G01*
G04 APERTURE LIST*
%ADD10O,1.600000X1.600000*%
%ADD11C,1.600000*%
%ADD12O,1.700000X1.700000*%
%ADD13R,1.700000X1.700000*%
%ADD14C,3.240000*%
%ADD15C,1.800000*%
%ADD16R,1.800000X1.800000*%
G04 APERTURE END LIST*
D10*
X230632000Y-113284000D03*
D11*
X240792000Y-113284000D03*
D12*
X240792000Y-117094000D03*
X238252000Y-117094000D03*
X235712000Y-117094000D03*
X233172000Y-117094000D03*
D13*
X230632000Y-117094000D03*
D12*
X217424000Y-135128000D03*
D13*
X219964000Y-135128000D03*
D12*
X195072000Y-85344000D03*
X195072000Y-87884000D03*
X195072000Y-82804000D03*
X195072000Y-92964000D03*
X195072000Y-80264000D03*
X195072000Y-75184000D03*
X195072000Y-90424000D03*
X195072000Y-77724000D03*
D13*
X195072000Y-72644000D03*
D12*
X210312000Y-85344000D03*
X210312000Y-87884000D03*
X210312000Y-82804000D03*
X210312000Y-92964000D03*
X210312000Y-80264000D03*
X210312000Y-75184000D03*
X210312000Y-90424000D03*
X210312000Y-77724000D03*
D13*
X210312000Y-72644000D03*
D12*
X195072000Y-123444000D03*
X195072000Y-125984000D03*
X195072000Y-120904000D03*
X195072000Y-131064000D03*
X195072000Y-118364000D03*
X195072000Y-113284000D03*
X195072000Y-128524000D03*
X195072000Y-115824000D03*
D13*
X195072000Y-110744000D03*
D12*
X210312000Y-123444000D03*
X210312000Y-125984000D03*
X210312000Y-120904000D03*
X210312000Y-131064000D03*
X210312000Y-118364000D03*
X210312000Y-113284000D03*
X210312000Y-128524000D03*
X210312000Y-115824000D03*
D13*
X210312000Y-110744000D03*
D14*
X234816000Y-67324000D03*
X234816000Y-57724000D03*
D15*
X242316000Y-60024000D03*
X242316000Y-62524000D03*
D16*
X242316000Y-65024000D03*
D14*
X249548000Y-67324000D03*
X249548000Y-57724000D03*
D15*
X257048000Y-60024000D03*
X257048000Y-62524000D03*
D16*
X257048000Y-65024000D03*
D14*
X234816000Y-81548000D03*
X234816000Y-71948000D03*
D15*
X242316000Y-74248000D03*
X242316000Y-76748000D03*
D16*
X242316000Y-79248000D03*
D14*
X249548000Y-81548000D03*
X249548000Y-71948000D03*
D15*
X257048000Y-74248000D03*
X257048000Y-76748000D03*
D16*
X257048000Y-79248000D03*
D12*
X256540000Y-88392000D03*
D13*
X256540000Y-90932000D03*
X251460000Y-90932000D03*
D12*
X251460000Y-88392000D03*
M02*
