%TF.GenerationSoftware,KiCad,Pcbnew,5.1.7*%
%TF.CreationDate,2020-11-06T17:08:59+01:00*%
%TF.ProjectId,signal_generator,7369676e-616c-45f6-9765-6e657261746f,rev?*%
%TF.SameCoordinates,Original*%
%TF.FileFunction,Soldermask,Top*%
%TF.FilePolarity,Negative*%
%FSLAX46Y46*%
G04 Gerber Fmt 4.6, Leading zero omitted, Abs format (unit mm)*
G04 Created by KiCad (PCBNEW 5.1.7) date 2020-11-06 17:08:59*
%MOMM*%
%LPD*%
G01*
G04 APERTURE LIST*
%ADD10O,1.700000X1.700000*%
%ADD11R,1.700000X1.700000*%
%ADD12C,3.240000*%
%ADD13C,1.800000*%
%ADD14R,1.800000X1.800000*%
G04 APERTURE END LIST*
G36*
G01*
X253637500Y-96249500D02*
X253637500Y-95774500D01*
G75*
G02*
X253875000Y-95537000I237500J0D01*
G01*
X254375000Y-95537000D01*
G75*
G02*
X254612500Y-95774500I0J-237500D01*
G01*
X254612500Y-96249500D01*
G75*
G02*
X254375000Y-96487000I-237500J0D01*
G01*
X253875000Y-96487000D01*
G75*
G02*
X253637500Y-96249500I0J237500D01*
G01*
G37*
G36*
G01*
X251812500Y-96249500D02*
X251812500Y-95774500D01*
G75*
G02*
X252050000Y-95537000I237500J0D01*
G01*
X252550000Y-95537000D01*
G75*
G02*
X252787500Y-95774500I0J-237500D01*
G01*
X252787500Y-96249500D01*
G75*
G02*
X252550000Y-96487000I-237500J0D01*
G01*
X252050000Y-96487000D01*
G75*
G02*
X251812500Y-96249500I0J237500D01*
G01*
G37*
G36*
G01*
X253917000Y-108441500D02*
X253917000Y-107966500D01*
G75*
G02*
X254154500Y-107729000I237500J0D01*
G01*
X254654500Y-107729000D01*
G75*
G02*
X254892000Y-107966500I0J-237500D01*
G01*
X254892000Y-108441500D01*
G75*
G02*
X254654500Y-108679000I-237500J0D01*
G01*
X254154500Y-108679000D01*
G75*
G02*
X253917000Y-108441500I0J237500D01*
G01*
G37*
G36*
G01*
X252092000Y-108441500D02*
X252092000Y-107966500D01*
G75*
G02*
X252329500Y-107729000I237500J0D01*
G01*
X252829500Y-107729000D01*
G75*
G02*
X253067000Y-107966500I0J-237500D01*
G01*
X253067000Y-108441500D01*
G75*
G02*
X252829500Y-108679000I-237500J0D01*
G01*
X252329500Y-108679000D01*
G75*
G02*
X252092000Y-108441500I0J237500D01*
G01*
G37*
G36*
G01*
X244458500Y-104477000D02*
X243983500Y-104477000D01*
G75*
G02*
X243746000Y-104239500I0J237500D01*
G01*
X243746000Y-103739500D01*
G75*
G02*
X243983500Y-103502000I237500J0D01*
G01*
X244458500Y-103502000D01*
G75*
G02*
X244696000Y-103739500I0J-237500D01*
G01*
X244696000Y-104239500D01*
G75*
G02*
X244458500Y-104477000I-237500J0D01*
G01*
G37*
G36*
G01*
X244458500Y-106302000D02*
X243983500Y-106302000D01*
G75*
G02*
X243746000Y-106064500I0J237500D01*
G01*
X243746000Y-105564500D01*
G75*
G02*
X243983500Y-105327000I237500J0D01*
G01*
X244458500Y-105327000D01*
G75*
G02*
X244696000Y-105564500I0J-237500D01*
G01*
X244696000Y-106064500D01*
G75*
G02*
X244458500Y-106302000I-237500J0D01*
G01*
G37*
G36*
G01*
X243983500Y-99612000D02*
X244458500Y-99612000D01*
G75*
G02*
X244696000Y-99849500I0J-237500D01*
G01*
X244696000Y-100349500D01*
G75*
G02*
X244458500Y-100587000I-237500J0D01*
G01*
X243983500Y-100587000D01*
G75*
G02*
X243746000Y-100349500I0J237500D01*
G01*
X243746000Y-99849500D01*
G75*
G02*
X243983500Y-99612000I237500J0D01*
G01*
G37*
G36*
G01*
X243983500Y-97787000D02*
X244458500Y-97787000D01*
G75*
G02*
X244696000Y-98024500I0J-237500D01*
G01*
X244696000Y-98524500D01*
G75*
G02*
X244458500Y-98762000I-237500J0D01*
G01*
X243983500Y-98762000D01*
G75*
G02*
X243746000Y-98524500I0J237500D01*
G01*
X243746000Y-98024500D01*
G75*
G02*
X243983500Y-97787000I237500J0D01*
G01*
G37*
G36*
G01*
X254745500Y-98635000D02*
X254270500Y-98635000D01*
G75*
G02*
X254033000Y-98397500I0J237500D01*
G01*
X254033000Y-97897500D01*
G75*
G02*
X254270500Y-97660000I237500J0D01*
G01*
X254745500Y-97660000D01*
G75*
G02*
X254983000Y-97897500I0J-237500D01*
G01*
X254983000Y-98397500D01*
G75*
G02*
X254745500Y-98635000I-237500J0D01*
G01*
G37*
G36*
G01*
X254745500Y-100460000D02*
X254270500Y-100460000D01*
G75*
G02*
X254033000Y-100222500I0J237500D01*
G01*
X254033000Y-99722500D01*
G75*
G02*
X254270500Y-99485000I237500J0D01*
G01*
X254745500Y-99485000D01*
G75*
G02*
X254983000Y-99722500I0J-237500D01*
G01*
X254983000Y-100222500D01*
G75*
G02*
X254745500Y-100460000I-237500J0D01*
G01*
G37*
G36*
G01*
X254270500Y-105581000D02*
X254745500Y-105581000D01*
G75*
G02*
X254983000Y-105818500I0J-237500D01*
G01*
X254983000Y-106318500D01*
G75*
G02*
X254745500Y-106556000I-237500J0D01*
G01*
X254270500Y-106556000D01*
G75*
G02*
X254033000Y-106318500I0J237500D01*
G01*
X254033000Y-105818500D01*
G75*
G02*
X254270500Y-105581000I237500J0D01*
G01*
G37*
G36*
G01*
X254270500Y-103756000D02*
X254745500Y-103756000D01*
G75*
G02*
X254983000Y-103993500I0J-237500D01*
G01*
X254983000Y-104493500D01*
G75*
G02*
X254745500Y-104731000I-237500J0D01*
G01*
X254270500Y-104731000D01*
G75*
G02*
X254033000Y-104493500I0J237500D01*
G01*
X254033000Y-103993500D01*
G75*
G02*
X254270500Y-103756000I237500J0D01*
G01*
G37*
G36*
G01*
X240173500Y-105327000D02*
X240648500Y-105327000D01*
G75*
G02*
X240886000Y-105564500I0J-237500D01*
G01*
X240886000Y-106064500D01*
G75*
G02*
X240648500Y-106302000I-237500J0D01*
G01*
X240173500Y-106302000D01*
G75*
G02*
X239936000Y-106064500I0J237500D01*
G01*
X239936000Y-105564500D01*
G75*
G02*
X240173500Y-105327000I237500J0D01*
G01*
G37*
G36*
G01*
X240173500Y-103502000D02*
X240648500Y-103502000D01*
G75*
G02*
X240886000Y-103739500I0J-237500D01*
G01*
X240886000Y-104239500D01*
G75*
G02*
X240648500Y-104477000I-237500J0D01*
G01*
X240173500Y-104477000D01*
G75*
G02*
X239936000Y-104239500I0J237500D01*
G01*
X239936000Y-103739500D01*
G75*
G02*
X240173500Y-103502000I237500J0D01*
G01*
G37*
G36*
G01*
X242078500Y-105327000D02*
X242553500Y-105327000D01*
G75*
G02*
X242791000Y-105564500I0J-237500D01*
G01*
X242791000Y-106064500D01*
G75*
G02*
X242553500Y-106302000I-237500J0D01*
G01*
X242078500Y-106302000D01*
G75*
G02*
X241841000Y-106064500I0J237500D01*
G01*
X241841000Y-105564500D01*
G75*
G02*
X242078500Y-105327000I237500J0D01*
G01*
G37*
G36*
G01*
X242078500Y-103502000D02*
X242553500Y-103502000D01*
G75*
G02*
X242791000Y-103739500I0J-237500D01*
G01*
X242791000Y-104239500D01*
G75*
G02*
X242553500Y-104477000I-237500J0D01*
G01*
X242078500Y-104477000D01*
G75*
G02*
X241841000Y-104239500I0J237500D01*
G01*
X241841000Y-103739500D01*
G75*
G02*
X242078500Y-103502000I237500J0D01*
G01*
G37*
G36*
G01*
X240648500Y-98762000D02*
X240173500Y-98762000D01*
G75*
G02*
X239936000Y-98524500I0J237500D01*
G01*
X239936000Y-98024500D01*
G75*
G02*
X240173500Y-97787000I237500J0D01*
G01*
X240648500Y-97787000D01*
G75*
G02*
X240886000Y-98024500I0J-237500D01*
G01*
X240886000Y-98524500D01*
G75*
G02*
X240648500Y-98762000I-237500J0D01*
G01*
G37*
G36*
G01*
X240648500Y-100587000D02*
X240173500Y-100587000D01*
G75*
G02*
X239936000Y-100349500I0J237500D01*
G01*
X239936000Y-99849500D01*
G75*
G02*
X240173500Y-99612000I237500J0D01*
G01*
X240648500Y-99612000D01*
G75*
G02*
X240886000Y-99849500I0J-237500D01*
G01*
X240886000Y-100349500D01*
G75*
G02*
X240648500Y-100587000I-237500J0D01*
G01*
G37*
G36*
G01*
X242553500Y-98762000D02*
X242078500Y-98762000D01*
G75*
G02*
X241841000Y-98524500I0J237500D01*
G01*
X241841000Y-98024500D01*
G75*
G02*
X242078500Y-97787000I237500J0D01*
G01*
X242553500Y-97787000D01*
G75*
G02*
X242791000Y-98024500I0J-237500D01*
G01*
X242791000Y-98524500D01*
G75*
G02*
X242553500Y-98762000I-237500J0D01*
G01*
G37*
G36*
G01*
X242553500Y-100587000D02*
X242078500Y-100587000D01*
G75*
G02*
X241841000Y-100349500I0J237500D01*
G01*
X241841000Y-99849500D01*
G75*
G02*
X242078500Y-99612000I237500J0D01*
G01*
X242553500Y-99612000D01*
G75*
G02*
X242791000Y-99849500I0J-237500D01*
G01*
X242791000Y-100349500D01*
G75*
G02*
X242553500Y-100587000I-237500J0D01*
G01*
G37*
G36*
G01*
X232835000Y-105901500D02*
X232835000Y-105426500D01*
G75*
G02*
X233072500Y-105189000I237500J0D01*
G01*
X233572500Y-105189000D01*
G75*
G02*
X233810000Y-105426500I0J-237500D01*
G01*
X233810000Y-105901500D01*
G75*
G02*
X233572500Y-106139000I-237500J0D01*
G01*
X233072500Y-106139000D01*
G75*
G02*
X232835000Y-105901500I0J237500D01*
G01*
G37*
G36*
G01*
X231010000Y-105901500D02*
X231010000Y-105426500D01*
G75*
G02*
X231247500Y-105189000I237500J0D01*
G01*
X231747500Y-105189000D01*
G75*
G02*
X231985000Y-105426500I0J-237500D01*
G01*
X231985000Y-105901500D01*
G75*
G02*
X231747500Y-106139000I-237500J0D01*
G01*
X231247500Y-106139000D01*
G75*
G02*
X231010000Y-105901500I0J237500D01*
G01*
G37*
G36*
G01*
X232835000Y-98027500D02*
X232835000Y-97552500D01*
G75*
G02*
X233072500Y-97315000I237500J0D01*
G01*
X233572500Y-97315000D01*
G75*
G02*
X233810000Y-97552500I0J-237500D01*
G01*
X233810000Y-98027500D01*
G75*
G02*
X233572500Y-98265000I-237500J0D01*
G01*
X233072500Y-98265000D01*
G75*
G02*
X232835000Y-98027500I0J237500D01*
G01*
G37*
G36*
G01*
X231010000Y-98027500D02*
X231010000Y-97552500D01*
G75*
G02*
X231247500Y-97315000I237500J0D01*
G01*
X231747500Y-97315000D01*
G75*
G02*
X231985000Y-97552500I0J-237500D01*
G01*
X231985000Y-98027500D01*
G75*
G02*
X231747500Y-98265000I-237500J0D01*
G01*
X231247500Y-98265000D01*
G75*
G02*
X231010000Y-98027500I0J237500D01*
G01*
G37*
G36*
G01*
X232835000Y-103869500D02*
X232835000Y-103394500D01*
G75*
G02*
X233072500Y-103157000I237500J0D01*
G01*
X233572500Y-103157000D01*
G75*
G02*
X233810000Y-103394500I0J-237500D01*
G01*
X233810000Y-103869500D01*
G75*
G02*
X233572500Y-104107000I-237500J0D01*
G01*
X233072500Y-104107000D01*
G75*
G02*
X232835000Y-103869500I0J237500D01*
G01*
G37*
G36*
G01*
X231010000Y-103869500D02*
X231010000Y-103394500D01*
G75*
G02*
X231247500Y-103157000I237500J0D01*
G01*
X231747500Y-103157000D01*
G75*
G02*
X231985000Y-103394500I0J-237500D01*
G01*
X231985000Y-103869500D01*
G75*
G02*
X231747500Y-104107000I-237500J0D01*
G01*
X231247500Y-104107000D01*
G75*
G02*
X231010000Y-103869500I0J237500D01*
G01*
G37*
G36*
G01*
X232835000Y-100059500D02*
X232835000Y-99584500D01*
G75*
G02*
X233072500Y-99347000I237500J0D01*
G01*
X233572500Y-99347000D01*
G75*
G02*
X233810000Y-99584500I0J-237500D01*
G01*
X233810000Y-100059500D01*
G75*
G02*
X233572500Y-100297000I-237500J0D01*
G01*
X233072500Y-100297000D01*
G75*
G02*
X232835000Y-100059500I0J237500D01*
G01*
G37*
G36*
G01*
X231010000Y-100059500D02*
X231010000Y-99584500D01*
G75*
G02*
X231247500Y-99347000I237500J0D01*
G01*
X231747500Y-99347000D01*
G75*
G02*
X231985000Y-99584500I0J-237500D01*
G01*
X231985000Y-100059500D01*
G75*
G02*
X231747500Y-100297000I-237500J0D01*
G01*
X231247500Y-100297000D01*
G75*
G02*
X231010000Y-100059500I0J237500D01*
G01*
G37*
G36*
G01*
X236391000Y-100948500D02*
X236391000Y-100473500D01*
G75*
G02*
X236628500Y-100236000I237500J0D01*
G01*
X237128500Y-100236000D01*
G75*
G02*
X237366000Y-100473500I0J-237500D01*
G01*
X237366000Y-100948500D01*
G75*
G02*
X237128500Y-101186000I-237500J0D01*
G01*
X236628500Y-101186000D01*
G75*
G02*
X236391000Y-100948500I0J237500D01*
G01*
G37*
G36*
G01*
X234566000Y-100948500D02*
X234566000Y-100473500D01*
G75*
G02*
X234803500Y-100236000I237500J0D01*
G01*
X235303500Y-100236000D01*
G75*
G02*
X235541000Y-100473500I0J-237500D01*
G01*
X235541000Y-100948500D01*
G75*
G02*
X235303500Y-101186000I-237500J0D01*
G01*
X234803500Y-101186000D01*
G75*
G02*
X234566000Y-100948500I0J237500D01*
G01*
G37*
G36*
G01*
X236391000Y-103107500D02*
X236391000Y-102632500D01*
G75*
G02*
X236628500Y-102395000I237500J0D01*
G01*
X237128500Y-102395000D01*
G75*
G02*
X237366000Y-102632500I0J-237500D01*
G01*
X237366000Y-103107500D01*
G75*
G02*
X237128500Y-103345000I-237500J0D01*
G01*
X236628500Y-103345000D01*
G75*
G02*
X236391000Y-103107500I0J237500D01*
G01*
G37*
G36*
G01*
X234566000Y-103107500D02*
X234566000Y-102632500D01*
G75*
G02*
X234803500Y-102395000I237500J0D01*
G01*
X235303500Y-102395000D01*
G75*
G02*
X235541000Y-102632500I0J-237500D01*
G01*
X235541000Y-103107500D01*
G75*
G02*
X235303500Y-103345000I-237500J0D01*
G01*
X234803500Y-103345000D01*
G75*
G02*
X234566000Y-103107500I0J237500D01*
G01*
G37*
G36*
G01*
X235541000Y-98568500D02*
X235541000Y-99043500D01*
G75*
G02*
X235303500Y-99281000I-237500J0D01*
G01*
X234803500Y-99281000D01*
G75*
G02*
X234566000Y-99043500I0J237500D01*
G01*
X234566000Y-98568500D01*
G75*
G02*
X234803500Y-98331000I237500J0D01*
G01*
X235303500Y-98331000D01*
G75*
G02*
X235541000Y-98568500I0J-237500D01*
G01*
G37*
G36*
G01*
X237366000Y-98568500D02*
X237366000Y-99043500D01*
G75*
G02*
X237128500Y-99281000I-237500J0D01*
G01*
X236628500Y-99281000D01*
G75*
G02*
X236391000Y-99043500I0J237500D01*
G01*
X236391000Y-98568500D01*
G75*
G02*
X236628500Y-98331000I237500J0D01*
G01*
X237128500Y-98331000D01*
G75*
G02*
X237366000Y-98568500I0J-237500D01*
G01*
G37*
G36*
G01*
X235541000Y-104537500D02*
X235541000Y-105012500D01*
G75*
G02*
X235303500Y-105250000I-237500J0D01*
G01*
X234803500Y-105250000D01*
G75*
G02*
X234566000Y-105012500I0J237500D01*
G01*
X234566000Y-104537500D01*
G75*
G02*
X234803500Y-104300000I237500J0D01*
G01*
X235303500Y-104300000D01*
G75*
G02*
X235541000Y-104537500I0J-237500D01*
G01*
G37*
G36*
G01*
X237366000Y-104537500D02*
X237366000Y-105012500D01*
G75*
G02*
X237128500Y-105250000I-237500J0D01*
G01*
X236628500Y-105250000D01*
G75*
G02*
X236391000Y-105012500I0J237500D01*
G01*
X236391000Y-104537500D01*
G75*
G02*
X236628500Y-104300000I237500J0D01*
G01*
X237128500Y-104300000D01*
G75*
G02*
X237366000Y-104537500I0J-237500D01*
G01*
G37*
G36*
G01*
X233763000Y-113046500D02*
X233763000Y-113521500D01*
G75*
G02*
X233525500Y-113759000I-237500J0D01*
G01*
X233025500Y-113759000D01*
G75*
G02*
X232788000Y-113521500I0J237500D01*
G01*
X232788000Y-113046500D01*
G75*
G02*
X233025500Y-112809000I237500J0D01*
G01*
X233525500Y-112809000D01*
G75*
G02*
X233763000Y-113046500I0J-237500D01*
G01*
G37*
G36*
G01*
X235588000Y-113046500D02*
X235588000Y-113521500D01*
G75*
G02*
X235350500Y-113759000I-237500J0D01*
G01*
X234850500Y-113759000D01*
G75*
G02*
X234613000Y-113521500I0J237500D01*
G01*
X234613000Y-113046500D01*
G75*
G02*
X234850500Y-112809000I237500J0D01*
G01*
X235350500Y-112809000D01*
G75*
G02*
X235588000Y-113046500I0J-237500D01*
G01*
G37*
G36*
G01*
X243235500Y-101870500D02*
X243235500Y-102345500D01*
G75*
G02*
X242998000Y-102583000I-237500J0D01*
G01*
X242398000Y-102583000D01*
G75*
G02*
X242160500Y-102345500I0J237500D01*
G01*
X242160500Y-101870500D01*
G75*
G02*
X242398000Y-101633000I237500J0D01*
G01*
X242998000Y-101633000D01*
G75*
G02*
X243235500Y-101870500I0J-237500D01*
G01*
G37*
G36*
G01*
X244960500Y-101870500D02*
X244960500Y-102345500D01*
G75*
G02*
X244723000Y-102583000I-237500J0D01*
G01*
X244123000Y-102583000D01*
G75*
G02*
X243885500Y-102345500I0J237500D01*
G01*
X243885500Y-101870500D01*
G75*
G02*
X244123000Y-101633000I237500J0D01*
G01*
X244723000Y-101633000D01*
G75*
G02*
X244960500Y-101870500I0J-237500D01*
G01*
G37*
G36*
G01*
X216845000Y-102886500D02*
X216845000Y-103361500D01*
G75*
G02*
X216607500Y-103599000I-237500J0D01*
G01*
X216007500Y-103599000D01*
G75*
G02*
X215770000Y-103361500I0J237500D01*
G01*
X215770000Y-102886500D01*
G75*
G02*
X216007500Y-102649000I237500J0D01*
G01*
X216607500Y-102649000D01*
G75*
G02*
X216845000Y-102886500I0J-237500D01*
G01*
G37*
G36*
G01*
X218570000Y-102886500D02*
X218570000Y-103361500D01*
G75*
G02*
X218332500Y-103599000I-237500J0D01*
G01*
X217732500Y-103599000D01*
G75*
G02*
X217495000Y-103361500I0J237500D01*
G01*
X217495000Y-102886500D01*
G75*
G02*
X217732500Y-102649000I237500J0D01*
G01*
X218332500Y-102649000D01*
G75*
G02*
X218570000Y-102886500I0J-237500D01*
G01*
G37*
G36*
G01*
X216845000Y-99584500D02*
X216845000Y-100059500D01*
G75*
G02*
X216607500Y-100297000I-237500J0D01*
G01*
X216007500Y-100297000D01*
G75*
G02*
X215770000Y-100059500I0J237500D01*
G01*
X215770000Y-99584500D01*
G75*
G02*
X216007500Y-99347000I237500J0D01*
G01*
X216607500Y-99347000D01*
G75*
G02*
X216845000Y-99584500I0J-237500D01*
G01*
G37*
G36*
G01*
X218570000Y-99584500D02*
X218570000Y-100059500D01*
G75*
G02*
X218332500Y-100297000I-237500J0D01*
G01*
X217732500Y-100297000D01*
G75*
G02*
X217495000Y-100059500I0J237500D01*
G01*
X217495000Y-99584500D01*
G75*
G02*
X217732500Y-99347000I237500J0D01*
G01*
X218332500Y-99347000D01*
G75*
G02*
X218570000Y-99584500I0J-237500D01*
G01*
G37*
G36*
G01*
X255199000Y-101870500D02*
X255199000Y-102345500D01*
G75*
G02*
X254961500Y-102583000I-237500J0D01*
G01*
X254361500Y-102583000D01*
G75*
G02*
X254124000Y-102345500I0J237500D01*
G01*
X254124000Y-101870500D01*
G75*
G02*
X254361500Y-101633000I237500J0D01*
G01*
X254961500Y-101633000D01*
G75*
G02*
X255199000Y-101870500I0J-237500D01*
G01*
G37*
G36*
G01*
X256924000Y-101870500D02*
X256924000Y-102345500D01*
G75*
G02*
X256686500Y-102583000I-237500J0D01*
G01*
X256086500Y-102583000D01*
G75*
G02*
X255849000Y-102345500I0J237500D01*
G01*
X255849000Y-101870500D01*
G75*
G02*
X256086500Y-101633000I237500J0D01*
G01*
X256686500Y-101633000D01*
G75*
G02*
X256924000Y-101870500I0J-237500D01*
G01*
G37*
G36*
G01*
X229853500Y-95407500D02*
X229378500Y-95407500D01*
G75*
G02*
X229141000Y-95170000I0J237500D01*
G01*
X229141000Y-94570000D01*
G75*
G02*
X229378500Y-94332500I237500J0D01*
G01*
X229853500Y-94332500D01*
G75*
G02*
X230091000Y-94570000I0J-237500D01*
G01*
X230091000Y-95170000D01*
G75*
G02*
X229853500Y-95407500I-237500J0D01*
G01*
G37*
G36*
G01*
X229853500Y-97132500D02*
X229378500Y-97132500D01*
G75*
G02*
X229141000Y-96895000I0J237500D01*
G01*
X229141000Y-96295000D01*
G75*
G02*
X229378500Y-96057500I237500J0D01*
G01*
X229853500Y-96057500D01*
G75*
G02*
X230091000Y-96295000I0J-237500D01*
G01*
X230091000Y-96895000D01*
G75*
G02*
X229853500Y-97132500I-237500J0D01*
G01*
G37*
G36*
G01*
X242006000Y-107679500D02*
X242006000Y-107204500D01*
G75*
G02*
X242243500Y-106967000I237500J0D01*
G01*
X242843500Y-106967000D01*
G75*
G02*
X243081000Y-107204500I0J-237500D01*
G01*
X243081000Y-107679500D01*
G75*
G02*
X242843500Y-107917000I-237500J0D01*
G01*
X242243500Y-107917000D01*
G75*
G02*
X242006000Y-107679500I0J237500D01*
G01*
G37*
G36*
G01*
X240281000Y-107679500D02*
X240281000Y-107204500D01*
G75*
G02*
X240518500Y-106967000I237500J0D01*
G01*
X241118500Y-106967000D01*
G75*
G02*
X241356000Y-107204500I0J-237500D01*
G01*
X241356000Y-107679500D01*
G75*
G02*
X241118500Y-107917000I-237500J0D01*
G01*
X240518500Y-107917000D01*
G75*
G02*
X240281000Y-107679500I0J237500D01*
G01*
G37*
G36*
G01*
X241853500Y-96884500D02*
X241853500Y-96409500D01*
G75*
G02*
X242091000Y-96172000I237500J0D01*
G01*
X242691000Y-96172000D01*
G75*
G02*
X242928500Y-96409500I0J-237500D01*
G01*
X242928500Y-96884500D01*
G75*
G02*
X242691000Y-97122000I-237500J0D01*
G01*
X242091000Y-97122000D01*
G75*
G02*
X241853500Y-96884500I0J237500D01*
G01*
G37*
G36*
G01*
X240128500Y-96884500D02*
X240128500Y-96409500D01*
G75*
G02*
X240366000Y-96172000I237500J0D01*
G01*
X240966000Y-96172000D01*
G75*
G02*
X241203500Y-96409500I0J-237500D01*
G01*
X241203500Y-96884500D01*
G75*
G02*
X240966000Y-97122000I-237500J0D01*
G01*
X240366000Y-97122000D01*
G75*
G02*
X240128500Y-96884500I0J237500D01*
G01*
G37*
G36*
G01*
X232760500Y-101837500D02*
X232760500Y-101362500D01*
G75*
G02*
X232998000Y-101125000I237500J0D01*
G01*
X233598000Y-101125000D01*
G75*
G02*
X233835500Y-101362500I0J-237500D01*
G01*
X233835500Y-101837500D01*
G75*
G02*
X233598000Y-102075000I-237500J0D01*
G01*
X232998000Y-102075000D01*
G75*
G02*
X232760500Y-101837500I0J237500D01*
G01*
G37*
G36*
G01*
X231035500Y-101837500D02*
X231035500Y-101362500D01*
G75*
G02*
X231273000Y-101125000I237500J0D01*
G01*
X231873000Y-101125000D01*
G75*
G02*
X232110500Y-101362500I0J-237500D01*
G01*
X232110500Y-101837500D01*
G75*
G02*
X231873000Y-102075000I-237500J0D01*
G01*
X231273000Y-102075000D01*
G75*
G02*
X231035500Y-101837500I0J237500D01*
G01*
G37*
G36*
G01*
X236291000Y-97138500D02*
X236291000Y-96663500D01*
G75*
G02*
X236528500Y-96426000I237500J0D01*
G01*
X237128500Y-96426000D01*
G75*
G02*
X237366000Y-96663500I0J-237500D01*
G01*
X237366000Y-97138500D01*
G75*
G02*
X237128500Y-97376000I-237500J0D01*
G01*
X236528500Y-97376000D01*
G75*
G02*
X236291000Y-97138500I0J237500D01*
G01*
G37*
G36*
G01*
X234566000Y-97138500D02*
X234566000Y-96663500D01*
G75*
G02*
X234803500Y-96426000I237500J0D01*
G01*
X235403500Y-96426000D01*
G75*
G02*
X235641000Y-96663500I0J-237500D01*
G01*
X235641000Y-97138500D01*
G75*
G02*
X235403500Y-97376000I-237500J0D01*
G01*
X234803500Y-97376000D01*
G75*
G02*
X234566000Y-97138500I0J237500D01*
G01*
G37*
G36*
G01*
X236291000Y-106917500D02*
X236291000Y-106442500D01*
G75*
G02*
X236528500Y-106205000I237500J0D01*
G01*
X237128500Y-106205000D01*
G75*
G02*
X237366000Y-106442500I0J-237500D01*
G01*
X237366000Y-106917500D01*
G75*
G02*
X237128500Y-107155000I-237500J0D01*
G01*
X236528500Y-107155000D01*
G75*
G02*
X236291000Y-106917500I0J237500D01*
G01*
G37*
G36*
G01*
X234566000Y-106917500D02*
X234566000Y-106442500D01*
G75*
G02*
X234803500Y-106205000I237500J0D01*
G01*
X235403500Y-106205000D01*
G75*
G02*
X235641000Y-106442500I0J-237500D01*
G01*
X235641000Y-106917500D01*
G75*
G02*
X235403500Y-107155000I-237500J0D01*
G01*
X234803500Y-107155000D01*
G75*
G02*
X234566000Y-106917500I0J237500D01*
G01*
G37*
G36*
G01*
X224144000Y-127630400D02*
X225944000Y-127630400D01*
G75*
G02*
X226045600Y-127732000I0J-101600D01*
G01*
X226045600Y-130332000D01*
G75*
G02*
X225944000Y-130433600I-101600J0D01*
G01*
X224144000Y-130433600D01*
G75*
G02*
X224042400Y-130332000I0J101600D01*
G01*
X224042400Y-127732000D01*
G75*
G02*
X224144000Y-127630400I101600J0D01*
G01*
G37*
G36*
G01*
X227144000Y-127630400D02*
X228944000Y-127630400D01*
G75*
G02*
X229045600Y-127732000I0J-101600D01*
G01*
X229045600Y-130332000D01*
G75*
G02*
X228944000Y-130433600I-101600J0D01*
G01*
X227144000Y-130433600D01*
G75*
G02*
X227042400Y-130332000I0J101600D01*
G01*
X227042400Y-127732000D01*
G75*
G02*
X227144000Y-127630400I101600J0D01*
G01*
G37*
G36*
G01*
X228968000Y-124337600D02*
X227168000Y-124337600D01*
G75*
G02*
X227066400Y-124236000I0J101600D01*
G01*
X227066400Y-121636000D01*
G75*
G02*
X227168000Y-121534400I101600J0D01*
G01*
X228968000Y-121534400D01*
G75*
G02*
X229069600Y-121636000I0J-101600D01*
G01*
X229069600Y-124236000D01*
G75*
G02*
X228968000Y-124337600I-101600J0D01*
G01*
G37*
G36*
G01*
X225968000Y-124337600D02*
X224168000Y-124337600D01*
G75*
G02*
X224066400Y-124236000I0J101600D01*
G01*
X224066400Y-121636000D01*
G75*
G02*
X224168000Y-121534400I101600J0D01*
G01*
X225968000Y-121534400D01*
G75*
G02*
X226069600Y-121636000I0J-101600D01*
G01*
X226069600Y-124236000D01*
G75*
G02*
X225968000Y-124337600I-101600J0D01*
G01*
G37*
G36*
G01*
X250928000Y-98448000D02*
X250928000Y-98148000D01*
G75*
G02*
X251078000Y-97998000I150000J0D01*
G01*
X252728000Y-97998000D01*
G75*
G02*
X252878000Y-98148000I0J-150000D01*
G01*
X252878000Y-98448000D01*
G75*
G02*
X252728000Y-98598000I-150000J0D01*
G01*
X251078000Y-98598000D01*
G75*
G02*
X250928000Y-98448000I0J150000D01*
G01*
G37*
G36*
G01*
X250928000Y-99718000D02*
X250928000Y-99418000D01*
G75*
G02*
X251078000Y-99268000I150000J0D01*
G01*
X252728000Y-99268000D01*
G75*
G02*
X252878000Y-99418000I0J-150000D01*
G01*
X252878000Y-99718000D01*
G75*
G02*
X252728000Y-99868000I-150000J0D01*
G01*
X251078000Y-99868000D01*
G75*
G02*
X250928000Y-99718000I0J150000D01*
G01*
G37*
G36*
G01*
X250928000Y-100988000D02*
X250928000Y-100688000D01*
G75*
G02*
X251078000Y-100538000I150000J0D01*
G01*
X252728000Y-100538000D01*
G75*
G02*
X252878000Y-100688000I0J-150000D01*
G01*
X252878000Y-100988000D01*
G75*
G02*
X252728000Y-101138000I-150000J0D01*
G01*
X251078000Y-101138000D01*
G75*
G02*
X250928000Y-100988000I0J150000D01*
G01*
G37*
G36*
G01*
X250928000Y-102258000D02*
X250928000Y-101958000D01*
G75*
G02*
X251078000Y-101808000I150000J0D01*
G01*
X252728000Y-101808000D01*
G75*
G02*
X252878000Y-101958000I0J-150000D01*
G01*
X252878000Y-102258000D01*
G75*
G02*
X252728000Y-102408000I-150000J0D01*
G01*
X251078000Y-102408000D01*
G75*
G02*
X250928000Y-102258000I0J150000D01*
G01*
G37*
G36*
G01*
X250928000Y-103528000D02*
X250928000Y-103228000D01*
G75*
G02*
X251078000Y-103078000I150000J0D01*
G01*
X252728000Y-103078000D01*
G75*
G02*
X252878000Y-103228000I0J-150000D01*
G01*
X252878000Y-103528000D01*
G75*
G02*
X252728000Y-103678000I-150000J0D01*
G01*
X251078000Y-103678000D01*
G75*
G02*
X250928000Y-103528000I0J150000D01*
G01*
G37*
G36*
G01*
X250928000Y-104798000D02*
X250928000Y-104498000D01*
G75*
G02*
X251078000Y-104348000I150000J0D01*
G01*
X252728000Y-104348000D01*
G75*
G02*
X252878000Y-104498000I0J-150000D01*
G01*
X252878000Y-104798000D01*
G75*
G02*
X252728000Y-104948000I-150000J0D01*
G01*
X251078000Y-104948000D01*
G75*
G02*
X250928000Y-104798000I0J150000D01*
G01*
G37*
G36*
G01*
X250928000Y-106068000D02*
X250928000Y-105768000D01*
G75*
G02*
X251078000Y-105618000I150000J0D01*
G01*
X252728000Y-105618000D01*
G75*
G02*
X252878000Y-105768000I0J-150000D01*
G01*
X252878000Y-106068000D01*
G75*
G02*
X252728000Y-106218000I-150000J0D01*
G01*
X251078000Y-106218000D01*
G75*
G02*
X250928000Y-106068000I0J150000D01*
G01*
G37*
G36*
G01*
X245978000Y-106068000D02*
X245978000Y-105768000D01*
G75*
G02*
X246128000Y-105618000I150000J0D01*
G01*
X247778000Y-105618000D01*
G75*
G02*
X247928000Y-105768000I0J-150000D01*
G01*
X247928000Y-106068000D01*
G75*
G02*
X247778000Y-106218000I-150000J0D01*
G01*
X246128000Y-106218000D01*
G75*
G02*
X245978000Y-106068000I0J150000D01*
G01*
G37*
G36*
G01*
X245978000Y-104798000D02*
X245978000Y-104498000D01*
G75*
G02*
X246128000Y-104348000I150000J0D01*
G01*
X247778000Y-104348000D01*
G75*
G02*
X247928000Y-104498000I0J-150000D01*
G01*
X247928000Y-104798000D01*
G75*
G02*
X247778000Y-104948000I-150000J0D01*
G01*
X246128000Y-104948000D01*
G75*
G02*
X245978000Y-104798000I0J150000D01*
G01*
G37*
G36*
G01*
X245978000Y-103528000D02*
X245978000Y-103228000D01*
G75*
G02*
X246128000Y-103078000I150000J0D01*
G01*
X247778000Y-103078000D01*
G75*
G02*
X247928000Y-103228000I0J-150000D01*
G01*
X247928000Y-103528000D01*
G75*
G02*
X247778000Y-103678000I-150000J0D01*
G01*
X246128000Y-103678000D01*
G75*
G02*
X245978000Y-103528000I0J150000D01*
G01*
G37*
G36*
G01*
X245978000Y-102258000D02*
X245978000Y-101958000D01*
G75*
G02*
X246128000Y-101808000I150000J0D01*
G01*
X247778000Y-101808000D01*
G75*
G02*
X247928000Y-101958000I0J-150000D01*
G01*
X247928000Y-102258000D01*
G75*
G02*
X247778000Y-102408000I-150000J0D01*
G01*
X246128000Y-102408000D01*
G75*
G02*
X245978000Y-102258000I0J150000D01*
G01*
G37*
G36*
G01*
X245978000Y-100988000D02*
X245978000Y-100688000D01*
G75*
G02*
X246128000Y-100538000I150000J0D01*
G01*
X247778000Y-100538000D01*
G75*
G02*
X247928000Y-100688000I0J-150000D01*
G01*
X247928000Y-100988000D01*
G75*
G02*
X247778000Y-101138000I-150000J0D01*
G01*
X246128000Y-101138000D01*
G75*
G02*
X245978000Y-100988000I0J150000D01*
G01*
G37*
G36*
G01*
X245978000Y-99718000D02*
X245978000Y-99418000D01*
G75*
G02*
X246128000Y-99268000I150000J0D01*
G01*
X247778000Y-99268000D01*
G75*
G02*
X247928000Y-99418000I0J-150000D01*
G01*
X247928000Y-99718000D01*
G75*
G02*
X247778000Y-99868000I-150000J0D01*
G01*
X246128000Y-99868000D01*
G75*
G02*
X245978000Y-99718000I0J150000D01*
G01*
G37*
G36*
G01*
X245978000Y-98448000D02*
X245978000Y-98148000D01*
G75*
G02*
X246128000Y-97998000I150000J0D01*
G01*
X247778000Y-97998000D01*
G75*
G02*
X247928000Y-98148000I0J-150000D01*
G01*
X247928000Y-98448000D01*
G75*
G02*
X247778000Y-98598000I-150000J0D01*
G01*
X246128000Y-98598000D01*
G75*
G02*
X245978000Y-98448000I0J150000D01*
G01*
G37*
G36*
G01*
X248101400Y-126808000D02*
X248101400Y-125608000D01*
G75*
G02*
X248203000Y-125506400I101600J0D01*
G01*
X248753000Y-125506400D01*
G75*
G02*
X248854600Y-125608000I0J-101600D01*
G01*
X248854600Y-126808000D01*
G75*
G02*
X248753000Y-126909600I-101600J0D01*
G01*
X248203000Y-126909600D01*
G75*
G02*
X248101400Y-126808000I0J101600D01*
G01*
G37*
G36*
G01*
X250001400Y-126808000D02*
X250001400Y-125608000D01*
G75*
G02*
X250103000Y-125506400I101600J0D01*
G01*
X250653000Y-125506400D01*
G75*
G02*
X250754600Y-125608000I0J-101600D01*
G01*
X250754600Y-126808000D01*
G75*
G02*
X250653000Y-126909600I-101600J0D01*
G01*
X250103000Y-126909600D01*
G75*
G02*
X250001400Y-126808000I0J101600D01*
G01*
G37*
G36*
G01*
X250001400Y-129408000D02*
X250001400Y-128208000D01*
G75*
G02*
X250103000Y-128106400I101600J0D01*
G01*
X250653000Y-128106400D01*
G75*
G02*
X250754600Y-128208000I0J-101600D01*
G01*
X250754600Y-129408000D01*
G75*
G02*
X250653000Y-129509600I-101600J0D01*
G01*
X250103000Y-129509600D01*
G75*
G02*
X250001400Y-129408000I0J101600D01*
G01*
G37*
G36*
G01*
X249051400Y-129408000D02*
X249051400Y-128208000D01*
G75*
G02*
X249153000Y-128106400I101600J0D01*
G01*
X249703000Y-128106400D01*
G75*
G02*
X249804600Y-128208000I0J-101600D01*
G01*
X249804600Y-129408000D01*
G75*
G02*
X249703000Y-129509600I-101600J0D01*
G01*
X249153000Y-129509600D01*
G75*
G02*
X249051400Y-129408000I0J101600D01*
G01*
G37*
G36*
G01*
X248101400Y-129408000D02*
X248101400Y-128208000D01*
G75*
G02*
X248203000Y-128106400I101600J0D01*
G01*
X248753000Y-128106400D01*
G75*
G02*
X248854600Y-128208000I0J-101600D01*
G01*
X248854600Y-129408000D01*
G75*
G02*
X248753000Y-129509600I-101600J0D01*
G01*
X248203000Y-129509600D01*
G75*
G02*
X248101400Y-129408000I0J101600D01*
G01*
G37*
G36*
G01*
X239465400Y-126808000D02*
X239465400Y-125608000D01*
G75*
G02*
X239567000Y-125506400I101600J0D01*
G01*
X240117000Y-125506400D01*
G75*
G02*
X240218600Y-125608000I0J-101600D01*
G01*
X240218600Y-126808000D01*
G75*
G02*
X240117000Y-126909600I-101600J0D01*
G01*
X239567000Y-126909600D01*
G75*
G02*
X239465400Y-126808000I0J101600D01*
G01*
G37*
G36*
G01*
X241365400Y-126808000D02*
X241365400Y-125608000D01*
G75*
G02*
X241467000Y-125506400I101600J0D01*
G01*
X242017000Y-125506400D01*
G75*
G02*
X242118600Y-125608000I0J-101600D01*
G01*
X242118600Y-126808000D01*
G75*
G02*
X242017000Y-126909600I-101600J0D01*
G01*
X241467000Y-126909600D01*
G75*
G02*
X241365400Y-126808000I0J101600D01*
G01*
G37*
G36*
G01*
X241365400Y-129408000D02*
X241365400Y-128208000D01*
G75*
G02*
X241467000Y-128106400I101600J0D01*
G01*
X242017000Y-128106400D01*
G75*
G02*
X242118600Y-128208000I0J-101600D01*
G01*
X242118600Y-129408000D01*
G75*
G02*
X242017000Y-129509600I-101600J0D01*
G01*
X241467000Y-129509600D01*
G75*
G02*
X241365400Y-129408000I0J101600D01*
G01*
G37*
G36*
G01*
X240415400Y-129408000D02*
X240415400Y-128208000D01*
G75*
G02*
X240517000Y-128106400I101600J0D01*
G01*
X241067000Y-128106400D01*
G75*
G02*
X241168600Y-128208000I0J-101600D01*
G01*
X241168600Y-129408000D01*
G75*
G02*
X241067000Y-129509600I-101600J0D01*
G01*
X240517000Y-129509600D01*
G75*
G02*
X240415400Y-129408000I0J101600D01*
G01*
G37*
G36*
G01*
X239465400Y-129408000D02*
X239465400Y-128208000D01*
G75*
G02*
X239567000Y-128106400I101600J0D01*
G01*
X240117000Y-128106400D01*
G75*
G02*
X240218600Y-128208000I0J-101600D01*
G01*
X240218600Y-129408000D01*
G75*
G02*
X240117000Y-129509600I-101600J0D01*
G01*
X239567000Y-129509600D01*
G75*
G02*
X239465400Y-129408000I0J101600D01*
G01*
G37*
G36*
G01*
X230321400Y-125284000D02*
X230321400Y-124084000D01*
G75*
G02*
X230423000Y-123982400I101600J0D01*
G01*
X230973000Y-123982400D01*
G75*
G02*
X231074600Y-124084000I0J-101600D01*
G01*
X231074600Y-125284000D01*
G75*
G02*
X230973000Y-125385600I-101600J0D01*
G01*
X230423000Y-125385600D01*
G75*
G02*
X230321400Y-125284000I0J101600D01*
G01*
G37*
G36*
G01*
X232221400Y-125284000D02*
X232221400Y-124084000D01*
G75*
G02*
X232323000Y-123982400I101600J0D01*
G01*
X232873000Y-123982400D01*
G75*
G02*
X232974600Y-124084000I0J-101600D01*
G01*
X232974600Y-125284000D01*
G75*
G02*
X232873000Y-125385600I-101600J0D01*
G01*
X232323000Y-125385600D01*
G75*
G02*
X232221400Y-125284000I0J101600D01*
G01*
G37*
G36*
G01*
X232221400Y-127884000D02*
X232221400Y-126684000D01*
G75*
G02*
X232323000Y-126582400I101600J0D01*
G01*
X232873000Y-126582400D01*
G75*
G02*
X232974600Y-126684000I0J-101600D01*
G01*
X232974600Y-127884000D01*
G75*
G02*
X232873000Y-127985600I-101600J0D01*
G01*
X232323000Y-127985600D01*
G75*
G02*
X232221400Y-127884000I0J101600D01*
G01*
G37*
G36*
G01*
X231271400Y-127884000D02*
X231271400Y-126684000D01*
G75*
G02*
X231373000Y-126582400I101600J0D01*
G01*
X231923000Y-126582400D01*
G75*
G02*
X232024600Y-126684000I0J-101600D01*
G01*
X232024600Y-127884000D01*
G75*
G02*
X231923000Y-127985600I-101600J0D01*
G01*
X231373000Y-127985600D01*
G75*
G02*
X231271400Y-127884000I0J101600D01*
G01*
G37*
G36*
G01*
X230321400Y-127884000D02*
X230321400Y-126684000D01*
G75*
G02*
X230423000Y-126582400I101600J0D01*
G01*
X230973000Y-126582400D01*
G75*
G02*
X231074600Y-126684000I0J-101600D01*
G01*
X231074600Y-127884000D01*
G75*
G02*
X230973000Y-127985600I-101600J0D01*
G01*
X230423000Y-127985600D01*
G75*
G02*
X230321400Y-127884000I0J101600D01*
G01*
G37*
G36*
G01*
X220669400Y-126808000D02*
X220669400Y-125608000D01*
G75*
G02*
X220771000Y-125506400I101600J0D01*
G01*
X221321000Y-125506400D01*
G75*
G02*
X221422600Y-125608000I0J-101600D01*
G01*
X221422600Y-126808000D01*
G75*
G02*
X221321000Y-126909600I-101600J0D01*
G01*
X220771000Y-126909600D01*
G75*
G02*
X220669400Y-126808000I0J101600D01*
G01*
G37*
G36*
G01*
X222569400Y-126808000D02*
X222569400Y-125608000D01*
G75*
G02*
X222671000Y-125506400I101600J0D01*
G01*
X223221000Y-125506400D01*
G75*
G02*
X223322600Y-125608000I0J-101600D01*
G01*
X223322600Y-126808000D01*
G75*
G02*
X223221000Y-126909600I-101600J0D01*
G01*
X222671000Y-126909600D01*
G75*
G02*
X222569400Y-126808000I0J101600D01*
G01*
G37*
G36*
G01*
X222569400Y-129408000D02*
X222569400Y-128208000D01*
G75*
G02*
X222671000Y-128106400I101600J0D01*
G01*
X223221000Y-128106400D01*
G75*
G02*
X223322600Y-128208000I0J-101600D01*
G01*
X223322600Y-129408000D01*
G75*
G02*
X223221000Y-129509600I-101600J0D01*
G01*
X222671000Y-129509600D01*
G75*
G02*
X222569400Y-129408000I0J101600D01*
G01*
G37*
G36*
G01*
X221619400Y-129408000D02*
X221619400Y-128208000D01*
G75*
G02*
X221721000Y-128106400I101600J0D01*
G01*
X222271000Y-128106400D01*
G75*
G02*
X222372600Y-128208000I0J-101600D01*
G01*
X222372600Y-129408000D01*
G75*
G02*
X222271000Y-129509600I-101600J0D01*
G01*
X221721000Y-129509600D01*
G75*
G02*
X221619400Y-129408000I0J101600D01*
G01*
G37*
G36*
G01*
X220669400Y-129408000D02*
X220669400Y-128208000D01*
G75*
G02*
X220771000Y-128106400I101600J0D01*
G01*
X221321000Y-128106400D01*
G75*
G02*
X221422600Y-128208000I0J-101600D01*
G01*
X221422600Y-129408000D01*
G75*
G02*
X221321000Y-129509600I-101600J0D01*
G01*
X220771000Y-129509600D01*
G75*
G02*
X220669400Y-129408000I0J101600D01*
G01*
G37*
G36*
G01*
X249229600Y-120154000D02*
X249229600Y-121654000D01*
G75*
G02*
X249128000Y-121755600I-101600J0D01*
G01*
X247828000Y-121755600D01*
G75*
G02*
X247726400Y-121654000I0J101600D01*
G01*
X247726400Y-120154000D01*
G75*
G02*
X247828000Y-120052400I101600J0D01*
G01*
X249128000Y-120052400D01*
G75*
G02*
X249229600Y-120154000I0J-101600D01*
G01*
G37*
G36*
G01*
X251129600Y-120154000D02*
X251129600Y-121654000D01*
G75*
G02*
X251028000Y-121755600I-101600J0D01*
G01*
X249728000Y-121755600D01*
G75*
G02*
X249626400Y-121654000I0J101600D01*
G01*
X249626400Y-120154000D01*
G75*
G02*
X249728000Y-120052400I101600J0D01*
G01*
X251028000Y-120052400D01*
G75*
G02*
X251129600Y-120154000I0J-101600D01*
G01*
G37*
G36*
G01*
X249560400Y-124194000D02*
X249560400Y-122694000D01*
G75*
G02*
X249662000Y-122592400I101600J0D01*
G01*
X250962000Y-122592400D01*
G75*
G02*
X251063600Y-122694000I0J-101600D01*
G01*
X251063600Y-124194000D01*
G75*
G02*
X250962000Y-124295600I-101600J0D01*
G01*
X249662000Y-124295600D01*
G75*
G02*
X249560400Y-124194000I0J101600D01*
G01*
G37*
G36*
G01*
X247660400Y-124194000D02*
X247660400Y-122694000D01*
G75*
G02*
X247762000Y-122592400I101600J0D01*
G01*
X249062000Y-122592400D01*
G75*
G02*
X249163600Y-122694000I0J-101600D01*
G01*
X249163600Y-124194000D01*
G75*
G02*
X249062000Y-124295600I-101600J0D01*
G01*
X247762000Y-124295600D01*
G75*
G02*
X247660400Y-124194000I0J101600D01*
G01*
G37*
G36*
G01*
X240593600Y-120154000D02*
X240593600Y-121654000D01*
G75*
G02*
X240492000Y-121755600I-101600J0D01*
G01*
X239192000Y-121755600D01*
G75*
G02*
X239090400Y-121654000I0J101600D01*
G01*
X239090400Y-120154000D01*
G75*
G02*
X239192000Y-120052400I101600J0D01*
G01*
X240492000Y-120052400D01*
G75*
G02*
X240593600Y-120154000I0J-101600D01*
G01*
G37*
G36*
G01*
X242493600Y-120154000D02*
X242493600Y-121654000D01*
G75*
G02*
X242392000Y-121755600I-101600J0D01*
G01*
X241092000Y-121755600D01*
G75*
G02*
X240990400Y-121654000I0J101600D01*
G01*
X240990400Y-120154000D01*
G75*
G02*
X241092000Y-120052400I101600J0D01*
G01*
X242392000Y-120052400D01*
G75*
G02*
X242493600Y-120154000I0J-101600D01*
G01*
G37*
G36*
G01*
X240990400Y-124194000D02*
X240990400Y-122694000D01*
G75*
G02*
X241092000Y-122592400I101600J0D01*
G01*
X242392000Y-122592400D01*
G75*
G02*
X242493600Y-122694000I0J-101600D01*
G01*
X242493600Y-124194000D01*
G75*
G02*
X242392000Y-124295600I-101600J0D01*
G01*
X241092000Y-124295600D01*
G75*
G02*
X240990400Y-124194000I0J101600D01*
G01*
G37*
G36*
G01*
X239090400Y-124194000D02*
X239090400Y-122694000D01*
G75*
G02*
X239192000Y-122592400I101600J0D01*
G01*
X240492000Y-122592400D01*
G75*
G02*
X240593600Y-122694000I0J-101600D01*
G01*
X240593600Y-124194000D01*
G75*
G02*
X240492000Y-124295600I-101600J0D01*
G01*
X239192000Y-124295600D01*
G75*
G02*
X239090400Y-124194000I0J101600D01*
G01*
G37*
G36*
G01*
X231449600Y-133870000D02*
X231449600Y-135370000D01*
G75*
G02*
X231348000Y-135471600I-101600J0D01*
G01*
X230048000Y-135471600D01*
G75*
G02*
X229946400Y-135370000I0J101600D01*
G01*
X229946400Y-133870000D01*
G75*
G02*
X230048000Y-133768400I101600J0D01*
G01*
X231348000Y-133768400D01*
G75*
G02*
X231449600Y-133870000I0J-101600D01*
G01*
G37*
G36*
G01*
X233349600Y-133870000D02*
X233349600Y-135370000D01*
G75*
G02*
X233248000Y-135471600I-101600J0D01*
G01*
X231948000Y-135471600D01*
G75*
G02*
X231846400Y-135370000I0J101600D01*
G01*
X231846400Y-133870000D01*
G75*
G02*
X231948000Y-133768400I101600J0D01*
G01*
X233248000Y-133768400D01*
G75*
G02*
X233349600Y-133870000I0J-101600D01*
G01*
G37*
G36*
G01*
X231846400Y-130290000D02*
X231846400Y-128790000D01*
G75*
G02*
X231948000Y-128688400I101600J0D01*
G01*
X233248000Y-128688400D01*
G75*
G02*
X233349600Y-128790000I0J-101600D01*
G01*
X233349600Y-130290000D01*
G75*
G02*
X233248000Y-130391600I-101600J0D01*
G01*
X231948000Y-130391600D01*
G75*
G02*
X231846400Y-130290000I0J101600D01*
G01*
G37*
G36*
G01*
X229946400Y-130290000D02*
X229946400Y-128790000D01*
G75*
G02*
X230048000Y-128688400I101600J0D01*
G01*
X231348000Y-128688400D01*
G75*
G02*
X231449600Y-128790000I0J-101600D01*
G01*
X231449600Y-130290000D01*
G75*
G02*
X231348000Y-130391600I-101600J0D01*
G01*
X230048000Y-130391600D01*
G75*
G02*
X229946400Y-130290000I0J101600D01*
G01*
G37*
D10*
X240792000Y-117094000D03*
X238252000Y-117094000D03*
X235712000Y-117094000D03*
X233172000Y-117094000D03*
D11*
X230632000Y-117094000D03*
D10*
X217424000Y-135128000D03*
D11*
X219964000Y-135128000D03*
G36*
G01*
X225469600Y-133919999D02*
X225469600Y-135320001D01*
G75*
G02*
X225368001Y-135421600I-101599J0D01*
G01*
X223967999Y-135421600D01*
G75*
G02*
X223866400Y-135320001I0J101599D01*
G01*
X223866400Y-133919999D01*
G75*
G02*
X223967999Y-133818400I101599J0D01*
G01*
X225368001Y-133818400D01*
G75*
G02*
X225469600Y-133919999I0J-101599D01*
G01*
G37*
G36*
G01*
X229269600Y-133919999D02*
X229269600Y-135320001D01*
G75*
G02*
X229168001Y-135421600I-101599J0D01*
G01*
X227767999Y-135421600D01*
G75*
G02*
X227666400Y-135320001I0J101599D01*
G01*
X227666400Y-133919999D01*
G75*
G02*
X227767999Y-133818400I101599J0D01*
G01*
X229168001Y-133818400D01*
G75*
G02*
X229269600Y-133919999I0J-101599D01*
G01*
G37*
G36*
G01*
X244056000Y-124306400D02*
X245656000Y-124306400D01*
G75*
G02*
X245757600Y-124408000I0J-101600D01*
G01*
X245757600Y-127008000D01*
G75*
G02*
X245656000Y-127109600I-101600J0D01*
G01*
X244056000Y-127109600D01*
G75*
G02*
X243954400Y-127008000I0J101600D01*
G01*
X243954400Y-124408000D01*
G75*
G02*
X244056000Y-124306400I101600J0D01*
G01*
G37*
G36*
G01*
X244056000Y-127906400D02*
X245656000Y-127906400D01*
G75*
G02*
X245757600Y-128008000I0J-101600D01*
G01*
X245757600Y-130608000D01*
G75*
G02*
X245656000Y-130709600I-101600J0D01*
G01*
X244056000Y-130709600D01*
G75*
G02*
X243954400Y-130608000I0J101600D01*
G01*
X243954400Y-128008000D01*
G75*
G02*
X244056000Y-127906400I101600J0D01*
G01*
G37*
G36*
G01*
X237528000Y-130201600D02*
X235928000Y-130201600D01*
G75*
G02*
X235826400Y-130100000I0J101600D01*
G01*
X235826400Y-127500000D01*
G75*
G02*
X235928000Y-127398400I101600J0D01*
G01*
X237528000Y-127398400D01*
G75*
G02*
X237629600Y-127500000I0J-101600D01*
G01*
X237629600Y-130100000D01*
G75*
G02*
X237528000Y-130201600I-101600J0D01*
G01*
G37*
G36*
G01*
X237528000Y-126601600D02*
X235928000Y-126601600D01*
G75*
G02*
X235826400Y-126500000I0J101600D01*
G01*
X235826400Y-123900000D01*
G75*
G02*
X235928000Y-123798400I101600J0D01*
G01*
X237528000Y-123798400D01*
G75*
G02*
X237629600Y-123900000I0J-101600D01*
G01*
X237629600Y-126500000D01*
G75*
G02*
X237528000Y-126601600I-101600J0D01*
G01*
G37*
G36*
G01*
X227274400Y-132830000D02*
X227274400Y-131330000D01*
G75*
G02*
X227376000Y-131228400I101600J0D01*
G01*
X228676000Y-131228400D01*
G75*
G02*
X228777600Y-131330000I0J-101600D01*
G01*
X228777600Y-132830000D01*
G75*
G02*
X228676000Y-132931600I-101600J0D01*
G01*
X227376000Y-132931600D01*
G75*
G02*
X227274400Y-132830000I0J101600D01*
G01*
G37*
G36*
G01*
X225374400Y-132830000D02*
X225374400Y-131330000D01*
G75*
G02*
X225476000Y-131228400I101600J0D01*
G01*
X226776000Y-131228400D01*
G75*
G02*
X226877600Y-131330000I0J-101600D01*
G01*
X226877600Y-132830000D01*
G75*
G02*
X226776000Y-132931600I-101600J0D01*
G01*
X225476000Y-132931600D01*
G75*
G02*
X225374400Y-132830000I0J101600D01*
G01*
G37*
G36*
G01*
X231846400Y-132830000D02*
X231846400Y-131330000D01*
G75*
G02*
X231948000Y-131228400I101600J0D01*
G01*
X233248000Y-131228400D01*
G75*
G02*
X233349600Y-131330000I0J-101600D01*
G01*
X233349600Y-132830000D01*
G75*
G02*
X233248000Y-132931600I-101600J0D01*
G01*
X231948000Y-132931600D01*
G75*
G02*
X231846400Y-132830000I0J101600D01*
G01*
G37*
G36*
G01*
X229946400Y-132830000D02*
X229946400Y-131330000D01*
G75*
G02*
X230048000Y-131228400I101600J0D01*
G01*
X231348000Y-131228400D01*
G75*
G02*
X231449600Y-131330000I0J-101600D01*
G01*
X231449600Y-132830000D01*
G75*
G02*
X231348000Y-132931600I-101600J0D01*
G01*
X230048000Y-132931600D01*
G75*
G02*
X229946400Y-132830000I0J101600D01*
G01*
G37*
G36*
G01*
X227274400Y-126734000D02*
X227274400Y-125234000D01*
G75*
G02*
X227376000Y-125132400I101600J0D01*
G01*
X228676000Y-125132400D01*
G75*
G02*
X228777600Y-125234000I0J-101600D01*
G01*
X228777600Y-126734000D01*
G75*
G02*
X228676000Y-126835600I-101600J0D01*
G01*
X227376000Y-126835600D01*
G75*
G02*
X227274400Y-126734000I0J101600D01*
G01*
G37*
G36*
G01*
X225374400Y-126734000D02*
X225374400Y-125234000D01*
G75*
G02*
X225476000Y-125132400I101600J0D01*
G01*
X226776000Y-125132400D01*
G75*
G02*
X226877600Y-125234000I0J-101600D01*
G01*
X226877600Y-126734000D01*
G75*
G02*
X226776000Y-126835600I-101600J0D01*
G01*
X225476000Y-126835600D01*
G75*
G02*
X225374400Y-126734000I0J101600D01*
G01*
G37*
G36*
G01*
X223165600Y-122136000D02*
X223165600Y-123736000D01*
G75*
G02*
X223064000Y-123837600I-101600J0D01*
G01*
X220464000Y-123837600D01*
G75*
G02*
X220362400Y-123736000I0J101600D01*
G01*
X220362400Y-122136000D01*
G75*
G02*
X220464000Y-122034400I101600J0D01*
G01*
X223064000Y-122034400D01*
G75*
G02*
X223165600Y-122136000I0J-101600D01*
G01*
G37*
G36*
G01*
X219565600Y-122136000D02*
X219565600Y-123736000D01*
G75*
G02*
X219464000Y-123837600I-101600J0D01*
G01*
X216864000Y-123837600D01*
G75*
G02*
X216762400Y-123736000I0J101600D01*
G01*
X216762400Y-122136000D01*
G75*
G02*
X216864000Y-122034400I101600J0D01*
G01*
X219464000Y-122034400D01*
G75*
G02*
X219565600Y-122136000I0J-101600D01*
G01*
G37*
G36*
G01*
X231846400Y-121654000D02*
X231846400Y-120154000D01*
G75*
G02*
X231948000Y-120052400I101600J0D01*
G01*
X233248000Y-120052400D01*
G75*
G02*
X233349600Y-120154000I0J-101600D01*
G01*
X233349600Y-121654000D01*
G75*
G02*
X233248000Y-121755600I-101600J0D01*
G01*
X231948000Y-121755600D01*
G75*
G02*
X231846400Y-121654000I0J101600D01*
G01*
G37*
G36*
G01*
X229946400Y-121654000D02*
X229946400Y-120154000D01*
G75*
G02*
X230048000Y-120052400I101600J0D01*
G01*
X231348000Y-120052400D01*
G75*
G02*
X231449600Y-120154000I0J-101600D01*
G01*
X231449600Y-121654000D01*
G75*
G02*
X231348000Y-121755600I-101600J0D01*
G01*
X230048000Y-121755600D01*
G75*
G02*
X229946400Y-121654000I0J101600D01*
G01*
G37*
G36*
G01*
X216624000Y-125830400D02*
X218224000Y-125830400D01*
G75*
G02*
X218325600Y-125932000I0J-101600D01*
G01*
X218325600Y-128532000D01*
G75*
G02*
X218224000Y-128633600I-101600J0D01*
G01*
X216624000Y-128633600D01*
G75*
G02*
X216522400Y-128532000I0J101600D01*
G01*
X216522400Y-125932000D01*
G75*
G02*
X216624000Y-125830400I101600J0D01*
G01*
G37*
G36*
G01*
X216624000Y-129430400D02*
X218224000Y-129430400D01*
G75*
G02*
X218325600Y-129532000I0J-101600D01*
G01*
X218325600Y-132132000D01*
G75*
G02*
X218224000Y-132233600I-101600J0D01*
G01*
X216624000Y-132233600D01*
G75*
G02*
X216522400Y-132132000I0J101600D01*
G01*
X216522400Y-129532000D01*
G75*
G02*
X216624000Y-129430400I101600J0D01*
G01*
G37*
D10*
X195072000Y-85344000D03*
X195072000Y-87884000D03*
X195072000Y-82804000D03*
X195072000Y-92964000D03*
X195072000Y-80264000D03*
X195072000Y-75184000D03*
X195072000Y-90424000D03*
X195072000Y-77724000D03*
D11*
X195072000Y-72644000D03*
D10*
X210312000Y-85344000D03*
X210312000Y-87884000D03*
X210312000Y-82804000D03*
X210312000Y-92964000D03*
X210312000Y-80264000D03*
X210312000Y-75184000D03*
X210312000Y-90424000D03*
X210312000Y-77724000D03*
D11*
X210312000Y-72644000D03*
D10*
X195072000Y-123444000D03*
X195072000Y-125984000D03*
X195072000Y-120904000D03*
X195072000Y-131064000D03*
X195072000Y-118364000D03*
X195072000Y-113284000D03*
X195072000Y-128524000D03*
X195072000Y-115824000D03*
D11*
X195072000Y-110744000D03*
D10*
X210312000Y-123444000D03*
X210312000Y-125984000D03*
X210312000Y-120904000D03*
X210312000Y-131064000D03*
X210312000Y-118364000D03*
X210312000Y-113284000D03*
X210312000Y-128524000D03*
X210312000Y-115824000D03*
D11*
X210312000Y-110744000D03*
D12*
X234816000Y-67324000D03*
X234816000Y-57724000D03*
D13*
X242316000Y-60024000D03*
X242316000Y-62524000D03*
D14*
X242316000Y-65024000D03*
D12*
X249548000Y-67324000D03*
X249548000Y-57724000D03*
D13*
X257048000Y-60024000D03*
X257048000Y-62524000D03*
D14*
X257048000Y-65024000D03*
D12*
X234816000Y-81548000D03*
X234816000Y-71948000D03*
D13*
X242316000Y-74248000D03*
X242316000Y-76748000D03*
D14*
X242316000Y-79248000D03*
D12*
X249548000Y-81548000D03*
X249548000Y-71948000D03*
D13*
X257048000Y-74248000D03*
X257048000Y-76748000D03*
D14*
X257048000Y-79248000D03*
D10*
X256540000Y-88392000D03*
D11*
X256540000Y-90932000D03*
G36*
G01*
X228036000Y-98192000D02*
X229361000Y-98192000D01*
G75*
G02*
X229436000Y-98267000I0J-75000D01*
G01*
X229436000Y-98417000D01*
G75*
G02*
X229361000Y-98492000I-75000J0D01*
G01*
X228036000Y-98492000D01*
G75*
G02*
X227961000Y-98417000I0J75000D01*
G01*
X227961000Y-98267000D01*
G75*
G02*
X228036000Y-98192000I75000J0D01*
G01*
G37*
G36*
G01*
X228036000Y-98692000D02*
X229361000Y-98692000D01*
G75*
G02*
X229436000Y-98767000I0J-75000D01*
G01*
X229436000Y-98917000D01*
G75*
G02*
X229361000Y-98992000I-75000J0D01*
G01*
X228036000Y-98992000D01*
G75*
G02*
X227961000Y-98917000I0J75000D01*
G01*
X227961000Y-98767000D01*
G75*
G02*
X228036000Y-98692000I75000J0D01*
G01*
G37*
G36*
G01*
X228036000Y-99192000D02*
X229361000Y-99192000D01*
G75*
G02*
X229436000Y-99267000I0J-75000D01*
G01*
X229436000Y-99417000D01*
G75*
G02*
X229361000Y-99492000I-75000J0D01*
G01*
X228036000Y-99492000D01*
G75*
G02*
X227961000Y-99417000I0J75000D01*
G01*
X227961000Y-99267000D01*
G75*
G02*
X228036000Y-99192000I75000J0D01*
G01*
G37*
G36*
G01*
X228036000Y-99692000D02*
X229361000Y-99692000D01*
G75*
G02*
X229436000Y-99767000I0J-75000D01*
G01*
X229436000Y-99917000D01*
G75*
G02*
X229361000Y-99992000I-75000J0D01*
G01*
X228036000Y-99992000D01*
G75*
G02*
X227961000Y-99917000I0J75000D01*
G01*
X227961000Y-99767000D01*
G75*
G02*
X228036000Y-99692000I75000J0D01*
G01*
G37*
G36*
G01*
X228036000Y-100192000D02*
X229361000Y-100192000D01*
G75*
G02*
X229436000Y-100267000I0J-75000D01*
G01*
X229436000Y-100417000D01*
G75*
G02*
X229361000Y-100492000I-75000J0D01*
G01*
X228036000Y-100492000D01*
G75*
G02*
X227961000Y-100417000I0J75000D01*
G01*
X227961000Y-100267000D01*
G75*
G02*
X228036000Y-100192000I75000J0D01*
G01*
G37*
G36*
G01*
X228036000Y-100692000D02*
X229361000Y-100692000D01*
G75*
G02*
X229436000Y-100767000I0J-75000D01*
G01*
X229436000Y-100917000D01*
G75*
G02*
X229361000Y-100992000I-75000J0D01*
G01*
X228036000Y-100992000D01*
G75*
G02*
X227961000Y-100917000I0J75000D01*
G01*
X227961000Y-100767000D01*
G75*
G02*
X228036000Y-100692000I75000J0D01*
G01*
G37*
G36*
G01*
X228036000Y-101192000D02*
X229361000Y-101192000D01*
G75*
G02*
X229436000Y-101267000I0J-75000D01*
G01*
X229436000Y-101417000D01*
G75*
G02*
X229361000Y-101492000I-75000J0D01*
G01*
X228036000Y-101492000D01*
G75*
G02*
X227961000Y-101417000I0J75000D01*
G01*
X227961000Y-101267000D01*
G75*
G02*
X228036000Y-101192000I75000J0D01*
G01*
G37*
G36*
G01*
X228036000Y-101692000D02*
X229361000Y-101692000D01*
G75*
G02*
X229436000Y-101767000I0J-75000D01*
G01*
X229436000Y-101917000D01*
G75*
G02*
X229361000Y-101992000I-75000J0D01*
G01*
X228036000Y-101992000D01*
G75*
G02*
X227961000Y-101917000I0J75000D01*
G01*
X227961000Y-101767000D01*
G75*
G02*
X228036000Y-101692000I75000J0D01*
G01*
G37*
G36*
G01*
X228036000Y-102192000D02*
X229361000Y-102192000D01*
G75*
G02*
X229436000Y-102267000I0J-75000D01*
G01*
X229436000Y-102417000D01*
G75*
G02*
X229361000Y-102492000I-75000J0D01*
G01*
X228036000Y-102492000D01*
G75*
G02*
X227961000Y-102417000I0J75000D01*
G01*
X227961000Y-102267000D01*
G75*
G02*
X228036000Y-102192000I75000J0D01*
G01*
G37*
G36*
G01*
X228036000Y-102692000D02*
X229361000Y-102692000D01*
G75*
G02*
X229436000Y-102767000I0J-75000D01*
G01*
X229436000Y-102917000D01*
G75*
G02*
X229361000Y-102992000I-75000J0D01*
G01*
X228036000Y-102992000D01*
G75*
G02*
X227961000Y-102917000I0J75000D01*
G01*
X227961000Y-102767000D01*
G75*
G02*
X228036000Y-102692000I75000J0D01*
G01*
G37*
G36*
G01*
X228036000Y-103192000D02*
X229361000Y-103192000D01*
G75*
G02*
X229436000Y-103267000I0J-75000D01*
G01*
X229436000Y-103417000D01*
G75*
G02*
X229361000Y-103492000I-75000J0D01*
G01*
X228036000Y-103492000D01*
G75*
G02*
X227961000Y-103417000I0J75000D01*
G01*
X227961000Y-103267000D01*
G75*
G02*
X228036000Y-103192000I75000J0D01*
G01*
G37*
G36*
G01*
X228036000Y-103692000D02*
X229361000Y-103692000D01*
G75*
G02*
X229436000Y-103767000I0J-75000D01*
G01*
X229436000Y-103917000D01*
G75*
G02*
X229361000Y-103992000I-75000J0D01*
G01*
X228036000Y-103992000D01*
G75*
G02*
X227961000Y-103917000I0J75000D01*
G01*
X227961000Y-103767000D01*
G75*
G02*
X228036000Y-103692000I75000J0D01*
G01*
G37*
G36*
G01*
X227211000Y-104517000D02*
X227361000Y-104517000D01*
G75*
G02*
X227436000Y-104592000I0J-75000D01*
G01*
X227436000Y-105917000D01*
G75*
G02*
X227361000Y-105992000I-75000J0D01*
G01*
X227211000Y-105992000D01*
G75*
G02*
X227136000Y-105917000I0J75000D01*
G01*
X227136000Y-104592000D01*
G75*
G02*
X227211000Y-104517000I75000J0D01*
G01*
G37*
G36*
G01*
X226711000Y-104517000D02*
X226861000Y-104517000D01*
G75*
G02*
X226936000Y-104592000I0J-75000D01*
G01*
X226936000Y-105917000D01*
G75*
G02*
X226861000Y-105992000I-75000J0D01*
G01*
X226711000Y-105992000D01*
G75*
G02*
X226636000Y-105917000I0J75000D01*
G01*
X226636000Y-104592000D01*
G75*
G02*
X226711000Y-104517000I75000J0D01*
G01*
G37*
G36*
G01*
X226211000Y-104517000D02*
X226361000Y-104517000D01*
G75*
G02*
X226436000Y-104592000I0J-75000D01*
G01*
X226436000Y-105917000D01*
G75*
G02*
X226361000Y-105992000I-75000J0D01*
G01*
X226211000Y-105992000D01*
G75*
G02*
X226136000Y-105917000I0J75000D01*
G01*
X226136000Y-104592000D01*
G75*
G02*
X226211000Y-104517000I75000J0D01*
G01*
G37*
G36*
G01*
X225711000Y-104517000D02*
X225861000Y-104517000D01*
G75*
G02*
X225936000Y-104592000I0J-75000D01*
G01*
X225936000Y-105917000D01*
G75*
G02*
X225861000Y-105992000I-75000J0D01*
G01*
X225711000Y-105992000D01*
G75*
G02*
X225636000Y-105917000I0J75000D01*
G01*
X225636000Y-104592000D01*
G75*
G02*
X225711000Y-104517000I75000J0D01*
G01*
G37*
G36*
G01*
X225211000Y-104517000D02*
X225361000Y-104517000D01*
G75*
G02*
X225436000Y-104592000I0J-75000D01*
G01*
X225436000Y-105917000D01*
G75*
G02*
X225361000Y-105992000I-75000J0D01*
G01*
X225211000Y-105992000D01*
G75*
G02*
X225136000Y-105917000I0J75000D01*
G01*
X225136000Y-104592000D01*
G75*
G02*
X225211000Y-104517000I75000J0D01*
G01*
G37*
G36*
G01*
X224711000Y-104517000D02*
X224861000Y-104517000D01*
G75*
G02*
X224936000Y-104592000I0J-75000D01*
G01*
X224936000Y-105917000D01*
G75*
G02*
X224861000Y-105992000I-75000J0D01*
G01*
X224711000Y-105992000D01*
G75*
G02*
X224636000Y-105917000I0J75000D01*
G01*
X224636000Y-104592000D01*
G75*
G02*
X224711000Y-104517000I75000J0D01*
G01*
G37*
G36*
G01*
X224211000Y-104517000D02*
X224361000Y-104517000D01*
G75*
G02*
X224436000Y-104592000I0J-75000D01*
G01*
X224436000Y-105917000D01*
G75*
G02*
X224361000Y-105992000I-75000J0D01*
G01*
X224211000Y-105992000D01*
G75*
G02*
X224136000Y-105917000I0J75000D01*
G01*
X224136000Y-104592000D01*
G75*
G02*
X224211000Y-104517000I75000J0D01*
G01*
G37*
G36*
G01*
X223711000Y-104517000D02*
X223861000Y-104517000D01*
G75*
G02*
X223936000Y-104592000I0J-75000D01*
G01*
X223936000Y-105917000D01*
G75*
G02*
X223861000Y-105992000I-75000J0D01*
G01*
X223711000Y-105992000D01*
G75*
G02*
X223636000Y-105917000I0J75000D01*
G01*
X223636000Y-104592000D01*
G75*
G02*
X223711000Y-104517000I75000J0D01*
G01*
G37*
G36*
G01*
X223211000Y-104517000D02*
X223361000Y-104517000D01*
G75*
G02*
X223436000Y-104592000I0J-75000D01*
G01*
X223436000Y-105917000D01*
G75*
G02*
X223361000Y-105992000I-75000J0D01*
G01*
X223211000Y-105992000D01*
G75*
G02*
X223136000Y-105917000I0J75000D01*
G01*
X223136000Y-104592000D01*
G75*
G02*
X223211000Y-104517000I75000J0D01*
G01*
G37*
G36*
G01*
X222711000Y-104517000D02*
X222861000Y-104517000D01*
G75*
G02*
X222936000Y-104592000I0J-75000D01*
G01*
X222936000Y-105917000D01*
G75*
G02*
X222861000Y-105992000I-75000J0D01*
G01*
X222711000Y-105992000D01*
G75*
G02*
X222636000Y-105917000I0J75000D01*
G01*
X222636000Y-104592000D01*
G75*
G02*
X222711000Y-104517000I75000J0D01*
G01*
G37*
G36*
G01*
X222211000Y-104517000D02*
X222361000Y-104517000D01*
G75*
G02*
X222436000Y-104592000I0J-75000D01*
G01*
X222436000Y-105917000D01*
G75*
G02*
X222361000Y-105992000I-75000J0D01*
G01*
X222211000Y-105992000D01*
G75*
G02*
X222136000Y-105917000I0J75000D01*
G01*
X222136000Y-104592000D01*
G75*
G02*
X222211000Y-104517000I75000J0D01*
G01*
G37*
G36*
G01*
X221711000Y-104517000D02*
X221861000Y-104517000D01*
G75*
G02*
X221936000Y-104592000I0J-75000D01*
G01*
X221936000Y-105917000D01*
G75*
G02*
X221861000Y-105992000I-75000J0D01*
G01*
X221711000Y-105992000D01*
G75*
G02*
X221636000Y-105917000I0J75000D01*
G01*
X221636000Y-104592000D01*
G75*
G02*
X221711000Y-104517000I75000J0D01*
G01*
G37*
G36*
G01*
X219711000Y-103692000D02*
X221036000Y-103692000D01*
G75*
G02*
X221111000Y-103767000I0J-75000D01*
G01*
X221111000Y-103917000D01*
G75*
G02*
X221036000Y-103992000I-75000J0D01*
G01*
X219711000Y-103992000D01*
G75*
G02*
X219636000Y-103917000I0J75000D01*
G01*
X219636000Y-103767000D01*
G75*
G02*
X219711000Y-103692000I75000J0D01*
G01*
G37*
G36*
G01*
X219711000Y-103192000D02*
X221036000Y-103192000D01*
G75*
G02*
X221111000Y-103267000I0J-75000D01*
G01*
X221111000Y-103417000D01*
G75*
G02*
X221036000Y-103492000I-75000J0D01*
G01*
X219711000Y-103492000D01*
G75*
G02*
X219636000Y-103417000I0J75000D01*
G01*
X219636000Y-103267000D01*
G75*
G02*
X219711000Y-103192000I75000J0D01*
G01*
G37*
G36*
G01*
X219711000Y-102692000D02*
X221036000Y-102692000D01*
G75*
G02*
X221111000Y-102767000I0J-75000D01*
G01*
X221111000Y-102917000D01*
G75*
G02*
X221036000Y-102992000I-75000J0D01*
G01*
X219711000Y-102992000D01*
G75*
G02*
X219636000Y-102917000I0J75000D01*
G01*
X219636000Y-102767000D01*
G75*
G02*
X219711000Y-102692000I75000J0D01*
G01*
G37*
G36*
G01*
X219711000Y-102192000D02*
X221036000Y-102192000D01*
G75*
G02*
X221111000Y-102267000I0J-75000D01*
G01*
X221111000Y-102417000D01*
G75*
G02*
X221036000Y-102492000I-75000J0D01*
G01*
X219711000Y-102492000D01*
G75*
G02*
X219636000Y-102417000I0J75000D01*
G01*
X219636000Y-102267000D01*
G75*
G02*
X219711000Y-102192000I75000J0D01*
G01*
G37*
G36*
G01*
X219711000Y-101692000D02*
X221036000Y-101692000D01*
G75*
G02*
X221111000Y-101767000I0J-75000D01*
G01*
X221111000Y-101917000D01*
G75*
G02*
X221036000Y-101992000I-75000J0D01*
G01*
X219711000Y-101992000D01*
G75*
G02*
X219636000Y-101917000I0J75000D01*
G01*
X219636000Y-101767000D01*
G75*
G02*
X219711000Y-101692000I75000J0D01*
G01*
G37*
G36*
G01*
X219711000Y-101192000D02*
X221036000Y-101192000D01*
G75*
G02*
X221111000Y-101267000I0J-75000D01*
G01*
X221111000Y-101417000D01*
G75*
G02*
X221036000Y-101492000I-75000J0D01*
G01*
X219711000Y-101492000D01*
G75*
G02*
X219636000Y-101417000I0J75000D01*
G01*
X219636000Y-101267000D01*
G75*
G02*
X219711000Y-101192000I75000J0D01*
G01*
G37*
G36*
G01*
X219711000Y-100692000D02*
X221036000Y-100692000D01*
G75*
G02*
X221111000Y-100767000I0J-75000D01*
G01*
X221111000Y-100917000D01*
G75*
G02*
X221036000Y-100992000I-75000J0D01*
G01*
X219711000Y-100992000D01*
G75*
G02*
X219636000Y-100917000I0J75000D01*
G01*
X219636000Y-100767000D01*
G75*
G02*
X219711000Y-100692000I75000J0D01*
G01*
G37*
G36*
G01*
X219711000Y-100192000D02*
X221036000Y-100192000D01*
G75*
G02*
X221111000Y-100267000I0J-75000D01*
G01*
X221111000Y-100417000D01*
G75*
G02*
X221036000Y-100492000I-75000J0D01*
G01*
X219711000Y-100492000D01*
G75*
G02*
X219636000Y-100417000I0J75000D01*
G01*
X219636000Y-100267000D01*
G75*
G02*
X219711000Y-100192000I75000J0D01*
G01*
G37*
G36*
G01*
X219711000Y-99692000D02*
X221036000Y-99692000D01*
G75*
G02*
X221111000Y-99767000I0J-75000D01*
G01*
X221111000Y-99917000D01*
G75*
G02*
X221036000Y-99992000I-75000J0D01*
G01*
X219711000Y-99992000D01*
G75*
G02*
X219636000Y-99917000I0J75000D01*
G01*
X219636000Y-99767000D01*
G75*
G02*
X219711000Y-99692000I75000J0D01*
G01*
G37*
G36*
G01*
X219711000Y-99192000D02*
X221036000Y-99192000D01*
G75*
G02*
X221111000Y-99267000I0J-75000D01*
G01*
X221111000Y-99417000D01*
G75*
G02*
X221036000Y-99492000I-75000J0D01*
G01*
X219711000Y-99492000D01*
G75*
G02*
X219636000Y-99417000I0J75000D01*
G01*
X219636000Y-99267000D01*
G75*
G02*
X219711000Y-99192000I75000J0D01*
G01*
G37*
G36*
G01*
X219711000Y-98692000D02*
X221036000Y-98692000D01*
G75*
G02*
X221111000Y-98767000I0J-75000D01*
G01*
X221111000Y-98917000D01*
G75*
G02*
X221036000Y-98992000I-75000J0D01*
G01*
X219711000Y-98992000D01*
G75*
G02*
X219636000Y-98917000I0J75000D01*
G01*
X219636000Y-98767000D01*
G75*
G02*
X219711000Y-98692000I75000J0D01*
G01*
G37*
G36*
G01*
X219711000Y-98192000D02*
X221036000Y-98192000D01*
G75*
G02*
X221111000Y-98267000I0J-75000D01*
G01*
X221111000Y-98417000D01*
G75*
G02*
X221036000Y-98492000I-75000J0D01*
G01*
X219711000Y-98492000D01*
G75*
G02*
X219636000Y-98417000I0J75000D01*
G01*
X219636000Y-98267000D01*
G75*
G02*
X219711000Y-98192000I75000J0D01*
G01*
G37*
G36*
G01*
X221711000Y-96192000D02*
X221861000Y-96192000D01*
G75*
G02*
X221936000Y-96267000I0J-75000D01*
G01*
X221936000Y-97592000D01*
G75*
G02*
X221861000Y-97667000I-75000J0D01*
G01*
X221711000Y-97667000D01*
G75*
G02*
X221636000Y-97592000I0J75000D01*
G01*
X221636000Y-96267000D01*
G75*
G02*
X221711000Y-96192000I75000J0D01*
G01*
G37*
G36*
G01*
X222211000Y-96192000D02*
X222361000Y-96192000D01*
G75*
G02*
X222436000Y-96267000I0J-75000D01*
G01*
X222436000Y-97592000D01*
G75*
G02*
X222361000Y-97667000I-75000J0D01*
G01*
X222211000Y-97667000D01*
G75*
G02*
X222136000Y-97592000I0J75000D01*
G01*
X222136000Y-96267000D01*
G75*
G02*
X222211000Y-96192000I75000J0D01*
G01*
G37*
G36*
G01*
X222711000Y-96192000D02*
X222861000Y-96192000D01*
G75*
G02*
X222936000Y-96267000I0J-75000D01*
G01*
X222936000Y-97592000D01*
G75*
G02*
X222861000Y-97667000I-75000J0D01*
G01*
X222711000Y-97667000D01*
G75*
G02*
X222636000Y-97592000I0J75000D01*
G01*
X222636000Y-96267000D01*
G75*
G02*
X222711000Y-96192000I75000J0D01*
G01*
G37*
G36*
G01*
X223211000Y-96192000D02*
X223361000Y-96192000D01*
G75*
G02*
X223436000Y-96267000I0J-75000D01*
G01*
X223436000Y-97592000D01*
G75*
G02*
X223361000Y-97667000I-75000J0D01*
G01*
X223211000Y-97667000D01*
G75*
G02*
X223136000Y-97592000I0J75000D01*
G01*
X223136000Y-96267000D01*
G75*
G02*
X223211000Y-96192000I75000J0D01*
G01*
G37*
G36*
G01*
X223711000Y-96192000D02*
X223861000Y-96192000D01*
G75*
G02*
X223936000Y-96267000I0J-75000D01*
G01*
X223936000Y-97592000D01*
G75*
G02*
X223861000Y-97667000I-75000J0D01*
G01*
X223711000Y-97667000D01*
G75*
G02*
X223636000Y-97592000I0J75000D01*
G01*
X223636000Y-96267000D01*
G75*
G02*
X223711000Y-96192000I75000J0D01*
G01*
G37*
G36*
G01*
X224211000Y-96192000D02*
X224361000Y-96192000D01*
G75*
G02*
X224436000Y-96267000I0J-75000D01*
G01*
X224436000Y-97592000D01*
G75*
G02*
X224361000Y-97667000I-75000J0D01*
G01*
X224211000Y-97667000D01*
G75*
G02*
X224136000Y-97592000I0J75000D01*
G01*
X224136000Y-96267000D01*
G75*
G02*
X224211000Y-96192000I75000J0D01*
G01*
G37*
G36*
G01*
X224711000Y-96192000D02*
X224861000Y-96192000D01*
G75*
G02*
X224936000Y-96267000I0J-75000D01*
G01*
X224936000Y-97592000D01*
G75*
G02*
X224861000Y-97667000I-75000J0D01*
G01*
X224711000Y-97667000D01*
G75*
G02*
X224636000Y-97592000I0J75000D01*
G01*
X224636000Y-96267000D01*
G75*
G02*
X224711000Y-96192000I75000J0D01*
G01*
G37*
G36*
G01*
X225211000Y-96192000D02*
X225361000Y-96192000D01*
G75*
G02*
X225436000Y-96267000I0J-75000D01*
G01*
X225436000Y-97592000D01*
G75*
G02*
X225361000Y-97667000I-75000J0D01*
G01*
X225211000Y-97667000D01*
G75*
G02*
X225136000Y-97592000I0J75000D01*
G01*
X225136000Y-96267000D01*
G75*
G02*
X225211000Y-96192000I75000J0D01*
G01*
G37*
G36*
G01*
X225711000Y-96192000D02*
X225861000Y-96192000D01*
G75*
G02*
X225936000Y-96267000I0J-75000D01*
G01*
X225936000Y-97592000D01*
G75*
G02*
X225861000Y-97667000I-75000J0D01*
G01*
X225711000Y-97667000D01*
G75*
G02*
X225636000Y-97592000I0J75000D01*
G01*
X225636000Y-96267000D01*
G75*
G02*
X225711000Y-96192000I75000J0D01*
G01*
G37*
G36*
G01*
X226211000Y-96192000D02*
X226361000Y-96192000D01*
G75*
G02*
X226436000Y-96267000I0J-75000D01*
G01*
X226436000Y-97592000D01*
G75*
G02*
X226361000Y-97667000I-75000J0D01*
G01*
X226211000Y-97667000D01*
G75*
G02*
X226136000Y-97592000I0J75000D01*
G01*
X226136000Y-96267000D01*
G75*
G02*
X226211000Y-96192000I75000J0D01*
G01*
G37*
G36*
G01*
X226711000Y-96192000D02*
X226861000Y-96192000D01*
G75*
G02*
X226936000Y-96267000I0J-75000D01*
G01*
X226936000Y-97592000D01*
G75*
G02*
X226861000Y-97667000I-75000J0D01*
G01*
X226711000Y-97667000D01*
G75*
G02*
X226636000Y-97592000I0J75000D01*
G01*
X226636000Y-96267000D01*
G75*
G02*
X226711000Y-96192000I75000J0D01*
G01*
G37*
G36*
G01*
X227211000Y-96192000D02*
X227361000Y-96192000D01*
G75*
G02*
X227436000Y-96267000I0J-75000D01*
G01*
X227436000Y-97592000D01*
G75*
G02*
X227361000Y-97667000I-75000J0D01*
G01*
X227211000Y-97667000D01*
G75*
G02*
X227136000Y-97592000I0J75000D01*
G01*
X227136000Y-96267000D01*
G75*
G02*
X227211000Y-96192000I75000J0D01*
G01*
G37*
X251460000Y-88392000D03*
D10*
X251460000Y-90932000D03*
M02*
